SplineFontDB: 3.2
FontName: Dakkhinee-Regular
FullName: Dakkhinee Regular
FamilyName: Dakkhinee
Weight: Regular
Copyright: Copyright 2024 The Dakkhinee Project Authors (https://github.com/mitradranirban/font-dakkhinee)
FontLog: "muktiregular3.0beta1+AAoACgAA-Completed required glyphsets"
Version: 1.000
ItalicAngle: 0
UnderlinePosition: -366
UnderlineWidth: 73
Ascent: 800
Descent: 200
InvalidEm: 0
LayerCount: 2
Layer: 0 0 "Back" 1
Layer: 1 0 "Fore" 0
XUID: [1021 498 675293083 873107]
BaseVert: 2 'hang' 'romn'
BaseScript: 'beng' 0  1024 0
BaseScript: 'deva' 0  1024 0
BaseScript: 'latn' 1  0 0
FSType: 0
OS2Version: 4
OS2_WeightWidthSlopeOnly: 0
OS2_UseTypoMetrics: 1
CreationTime: 1138213189
ModificationTime: 1722874594
PfmFamily: 81
TTFWeight: 400
TTFWidth: 5
LineGap: 0
VLineGap: 0
OS2TypoAscent: 1200
OS2TypoAOffset: 0
OS2TypoDescent: -300
OS2TypoDOffset: 0
OS2TypoLinegap: 0
OS2WinAscent: 1295
OS2WinAOffset: 0
OS2WinDescent: 672
OS2WinDOffset: 0
HheadAscent: 1200
HheadAOffset: 0
HheadDescent: -300
HheadDOffset: 0
OS2CapHeight: 800
OS2XHeight: 508
OS2Vendor: 'anir'
OS2UnicodeRanges: 80018007.00002002.00000000.00000000
Lookup: 4 0 1 "'liga' Standard Ligatures in Latin lookup 0" { "'liga' Standard Ligatures in Latin lookup 0-1"  } ['liga' ('DFLT' <'dflt' > 'latn' <'dflt' > ) ]
Lookup: 1 0 0 "'init' Initial Forms in Bengali2 lookup 0" { "'init' Initial Forms in Bengali lookup 0 subtable"  } ['init' ('bng2' <'ASM ' 'dflt' > ) ]
Lookup: 4 0 0 "'nukt' Nukta Forms in Bengali2 lookup 1" { "'nukt' Nukta Forms in Bengali lookup 1 subtable"  } ['nukt' ('bng2' <'ASM ' 'dflt' > ) ]
Lookup: 4 0 0 "'akhn' Akhand in Bengali2 lookup 2" { "'akhn' Akhand in Bengali lookup 2 subtable"  } ['akhn' ('bng2' <'dflt' > ) ]
Lookup: 4 0 0 "'rphf' Reph Form in Bengali2 lookup 3" { "'rphf' Reph Form in Bengali lookup 3 subtable"  } ['rphf' ('bng2' <'dflt' > ) 'rphf' ('bng2' <'ASM ' > ) ]

StartChar: comma
Encoding: 44 44 2
GlifName: comma
Width: 226
GlyphClass: 2
Flags: HMW
LayerCount: 2
Fore
SplineSet
81 -162 m 0
 74 -162 70 -160 66 -156 c 0
 62 -152 60 -148 60 -142 c 0
 60 -132 63 -122 69 -114 c 0
 75 -106 82 -97 88 -88 c 0
 94 -79 97 -67 97 -54 c 0
 97 -42 95 -32 90 -24 c 0
 85 -16 80 -8 74 -2 c 0
 68 4 62 10 57 18 c 0
 52 26 50 36 50 47 c 0
 50 64 55 77 66 87 c 0
 77 97 91 102 108 102 c 0
 128 102 144 94 157 78 c 0
 170 62 176 41 176 13 c 0
 176 -6 173 -25 168 -46 c 0
 163 -67 155 -86 146 -104 c 0
 137 -122 126 -135 115 -146 c 0
 104 -157 92 -162 81 -162 c 0
EndSplineSet
Validated: 1
EndChar

StartChar: danda
Encoding: 2404 2404 3
GlifName: danda
Width: 254
GlyphClass: 2
Flags: HMW
LayerCount: 2
Fore
SplineSet
60 -113 m 1
 60 496 l 1
 205 676 l 1
 205 41 l 1
 60 -113 l 1
EndSplineSet
Validated: 1
EndChar

StartChar: doubledanda
Encoding: 2405 2405 4
GlifName: doubledanda
Width: 625
GlyphClass: 2
Flags: HMW
LayerCount: 2
Fore
SplineSet
60 -113 m 1
 60 496 l 1
 205 676 l 1
 205 41 l 1
 60 -113 l 1
348 -113 m 1
 348 496 l 1
 493 676 l 1
 493 41 l 1
 348 -113 l 1
EndSplineSet
Validated: 1
EndChar

StartChar: u0981
Encoding: 2433 2433 5
GlifName: u0981
Width: 0
VWidth: 1024
GlyphClass: 4
Flags: HMW
LayerCount: 2
Fore
SplineSet
-213 1084 m 256
 -249 1084 -278 1113 -278 1149 c 0
 -278 1185 -249 1214 -213 1214 c 256
 -175 1214 -148 1185 -148 1149 c 256
 -148 1113 -177 1084 -213 1084 c 256
-213 1181 m 256
 -231 1181 -246 1167 -246 1149 c 0
 -246 1131 -231 1116 -213 1116 c 256
 -195 1116 -180 1131 -180 1149 c 256
 -180 1167 -195 1181 -213 1181 c 256
-211 986 m 256
 -299 986 -390 1048 -390 1132 c 0
 -390 1157 -383 1182 -368 1206 c 0
 -353 1230 -339 1252 -312 1272 c 1
 -262 1252 l 1
 -299 1225 -338 1186 -338 1132 c 0
 -338 1067 -278 1018 -211 1018 c 256
 -144 1018 -84 1067 -84 1132 c 0
 -84 1153 -91 1173 -104 1194 c 0
 -117 1215 -135 1234 -160 1252 c 1
 -110 1272 l 1
 -67 1241 -25 1196 -25 1132 c 0
 -25 1044 -119 986 -211 986 c 256
EndSplineSet
Validated: 1
Substitution2: "Single Substitution Lookup 27" u0981.salt
EndChar

StartChar: u0982
Encoding: 2434 2434 6
GlifName: u0982
Width: 539
VWidth: 1024
GlyphClass: 2
Flags: HMW
LayerCount: 2
Fore
SplineSet
181 305 m 0
 181 332 156 357 129 357 c 0
 102 357 76 332 76 305 c 0
 76 277 101 252 129 252 c 0
 156 252 181 278 181 305 c 0
1 307 m 0
 6 410 117 475 215 475 c 0
 218 475 220 475 223 475 c 0
 293 473 353 447 404 396 c 0
 470 330 511 246 511 125 c 0
 511 87 506 49 496 10 c 1
 395 -91 l 1
 417 -29 429 30 429 89 c 0
 429 196 397 275 340 332 c 0
 309 363 270 391 220 396 c 1
 245 371 259 341 259 305 c 0
 259 235 199 174 129 174 c 0
 61 174 1 229 1 299 c 0
 1 301 1 304 1 307 c 0
233 524 m 256
 161 524 103 582 103 654 c 0
 103 726 161 784 233 784 c 256
 278 784 300 771 325 746 c 0
 350 721 363 690 363 654 c 256
 363 582 305 524 233 524 c 256
233 710 m 256
 197 710 168 681 168 645 c 0
 168 609 197 580 233 580 c 256
 269 580 298 609 298 645 c 256
 298 663 290 676 279 691 c 0
 266 709 251 710 233 710 c 256
EndSplineSet
Validated: 1
EndChar

StartChar: u0983
Encoding: 2435 2435 7
GlifName: u0983
Width: 423
VWidth: 1024
GlyphClass: 2
Flags: HMW
LayerCount: 2
Fore
SplineSet
233 325 m 256
 161 325 103 383 103 455 c 0
 103 527 161 585 233 585 c 256
 278 585 300 572 325 547 c 0
 350 522 363 491 363 455 c 256
 363 383 305 325 233 325 c 256
233 520 m 256
 197 520 168 491 168 455 c 0
 168 419 197 390 233 390 c 256
 269 390 298 419 298 455 c 256
 298 491 269 520 233 520 c 256
233 0 m 256
 161 0 103 58 103 130 c 0
 103 202 161 260 233 260 c 256
 305 260 363 202 363 130 c 256
 363 58 305 0 233 0 c 256
233 195 m 256
 197 195 168 166 168 130 c 0
 168 94 197 65 233 65 c 256
 269 65 298 94 298 130 c 256
 298 166 269 195 233 195 c 256
EndSplineSet
Validated: 1
EndChar

StartChar: u09a4
Encoding: 2468 2468 8
GlifName: u09a4
Width: 790
GlyphClass: 2
Flags: HMW
LayerCount: 2
Fore
SplineSet
208 541 m 0
 208 568 192 610 163 610 c 0
 139 610 116 579 116 544 c 0
 116 507 141 479 165 479 c 0
 191 479 208 512 208 541 c 0
566 597 m 1
 535 597 492 579 492 542 c 0
 492 513 537 490 562 446 c 2
 575 423 l 1
 532 424 488 426 445 427 c 1
 428 444 l 2
 405 468 386 513 385 543 c 0
 385 632 463 704 557 704 c 0
 695 704 758 571 758 427 c 0
 758 210 607 53 388 42 c 0
 380 42 372 41 364 41 c 0
 145 41 0 200 0 420 c 0
 0 572 51 705 169 705 c 0
 243 705 306 635 306 544 c 0
 304 451 251 384 166 384 c 0
 143 384 120 394 104 394 c 0
 101 394 100 392 100 385 c 0
 100 234 235 131 360 131 c 0
 366 131 373 132 379 132 c 0
 554 145 661 255 661 428 c 0
 661 516 619 597 566 597 c 1
403 818 m 2
 480 818 538 817 581 817 c 0
 705 817 712 825 712 885 c 0
 712 908 693 945 674 961 c 2
 657 975 l 1
 677 998 l 2
 689 1012 701 1022 705 1023 c 0
 749 1023 790 929 790 882 c 0
 790 843 775 808 745 780 c 0
 705 741 710 742 413 740 c 2
 -1 740 l 1
 -1 741 l 1
 -4 741 -8 741 -11 741 c 0
 -30 741 -49 741 -69 742 c 1
 -69 742 -39 756 -20 775 c 0
 -14 781 -7 794 -1 805 c 1
 -1 818 l 1
 7 818 l 2
 8 819 l 1
 8 818 l 1
 403 818 l 2
EndSplineSet
Validated: 1
EndChar

StartChar: u09ce
Encoding: 2510 2510 9
GlifName: u09ce
Width: 502
VWidth: 1024
GlyphClass: 2
Flags: HMW
LayerCount: 2
Fore
SplineSet
248 660 m 0
 152 660 65 604 65 512 c 0
 65 472 86 437 128 408 c 0
 170 379 222 365 282 365 c 0
 340 365 390 348 431 314 c 0
 472 280 492 240 492 192 c 0
 492 121 434 66 371 55 c 1
 282 55 l 1
 348 67 418 119 418 192 c 0
 418 254 348 291 282 291 c 0
 207 291 141 313 88 356 c 0
 35 399 8 451 8 512 c 0
 8 579 29 633 73 673 c 0
 117 713 176 733 250 733 c 0
 370 733 492 676 492 565 c 0
 492 527 479 495 451 468 c 0
 423 441 390 428 350 428 c 0
 288 428 229 472 229 533 c 0
 229 567 258 596 292 596 c 256
 324 596 355 575 355 544 c 0
 355 522 344 506 329 497 c 1
 333 495 339 491 345 491 c 0
 388 491 429 523 429 565 c 0
 429 636 331 660 248 660 c 0
EndSplineSet
Validated: 1
Colour: ff0000
EndChar

StartChar: zwnj
Encoding: 8204 8204 10
GlifName: zwnj
Width: 0
GlyphClass: 2
Flags: HMW
LayerCount: 2
Fore
SplineSet
-12 683 m 1
 13 683 l 1
 13 12 l 1
 -13 12 l 1
 -12 683 l 1
EndSplineSet
Validated: 1
EndChar

StartChar: zwj
Encoding: 8205 8205 11
GlifName: zwj
Width: 0
GlyphClass: 2
Flags: HMW
LayerCount: 2
Fore
SplineSet
-19 10 m 1
 -19 605 l 1
 -102 532 l 1
 -131 542 l 1
 -34 630 l 1
 -146 688 l 1
 -126 723 l 1
 0 645 l 1
 93 723 l 1
 123 698 l 1
 20 625 l 1
 127 557 l 1
 118 537 l 1
 20 601 l 1
 20 15 l 1
 -19 10 l 1
EndSplineSet
Validated: 1
EndChar

StartChar: quotedblleft
Encoding: 8220 8220 12
GlifName: quotedblleft
Width: 273
GlyphClass: 2
Flags: HMW
LayerCount: 2
Fore
SplineSet
117 491 m 256
 113 490 110 489 107 489 c 0
 103 489 99 490 95 492 c 0
 88 495 84 500 81 508 c 2
 21 643 l 2
 19 648 18 652 18 657 c 0
 18 662 20 668 22 673 c 0
 26 683 33 689 44 693 c 0
 48 695 53 696 57 696 c 0
 63 696 69 695 74 692 c 0
 84 687 90 680 94 669 c 2
 134 527 l 2
 135 524 136 520 136 517 c 0
 136 513 136 510 134 506 c 0
 131 499 125 494 117 491 c 256
230 532 m 0
 227 531 223 531 220 531 c 0
 216 531 213 531 209 533 c 0
 202 536 197 541 194 549 c 2
 135 684 l 2
 133 689 132 693 132 698 c 0
 132 703 133 709 135 714 c 0
 139 723 147 730 157 734 c 256
 162 736 166 736 171 736 c 0
 176 736 182 735 187 733 c 0
 197 729 203 721 207 710 c 2
 249 569 l 2
 250 566 250 563 250 560 c 0
 250 556 249 551 247 547 c 0
 244 540 238 535 230 532 c 0
EndSplineSet
Validated: 1
EndChar

StartChar: euro
Encoding: 8364 8364 14
GlifName: euro
Width: 501
GlyphClass: 2
Flags: HMW
LayerCount: 2
Fore
SplineSet
270 426 m 1
 493 426 l 1
 493 385 l 1
 256 385 l 1
 249 374 l 1
 244 330 l 1
 248 318 253 284 260 269 c 1
 251 312 l 1
 494 312 l 1
 494 267 l 1
 261 267 l 1
 270 248 280 248 293 225 c 0
 316 184 375 129 469 61 c 1
 464 12 l 2
 463 12 462 12 461 12 c 0
 451 12 434 20 409 37 c 0
 395 46 378 58 359 73 c 0
 267 144 236 170 194 267 c 1
 6 267 l 1
 6 313 l 1
 183 313 l 1
 176 330 l 1
 176 347 182 368 193 394 c 1
 188 386 l 1
 6 386 l 1
 6 426 l 1
 200 426 l 1
 207 440 215 454 225 470 c 0
 291 579 376 620 479 627 c 1
 493 574 l 1
 454 571 415 556 376 532 c 0
 343 511 308 487 270 426 c 1
EndSplineSet
Validated: 1
EndChar

StartChar: uni25CC
Encoding: 9676 9676 15
GlifName: uni25C_C_
Width: 845
VWidth: 1024
GlyphClass: 2
Flags: HMW
LayerCount: 2
Fore
SplineSet
376 655 m 0
 376 680 398 702 423 702 c 256
 448 702 469 680 469 655 c 256
 469 630 448 608 423 608 c 256
 398 608 376 630 376 655 c 0
376 47 m 0
 376 72 398 94 423 94 c 256
 448 94 469 72 469 47 c 256
 469 22 448 0 423 0 c 256
 398 0 376 22 376 47 c 0
72 351 m 0
 72 376 93 398 118 398 c 256
 143 398 165 376 165 351 c 256
 165 326 143 304 118 304 c 256
 93 304 72 326 72 351 c 0
680 351 m 0
 680 376 702 398 727 398 c 256
 752 398 774 376 774 351 c 256
 774 326 752 304 727 304 c 256
 702 304 680 326 680 351 c 0
113 199 m 0
 113 224 135 246 160 246 c 256
 185 246 207 224 207 199 c 256
 207 174 185 152 160 152 c 256
 135 152 113 174 113 199 c 0
640 503 m 0
 640 528 661 550 686 550 c 256
 711 550 733 528 733 503 c 256
 733 478 711 456 686 456 c 256
 661 456 640 478 640 503 c 0
528 615 m 0
 528 640 550 662 575 662 c 256
 600 662 621 640 621 615 c 256
 621 590 600 568 575 568 c 256
 550 568 528 590 528 615 c 0
224 88 m 0
 224 113 245 135 270 135 c 256
 295 135 317 113 317 88 c 0
 317 62 296 40 270 40 c 256
 244 40 224 62 224 88 c 0
113 503 m 0
 113 528 135 550 160 550 c 256
 185 550 207 528 207 503 c 256
 207 478 185 456 160 456 c 256
 135 456 113 478 113 503 c 0
640 199 m 0
 640 224 661 246 686 246 c 256
 711 246 733 224 733 199 c 256
 733 174 711 152 686 152 c 256
 661 152 640 174 640 199 c 0
224 615 m 0
 224 640 245 662 270 662 c 256
 295 662 317 640 317 615 c 256
 317 590 295 568 270 568 c 256
 245 568 224 590 224 615 c 0
528 88 m 0
 528 113 550 135 575 135 c 256
 600 135 621 113 621 88 c 0
 621 62 601 40 575 40 c 256
 549 40 528 62 528 88 c 0
EndSplineSet
Validated: 1
EndChar

StartChar: u0981.salt
Encoding: 65536 -1 16
GlifName: u0981.salt
Width: 0
GlyphClass: 2
Flags: HMW
LayerCount: 2
Fore
SplineSet
-159 780 m 0
 -159 797 -142 811 -123 811 c 0
 -100 811 -83 801 -83 779 c 0
 -83 778 -83 778 -83 778 c 2
 -83 760 -101 749 -123 749 c 0
 -143 749 -159 763 -159 780 c 0
-117 694 m 0
 -175 694 -221 720 -221 778 c 1
 -216 786 -212 790 -207 790 c 0
 -202 790 -195 787 -187 781 c 1
 -183 757 -159 729 -130 729 c 0
 -129 729 -127 729 -126 729 c 0
 -80 731 -73 750 -58 786 c 1
 -51 790 -46 792 -41 792 c 0
 -33 792 -26 787 -21 778 c 1
 -27 735 -55 707 -104 695 c 0
 -109 695 -113 694 -117 694 c 0
EndSplineSet
Validated: 1
EndChar

StartChar: u099c_u09cd_u099e.akhn
Encoding: 65537 -1 17
GlifName: u099c_u09cd_u099e.akhn
Width: 995
VWidth: 1024
GlyphClass: 3
Flags: HMW
LayerCount: 2
Fore
SplineSet
124 216 m 0
 105 213 89 199 89 177 c 0
 89 146 118 121 149 121 c 0
 152 121 156 122 159 122 c 0
 179 125 194 138 194 161 c 0
 194 192 166 217 134 217 c 0
 131 217 127 216 124 216 c 0
783 166 m 0
 823 166 857 200 857 240 c 0
 857 300 791 344 730 350 c 1
 730 212 l 1
 759 191 765 166 783 166 c 0
931 240 m 0
 931 155 866 79 783 79 c 0
 764 79 739 91 709 114 c 0
 697 124 675 130 664 136 c 1
 664 246 l 1
 664 313 l 1
 653 283 653 280 635 249 c 0
 568 133 486 57 388 21 c 0
 348 6 309 -1 270 -1 c 0
 212 -1 155 15 98 48 c 0
 58 71 30 103 14 141 c 0
 6 159 3 176 3 193 c 0
 3 256 52 296 100 309 c 0
 112 312 124 314 136 314 c 0
 159 314 182 308 204 295 c 0
 246 271 271 238 282 194 c 0
 285 182 287 170 287 159 c 0
 287 130 276 106 255 85 c 1
 264 84 272 83 281 83 c 0
 322 83 366 99 411 130 c 0
 466 168 515 223 556 295 c 0
 590 354 609 409 615 462 c 0
 616 472 617 481 617 490 c 0
 617 527 606 552 584 564 c 0
 579 567 573 569 566 569 c 0
 556 569 545 566 532 560 c 0
 510 550 490 533 470 510 c 0
 428 460 381 425 330 407 c 0
 306 399 284 394 263 394 c 0
 176 394 127 462 127 547 c 0
 127 585 138 622 159 659 c 0
 177 690 198 714 221 738 c 1
 1 738 l 1
 1 765 1 791 1 818 c 1
 341 818 l 2
 624 818 877 818 895 852 c 0
 900 861 904 875 904 884 c 0
 904 907 885 944 866 960 c 2
 849 974 l 1
 869 998 l 2
 880 1011 893 1022 897 1022 c 0
 901 1022 918 1009 935 992 c 0
 959 968 968 954 975 928 c 0
 979 912 982 897 982 882 c 0
 982 843 967 807 937 779 c 0
 898 741 648 741 378 739 c 1
 361 734 344 728 331 719 c 0
 294 692 263 658 238 614 c 0
 225 590 217 567 217 544 c 0
 217 507 235 483 271 483 c 0
 283 483 297 487 312 493 c 0
 340 505 367 526 391 555 c 0
 428 599 469 630 514 646 c 0
 535 653 555 657 573 657 c 0
 594 657 613 652 630 642 c 0
 633 640 637 639 640 639 c 0
 664 639 692 680 692 680 c 1
 718 695 746 703 776 703 c 0
 863 703 931 625 931 537 c 0
 931 461 879 409 821 388 c 1
 879 367 931 314 931 240 c 0
857 537 m 0
 857 582 821 622 776 622 c 0
 759 622 742 617 725 608 c 0
 724 608 724 607 723 607 c 1
 727 592 729 576 729 560 c 2
 729 426 l 1
 790 432 857 476 857 537 c 0
EndSplineSet
Validated: 1
LCarets2: 2 0 0
Ligature2: "'akhn' Akhand in Bengali lookup 2 subtable" u099c u09cd u099e
EndChar

StartChar: u09b9_u09cd_u09ae.cjct
Encoding: 65539 -1 19
GlifName: u09b9_u09cd_u09ae.cjct
Width: 783
GlyphClass: 3
Flags: HMW
AnchorPoint: "Anchor-0" 373 681 basechar 0
AnchorPoint: "Anchor-1" 505 85 basechar 0
LayerCount: 2
Fore
SplineSet
466 170 m 1
 466 431 l 1
 452 428 430 427 407 427 c 0
 379 427 348 429 324 431 c 1
 336 404 342 378 342 353 c 0
 342 336 339 320 334 305 c 1
 466 170 l 1
268 501 m 1
 319 488 364 482 404 482 c 0
 426 482 447 484 466 488 c 1
 466 610 l 1
 156 610 l 1
 173 583 181 560 181 541 c 0
 181 539 181 537 181 535 c 0
 181 533 180 532 180 530 c 1
 215 527 245 517 268 501 c 1
66 372 m 1
 50 372 30 390 30 409 c 0
 30 413 31 416 33 419 c 0
 71 435 123 495 123 546 c 0
 123 589 92 610 30 610 c 2
 -6 610 l 1
 -6 673 l 1
 790 673 l 1
 790 610 l 1
 528 610 l 1
 528 502 l 1
 566 513 596 519 618 519 c 0
 636 519 650 516 660 509 c 0
 694 481 715 427 715 346 c 0
 715 342 715 339 715 335 c 2
 715 240 l 1
 715 157 729 101 760 71 c 0
 762 67 763 63 763 59 c 0
 763 44 746 32 726 32 c 0
 724 32 721 32 719 32 c 1
 688 59 667 108 662 179 c 0
 658 238 658 297 656 358 c 0
 654 419 645 454 626 462 c 0
 623 463 619 464 613 464 c 0
 611 464 583 458 528 445 c 1
 528 97 l 1
 466 84 l 1
 308 251 l 1
 279 221 243 198 200 181 c 1
 182 186 174 197 174 213 c 0
 174 219 175 224 178 230 c 1
 249 252 284 294 284 355 c 0
 284 419 235 472 170 472 c 0
 169 472 167 472 166 472 c 0
 165 472 163 471 162 471 c 0
 147 438 115 405 66 372 c 1
EndSplineSet
Validated: 1
LCarets2: 2 0 0
Substitution2: "'salt' Stylistic Alternatives in Bengali2 lookup 17-1" u09b9_u09cd_u09ae.salt
Ligature2: "'cjct' Conjunct Forms in Bengali2 lookup 13" u09b9 u09cd u09ae
EndChar

StartChar: u09a4_u09cd_u09a4.cjct
Encoding: 65540 -1 20
GlifName: u09a4_u09cd_u09a4.cjct
Width: 705
GlyphClass: 3
Flags: HMW
AnchorPoint: "Anchor-0" 399 675 basechar 0
AnchorPoint: "Anchor-1" 475 31 basechar 0
LayerCount: 2
Fore
SplineSet
267 419 m 0
 267 503 332 576 415 576 c 0
 460 576 499 561 532 531 c 1
 546 515 l 1
 570 486 583 453 583 417 c 0
 583 382 571 350 548 321 c 1
 591 283 613 239 613 189 c 0
 613 90 523 31 419 31 c 0
 367 31 309 55 245 104 c 0
 219 125 196 146 176 168 c 0
 117 235 19 383 19 528 c 0
 19 546 25 557 43 557 c 0
 56 557 66 550 74 536 c 1
 116 388 l 1
 133 336 157 290 187 249 c 0
 265 144 346 91 430 91 c 0
 505 91 553 124 553 190 c 0
 553 227 539 258 507 276 c 0
 486 287 474 297 474 310 c 0
 474 321 480 336 496 351 c 0
 514 369 525 389 525 414 c 0
 525 471 475 519 416 519 c 0
 413 519 410 519 407 519 c 0
 400 519 392 519 386 515 c 0
 345 496 326 464 326 425 c 0
 326 407 331 386 339 362 c 0
 339 360 339 358 339 356 c 0
 339 338 330 330 311 330 c 0
 301 330 293 334 287 342 c 0
 274 366 267 392 267 419 c 0
-12 673 m 1
 704 673 l 1
 704 610 l 1
 -12 610 l 1
 -12 673 l 1
EndSplineSet
Validated: 1
LCarets2: 2 0 0
Ligature2: "'cjct' Conjunct Forms in Bengali2 lookup 13" u09a4 u09cd u09a4
EndChar

StartChar: u09b0_u09cd.rphf
Encoding: 65578 -1 58
GlifName: u09b0_u09cd.rphf
Width: 0
VWidth: 1024
GlyphClass: 3
Flags: HMW
AnchorPoint: "Anchor-0" -272 812 mark 0
LayerCount: 2
Fore
SplineSet
-242 890 m 256
 -242 859 -228 834 -205 817 c 1
 -316 817 l 1
 -327 841 -333 864 -333 890 c 0
 -333 937 -316 977 -280 1010 c 0
 -244 1043 -201 1059 -151 1059 c 2
 -9 1059 l 1
 -9 981 l 1
 -151 981 l 2
 -201 981 -242 940 -242 890 c 256
EndSplineSet
Validated: 1
LCarets2: 1 0
Ligature2: "'rphf' Reph Form in Bengali lookup 3 subtable" u09f0 u09cd
Ligature2: "'rphf' Reph Form in Bengali lookup 3 subtable" u09b0 u09cd
EndChar

StartChar: u09af_u09cd.pstf
Encoding: 65579 -1 59
GlifName: u09af_u09cd.pstf
Width: 472
VWidth: 1024
GlyphClass: 3
Flags: HMW
LayerCount: 2
Fore
SplineSet
240 151 m 1
 259 178 302 238 302 278 c 0
 302 293 295 306 279 313 c 0
 221 336 194 478 194 567 c 0
 194 605 198 633 208 639 c 0
 224 649 247 665 265 681 c 0
 287 702 330 730 330 741 c 1
 298 741 -35 741 -35 741 c 1
 -80 741 l 1
 -80 768 0 792 0 819 c 1
 90 819 189 819 279 819 c 2
 335 819 l 2
 374 819 384 835 391 851 c 0
 395 860 399 875 399 884 c 0
 399 907 380 944 361 960 c 2
 344 974 l 1
 364 997 l 2
 375 1010 388 1022 392 1022 c 0
 396 1022 413 1009 430 992 c 0
 454 968 463 954 470 928 c 0
 474 912 477 897 477 882 c 0
 477 852 477 843 459 819 c 1
 421 741 l 1
 416 734 l 1
 416 734 401 722 392 713 c 0
 366 688 362 674 326 648 c 0
 322 645 318 642 314 640 c 0
 300 631 293 603 293 566 c 0
 293 544 296 520 300 494 c 0
 311 424 337 349 370 313 c 0
 385 297 391 279 391 259 c 0
 391 200 334 130 298 83 c 0
 250 20 191 -12 123 -12 c 0
 41 -12 -20 67 -20 151 c 0
 -20 232 32 313 110 313 c 0
 188 313 240 232 240 151 c 1
110 86 m 0
 142 86 162 118 162 151 c 0
 162 184 142 216 110 216 c 0
 78 216 58 184 58 151 c 0
 58 118 78 86 110 86 c 0
EndSplineSet
Validated: 1
LCarets2: 1 0
Ligature2: "'pstf' Post Base Forms in Bengali lookup 6 subtable" u09cd u09af
EndChar

StartChar: u09b0_u09cd.blwf
Encoding: 65580 -1 60
GlifName: u09b0_u09cd.blwf
Width: 0
VWidth: 1024
GlyphClass: 3
Flags: HMW
AnchorPoint: "Anchor-1" -75 45 basechar 0
LayerCount: 2
Fore
SplineSet
-110 38 m 1
 -41 38 l 1
 -66 -38 -93 -102 -125 -153 c 0
 -157 -204 -190 -241 -226 -261 c 0
 -267 -285 -316 -297 -376 -297 c 0
 -436 -297 -500 -286 -568 -264 c 1
 -548 -203 l 1
 -494 -221 -442 -229 -393 -229 c 0
 -275 -229 -227 -188 -178 -106 c 0
 -152 -62 -131 -28 -110 38 c 1
EndSplineSet
Validated: 1
LCarets2: 1 24
Ligature2: "'blwf' Below Base Forms in Bengali2 lookup 4 subtable" u09cd u09f0
Ligature2: "'blwf' Below Base Forms in Bengali2 lookup 4 subtable" u09cd u09b0
EndChar

StartChar: u09ac_u09cd.blwf
Encoding: 65581 -1 61
GlifName: u09ac_u09cd.blwf
Width: 0
GlyphClass: 3
Flags: HMW
AnchorPoint: "Anchor-1" -80 74 mark 0
LayerCount: 2
Fore
SplineSet
-103 65 m 1
 -82 65 l 25
 -60 65 l 1
 -60 -157 l 2
 -60 -174 -54 -180 -39 -180 c 0
 -27 -180 -9 -162 -2 -162 c 0
 1 -162 20 -178 20 -180 c 0
 20 -195 -17 -213 -40 -213 c 0
 -82 -213 -92 -188 -102 -159 c 1
 -103 -159 l 0
 -105 -159 -109 -163 -115 -168 c 0
 -137 -188 -165 -196 -193 -196 c 0
 -254 -196 -318 -152 -318 -74 c 0
 -318 -2 -270 29 -203 47 c 0
 -198 48 -193 49 -188 49 c 0
 -159 49 -126 30 -115 20 c 2
 -103 9 l 1
 -103 65 l 1
-192 -157 m 0
 -151 -157 -105 -129 -104 -76 c 2
 -104 -72 l 2
 -104 -26 -143 10 -191 10 c 0
 -235 10 -279 -21 -279 -74 c 0
 -279 -128 -234 -157 -192 -157 c 0
EndSplineSet
Validated: 1
EndChar

StartChar: u0995_u09b0_u09cd.blwf.vatu
Encoding: 65582 -1 62
GlifName: u0995_u09b0_u09cd.blwf.vatu
Width: 1089
GlyphClass: 3
Flags: HMW
LayerCount: 2
Fore
SplineSet
707 78 m 0
 734 78 775 118 791 118 c 0
 797 118 839 81 839 77 c 0
 839 75 838 74 838 72 c 1
 841 72 l 1
 816 -4 789 -68 757 -119 c 0
 725 -170 692 -207 656 -227 c 0
 615 -251 566 -263 506 -263 c 0
 446 -263 382 -252 314 -230 c 1
 334 -169 l 1
 388 -187 440 -195 489 -195 c 0
 607 -195 655 -154 704 -72 c 0
 720 -44 735 -20 749 10 c 1
 733 6 718 3 704 3 c 0
 604 3 595 63 565 123 c 0
 562 123 549 117 537 105 c 0
 487 61 424 40 362 40 c 0
 226 40 78 139 78 316 c 0
 78 463 204 591 372 591 c 0
 438 591 512 548 537 526 c 2
 563 502 l 1
 563 741 l 1
 11 741 l 1
 11 741 l 1
 4 741 -4 741 -11 741 c 0
 -30 741 -49 741 -69 742 c 1
 -69 742 -39 756 -20 775 c 0
 -13 781 -6 796 0 807 c 1
 0 825 l 1
 945 825 l 2
 978 825 1005 827 1005 865 c 0
 1005 871 1002 876 1002 876 c 1
 1002 890 l 1
 995 891 l 0
 995 893 992 898 979 911 c 2
 965 925 l 1
 983 946 l 2
 993 958 1004 968 1008 968 c 0
 1047 968 1084 885 1084 842 c 0
 1084 758 1056 749 948 741 c 1
 948 741 834 742 748 742 c 0
 705 742 669 742 658 741 c 1
 658 741 655 652 654 615 c 1
 900 615 1059 556 1059 361 c 0
 1059 249 982 147 865 147 c 0
 781 147 713 203 713 280 c 0
 713 360 783 417 847 417 c 0
 890 417 924 385 924 350 c 0
 924 316 899 293 871 293 c 0
 833 293 836 323 816 343 c 1
 800 343 778 311 778 287 c 0
 778 235 817 209 865 209 c 0
 945 209 984 290 984 365 c 0
 984 450 933 501 871 531 c 2
 835 548 l 1
 651 548 l 1
 651 359 l 2
 651 263 650 202 650 164 c 0
 650 90 658 78 707 78 c 0
352 114 m 0
 444 114 547 176 550 297 c 2
 550 309 l 2
 550 412 463 490 355 490 c 0
 262 490 160 427 160 315 c 2
 160 300 l 2
 160 179 259 114 352 114 c 0
EndSplineSet
Validated: 1
LCarets2: 1 0
Substitution2: "'salt' Stylistic Alternatives in Bengali2 lookup 17-1" u0995_u09cd_u09b0.salt
Ligature2: "'vatu' Vattu Variants in Bengali lookup 7 subtable" u0995 u09b0_u09cd.blwf
EndChar

StartChar: u0996_u09b0_u09cd.blwf.vatu
Encoding: 65583 -1 63
GlifName: u0996_u09b0_u09cd.blwf.vatu
Width: 993
VWidth: 1024
GlyphClass: 3
Flags: HMW
LayerCount: 2
Fore
SplineSet
802 62 m 0
 708 62 631 139 631 233 c 2
 631 296 l 1
 585 173 470 62 311 62 c 0
 161 62 22 124 22 264 c 0
 22 355 232 516 303 541 c 1
 232 566 22 548 22 639 c 0
 22 655 27 671 27 686 c 0
 27 698 23 710 23 722 c 0
 23 795 75 865 160 865 c 0
 222 865 261 822 261 760 c 0
 261 694 210 653 156 653 c 0
 151 653 138 652 132 650 c 0
 132 646 131 643 131 639 c 0
 131 613 219 608 221 608 c 1
 221 609 484 698 495 819 c 1
 529 709 l 2
 529 700 227 376 182 363 c 0
 140 350 131 302 131 264 c 0
 131 187 218 155 303 155 c 0
 508 155 636 395 636 608 c 2
 636 872 l 1
 719 872 784 871 826 871 c 0
 861 871 880 872 880 874 c 0
 880 878 903 899 903 899 c 2
 903 903 906 902 908 907 c 0
 909 910 910 917 911 921 c 0
 913 929 913 934 913 939 c 0
 913 962 894 999 875 1015 c 2
 858 1029 l 1
 878 1052 l 2
 889 1065 895 1077 899 1077 c 0
 942 1077 991 984 991 937 c 0
 991 898 977 821 973 819 c 0
 966 816 864 803 864 803 c 2
 864 800 832 800 832 800 c 1
 832 800 758 800 727 800 c 1
 727 233 l 2
 727 190 759 155 802 155 c 0
 851 155 885 187 911 218 c 1
 974 155 l 1
 972 153 971 151 969 149 c 0
 945 76 918 14 887 -35 c 0
 855 -86 822 -123 786 -143 c 0
 745 -167 696 -179 636 -179 c 0
 576 -179 512 -168 444 -146 c 1
 464 -85 l 1
 518 -103 570 -111 619 -111 c 0
 737 -111 785 -70 834 12 c 0
 847 34 858 53 869 75 c 1
 848 67 826 62 802 62 c 0
156 791 m 0
 124 791 106 771 106 739 c 0
 106 719 121 705 145 705 c 0
 173 705 197 734 197 759 c 0
 197 780 179 791 156 791 c 0
EndSplineSet
Validated: 1
LCarets2: 1 0
Ligature2: "'vatu' Vattu Variants in Bengali lookup 7 subtable" u0996 u09b0_u09cd.blwf
EndChar

StartChar: u0997_u09b0_u09cd.blwf.vatu
Encoding: 65584 -1 64
GlifName: u0997_u09b0_u09cd.blwf.vatu
Width: 867
VWidth: 1024
GlyphClass: 3
Flags: HMW
LayerCount: 2
Fore
SplineSet
818 127 m 0
 818 84 725 42 678 42 c 0
 639 42 603 57 575 87 c 0
 574 88 l 1
 563 64 551 43 539 23 c 0
 507 -28 474 -65 438 -85 c 0
 397 -109 348 -121 288 -121 c 0
 228 -121 164 -110 96 -88 c 1
 116 -27 l 1
 170 -45 222 -53 271 -53 c 0
 389 -53 437 -12 486 70 c 0
 506 105 523 132 540 175 c 1
 535 224 535 306 534 452 c 2
 534 739 l 1
 221 739 l 2
 177 739 130 715 130 674 c 0
 130 523 494 599 494 401 c 0
 494 298 381 232 273 232 c 0
 150 232 57 314 0 395 c 1
 65 440 l 1
 110 377 179 310 273 310 c 0
 335 310 403 343 403 401 c 0
 403 456 335 487 279 492 c 0
 170 502 39 567 39 674 c 0
 39 760 131 819 221 819 c 2
 752 819 l 1
 752 823 772 839 775 845 c 0
 780 855 785 873 785 885 c 0
 785 908 766 944 747 960 c 2
 730 974 l 1
 750 998 l 2
 761 1011 774 1022 778 1022 c 0
 821 1022 863 930 863 883 c 0
 863 844 848 808 818 780 c 0
 778 741 769 741 617 740 c 1
 617 462 l 2
 617 374 615 308 615 259 c 0
 615 242 616 227 616 214 c 1
 623 214 l 1
 621 208 619 202 617 196 c 0
 621 134 636 120 680 120 c 0
 703 120 740 139 756 158 c 2
 770 175 l 1
 794 155 l 2
 807 144 818 131 818 127 c 0
EndSplineSet
Validated: 1
LCarets2: 1 0
Ligature2: "'vatu' Vattu Variants in Bengali lookup 7 subtable" u0997 u09b0_u09cd.blwf
EndChar

StartChar: u0998_u09b0_u09cd.blwf.vatu
Encoding: 65585 -1 65
GlifName: u0998_u09b0_u09cd.blwf.vatu
Width: 973
VWidth: 1024
GlyphClass: 3
Flags: HMW
LayerCount: 2
Fore
SplineSet
483 442 m 1
 370 442 123 369 123 250 c 0
 123 173 210 141 295 141 c 0
 499 141 623 382 630 593 c 1
 630 740 l 1
 206 740 l 1
 176 689 123 638 123 625 c 0
 123 534 183 509 302 509 c 0
 368 509 440 514 465 514 c 1
 483 442 l 1
766 146 m 1
 769 146 l 1
 769 145 l 0
 777 142 785 141 794 141 c 0
 842 141 877 173 903 203 c 1
 966 141 l 1
 927 94 869 47 794 47 c 0
 774 47 755 50 737 57 c 1
 721 19 704 -15 685 -45 c 0
 653 -96 620 -133 584 -153 c 0
 543 -177 494 -189 434 -189 c 0
 374 -189 310 -178 242 -156 c 1
 262 -95 l 1
 316 -113 368 -121 417 -121 c 0
 535 -121 583 -80 632 2 c 0
 650 32 665 58 680 92 c 1
 645 124 623 169 623 219 c 2
 623 281 l 1
 578 159 461 47 303 47 c 0
 154 47 14 111 14 250 c 0
 14 341 76 412 147 437 c 1
 76 462 14 534 14 625 c 0
 14 638 64 688 92 741 c 1
 10 741 l 1
 0 741 l 2
 -7 741 -14 741 -21 741 c 0
 -37 741 -53 742 -69 742 c 1
 -69 742 -39 756 -20 775 c 0
 -13 781 -6 796 0 807 c 1
 0 817 l 1
 2 817 4 817 6 817 c 0
 7 818 7 819 8 819 c 1
 8 817 l 1
 294 817 859 817 877 851 c 0
 882 860 885 875 885 884 c 0
 885 907 866 944 847 960 c 2
 830 974 l 1
 850 997 l 2
 861 1010 874 1022 878 1022 c 0
 921 1022 963 929 963 882 c 0
 963 843 947 808 918 779 c 0
 912 773 890 764 890 764 c 1
 890 764 830 750 830 747 c 0
 830 741 813 742 715 741 c 1
 715 219 l 2
 715 186 736 157 766 146 c 1
EndSplineSet
Validated: 1
LCarets2: 1 0
Ligature2: "'vatu' Vattu Variants in Bengali lookup 7 subtable" u0998 u09b0_u09cd.blwf
EndChar

StartChar: u0999_u09b0_u09cd.blwf.vatu
Encoding: 65586 -1 66
GlifName: u0999_u09b0_u09cd.blwf.vatu
Width: 789
VWidth: 1024
GlyphClass: 3
Flags: HMW
LayerCount: 2
Fore
SplineSet
390 649 m 0
 360 649 277 599 277 543 c 2
 277 527 l 2
 278 493 297 470 331 470 c 0
 382 470 422 507 451 542 c 0
 497 597 550 644 632 644 c 0
 723 644 763 563 763 468 c 0
 763 331 695 192 595 99 c 1
 572 34 548 -21 520 -66 c 0
 488 -117 455 -154 419 -174 c 0
 378 -198 329 -210 269 -210 c 0
 209 -210 145 -199 77 -177 c 1
 97 -116 l 1
 151 -134 203 -142 252 -142 c 0
 370 -142 418 -101 467 -19 c 0
 476 -3 485 12 493 27 c 1
 442 0 387 -15 331 -15 c 0
 216 -15 63 56 63 180 c 0
 63 252 127 300 197 300 c 0
 281 300 346 227 346 147 c 0
 346 118 335 93 314 72 c 1
 323 71 331 70 340 70 c 0
 511 70 677 299 677 477 c 0
 677 518 662 555 624 555 c 0
 582 555 554 525 529 496 c 0
 477 434 414 381 323 381 c 0
 236 381 187 449 187 534 c 0
 187 568 199 634 229 657 c 1
 166 679 114 728 114 817 c 0
 114 867 121 893 140 917 c 2
 152 933 l 1
 171 925 190 917 209 909 c 1
 196 892 l 2
 180 870 172 844 172 819 c 0
 172 762 225 719 282 719 c 0
 285 719 287 720 287 722 c 0
 287 725 282 729 274 737 c 0
 250 760 238 784 238 812 c 0
 238 875 292 927 346 927 c 0
 390 927 451 882 451 821 c 0
 451 760 397 679 395 679 c 0
 390 679 389 675 389 670 c 0
 389 664 391 655 391 651 c 0
 391 649 391 649 390 649 c 0
183 214 m 0
 163 211 148 197 148 174 c 0
 148 142 179 118 210 118 c 0
 213 118 215 119 218 119 c 0
 238 122 253 136 253 159 c 0
 253 190 225 215 193 215 c 0
 190 215 186 214 183 214 c 0
355 756 m 0
 376 756 395 782 395 808 c 0
 395 827 367 854 349 854 c 0
 327 854 313 829 313 805 c 0
 313 780 332 756 355 756 c 0
EndSplineSet
Validated: 1
LCarets2: 1 0
Ligature2: "'vatu' Vattu Variants in Bengali lookup 7 subtable" u0999 u09b0_u09cd.blwf
EndChar

StartChar: u099a_u09b0_u09cd.blwf.vatu
Encoding: 65587 -1 67
GlifName: u099a_u09b0_u09cd.blwf.vatu
Width: 888
GlyphClass: 3
Flags: HMW
LayerCount: 2
Fore
SplineSet
150 46 m 0
 91 46 0 89 0 128 c 0
 0 132 47 174 54 174 c 0
 72 174 117 129 146 129 c 0
 200 129 207 142 207 219 c 2
 207 735 l 1
 -60 735 l 1
 -60 763 2 791 2 819 c 1
 25 819 l 2
 172 819 498 811 498 811 c 1
 554 811 600 811 638 811 c 0
 797 811 807 817 807 882 c 0
 807 905 788 941 769 957 c 2
 752 971 l 1
 773 995 l 2
 784 1008 797 1019 801 1019 c 0
 844 1019 885 928 885 881 c 0
 885 809 836 737 752 737 c 2
 304 737 l 1
 304 579 l 1
 336 604 l 2
 364 629 446 677 519 677 c 0
 707 677 844 534 844 371 c 0
 844 249 783 162 701 112 c 1
 677 39 650 -23 619 -72 c 0
 587 -123 554 -160 518 -180 c 0
 477 -204 428 -216 368 -216 c 0
 308 -216 244 -205 176 -183 c 1
 196 -122 l 1
 250 -140 302 -148 351 -148 c 0
 469 -148 517 -107 566 -25 c 0
 586 9 603 36 619 77 c 1
 590 69 560 65 531 65 c 0
 462 65 392 88 336 137 c 0
 322 149 310 158 306 158 c 0
 305 158 305 157 305 157 c 1
 281 86 254 46 150 46 c 0
310 372 m 2
 313 238 429 171 531 171 c 0
 636 171 748 243 748 379 c 0
 748 512 638 588 527 588 c 0
 407 588 310 500 310 384 c 2
 310 372 l 2
EndSplineSet
Validated: 1
LCarets2: 1 0
Ligature2: "'vatu' Vattu Variants in Bengali lookup 7 subtable" u099a u09b0_u09cd.blwf
EndChar

StartChar: u099b_u09b0_u09cd.blwf.vatu
Encoding: 65588 -1 68
GlifName: u099b_u09b0_u09cd.blwf.vatu
Width: 905
GlyphClass: 3
Flags: HMW
LayerCount: 2
Fore
SplineSet
108 232 m 0
 66 232 3 262 3 289 c 0
 3 291 35 321 40 321 c 0
 53 321 85 290 106 290 c 0
 143 290 147 316 147 370 c 0
 147 386 147 404 147 424 c 0
 147 512 142 632 142 741 c 1
 11 741 l 1
 11 741 l 1
 4 741 -4 741 -11 741 c 0
 -30 741 -49 741 -69 742 c 1
 -69 742 -39 756 -20 775 c 0
 -13 781 -6 796 0 807 c 1
 0 819 l 1
 23 819 l 2
 170 819 424 811 424 811 c 1
 495 811 554 810 604 810 c 0
 766 810 826 818 826 882 c 0
 826 905 807 941 788 957 c 2
 771 971 l 1
 792 995 l 2
 803 1008 816 1019 820 1019 c 0
 863 1019 904 928 904 881 c 0
 904 808 857 741 771 741 c 2
 210 741 l 1
 210 621 l 1
 238 638 l 2
 258 655 316 689 367 689 c 0
 495 689 595 588 595 477 c 2
 595 468 l 1
 620 473 649 478 671 478 c 0
 767 478 873 429 873 340 c 0
 873 246 778 260 729 211 c 0
 716 198 711 188 711 179 c 0
 711 136 755 108 805 95 c 1
 868 95 l 1
 867 92 866 90 865 87 c 1
 866 87 866 87 867 87 c 1
 867 -3 l 1
 856 -3 844 -2 832 -1 c 1
 817 -36 801 -68 784 -96 c 0
 752 -147 719 -184 683 -204 c 0
 642 -228 593 -240 533 -240 c 0
 473 -240 409 -229 341 -207 c 1
 361 -146 l 1
 415 -164 467 -172 516 -172 c 0
 634 -172 682 -131 731 -49 c 0
 744 -27 756 -8 767 14 c 1
 693 40 633 96 633 171 c 0
 633 235 673 244 717 270 c 0
 741 285 775 309 775 340 c 0
 775 378 715 392 671 392 c 0
 647 392 610 380 589 380 c 0
 583 378 585 378 569 368 c 1
 569 369 l 1
 528 300 451 260 375 260 c 0
 327 260 278 276 239 311 c 0
 229 320 221 325 218 325 c 2
 218 325 180 254 163 244 c 0
 145 233 138 232 108 232 c 0
218 476 m 2
 221 382 300 334 372 334 c 0
 445 334 524 386 524 480 c 0
 524 573 448 626 370 626 c 0
 285 626 218 565 218 483 c 2
 218 476 l 2
EndSplineSet
Validated: 1
LCarets2: 1 0
Ligature2: "'vatu' Vattu Variants in Bengali lookup 7 subtable" u099b u09b0_u09cd.blwf
EndChar

StartChar: u099c_u09b0_u09cd.blwf.vatu
Encoding: 65589 -1 69
GlifName: u099c_u09b0_u09cd.blwf.vatu
Width: 1207
VWidth: 1024
GlyphClass: 3
Flags: HMW
LayerCount: 2
Fore
SplineSet
1052 139 m 1
 1096 150 1104 211 1104 274 c 0
 1104 310 1101 346 1101 373 c 0
 1101 468 1045 526 975 559 c 2
 935 578 l 1
 762 578 l 1
 773 553 777 524 777 488 c 0
 777 247 570 6 343 6 c 0
 230 6 76 76 76 198 c 0
 76 271 139 321 209 321 c 0
 293 321 360 248 360 168 c 0
 360 139 349 113 328 92 c 1
 337 91 345 90 354 90 c 0
 525 90 691 320 691 497 c 0
 691 538 676 576 639 576 c 0
 598 576 567 545 543 517 c 0
 491 456 428 401 337 401 c 0
 250 401 201 469 201 555 c 0
 201 633 250 698 293 741 c 1
 11 741 l 1
 11 741 l 1
 4 741 -4 741 -11 741 c 0
 -30 741 -49 741 -69 742 c 1
 -69 742 -39 756 -20 775 c 0
 -15 780 -10 789 -5 798 c 1
 -5 821 l 1
 802 821 l 2
 876 821 933 820 976 820 c 0
 1103 820 1111 828 1111 887 c 0
 1111 910 1092 947 1073 963 c 2
 1056 977 l 1
 1076 1001 l 2
 1087 1014 1100 1025 1104 1025 c 0
 1147 1025 1189 932 1189 885 c 0
 1189 846 1174 810 1144 782 c 0
 1104 743 1108 743 811 742 c 2
 433 742 l 1
 375 716 291 635 291 552 c 0
 291 515 308 490 344 490 c 0
 395 490 435 527 464 562 c 0
 509 616 566 665 645 665 c 0
 669 665 691 657 707 647 c 1
 743 647 l 1
 780 653 809 661 834 661 c 0
 1038 661 1183 531 1183 370 c 0
 1183 244 1142 91 1118 91 c 1
 1076 57 l 1
 1051 -19 978 -3 946 -54 c 0
 914 -105 881 -142 845 -162 c 0
 804 -186 755 -198 695 -198 c 0
 635 -198 191 -160 123 -138 c 1
 143 -77 l 1
 197 -95 629 -130 678 -130 c 0
 796 -130 844 -89 893 -7 c 0
 919 37 980 25 1001 91 c 1
 1052 139 l 1
EndSplineSet
Validated: 1
LCarets2: 1 0
Ligature2: "'vatu' Vattu Variants in Bengali lookup 7 subtable" u099c u09b0_u09cd.blwf
EndChar

StartChar: u099d_u09b0_u09cd.blwf.vatu
Encoding: 65590 -1 70
GlifName: u099d_u09b0_u09cd.blwf.vatu
Width: 1143
GlyphClass: 3
Flags: HMW
LayerCount: 2
Fore
SplineSet
732 124 m 0
 761 124 807 169 825 169 c 0
 831 169 871 134 878 125 c 1
 883 125 l 1
 858 49 831 -15 799 -66 c 0
 767 -117 734 -154 698 -174 c 0
 657 -198 608 -210 548 -210 c 0
 488 -210 424 -199 356 -177 c 1
 376 -116 l 1
 430 -134 482 -142 531 -142 c 0
 649 -142 697 -101 746 -19 c 0
 760 5 773 26 785 51 c 1
 765 45 746 41 729 41 c 0
 625 41 598 104 574 175 c 1
 574 175 574 176 573 176 c 0
 569 176 556 166 542 154 c 0
 486 105 417 82 348 82 c 0
 196 82 34 193 34 388 c 0
 34 567 155 645 323 690 c 0
 335 693 347 695 360 695 c 0
 433 695 515 647 543 622 c 2
 573 596 l 1
 573 742 l 1
 11 742 l 1
 11 741 l 1
 4 741 -4 741 -11 741 c 0
 -30 741 -49 741 -69 742 c 1
 -69 742 -39 756 -20 775 c 0
 -12 782 -4 801 3 812 c 1
 3 817 l 1
 6 817 l 2
 7 817 6 817 7 817 c 0
 146 817 286 817 425 817 c 0
 510 817 634 808 745 808 c 0
 884 808 1003 822 1003 884 c 0
 1003 907 984 944 965 960 c 2
 948 974 l 1
 968 997 l 2
 978 1008 989 1009 995 1009 c 0
 1049 1009 1081 934 1081 882 c 0
 1081 828 1048 776 1001 756 c 1
 1077 705 1130 703 1130 597 c 0
 1130 441 1049 224 895 224 c 0
 805 224 687 365 658 435 c 1
 658 364 657 308 657 266 c 0
 657 134 665 124 732 124 c 0
1039 597 m 0
 1039 705 964 722 859 722 c 1
 859 741 l 1
 659 741 l 1
 659 564 l 1
 686 474 796 302 895 302 c 0
 1001 302 1039 487 1039 597 c 0
349 181 m 0
 451 181 567 249 570 382 c 2
 570 394 l 2
 570 510 473 598 353 598 c 0
 242 598 132 521 132 389 c 0
 132 253 244 181 349 181 c 0
EndSplineSet
Validated: 1
LCarets2: 1 0
Ligature2: "'vatu' Vattu Variants in Bengali lookup 7 subtable" u099d u09b0_u09cd.blwf
EndChar

StartChar: u099e_u09b0_u09cd.blwf.vatu
Encoding: 65591 -1 71
GlifName: u099e_u09b0_u09cd.blwf.vatu
Width: 961
VWidth: 1024
GlyphClass: 3
Flags: HMW
LayerCount: 2
Fore
SplineSet
782 248 m 0
 822 248 856 282 856 322 c 0
 856 382 790 426 729 432 c 1
 729 294 l 1
 712 279 l 1
 741 258 764 248 782 248 c 0
856 619 m 0
 856 664 820 704 775 704 c 0
 758 704 745 699 728 690 c 1
 728 508 l 1
 789 514 856 558 856 619 c 0
682 759 m 1
 713 759 741 785 775 785 c 0
 862 785 930 707 930 619 c 0
 930 543 878 491 820 470 c 1
 878 449 930 396 930 322 c 0
 930 237 865 161 782 161 c 0
 774 161 765 164 755 169 c 1
 734 110 711 60 685 18 c 0
 653 -33 620 -70 584 -90 c 0
 543 -114 494 -126 434 -126 c 0
 374 -126 310 -115 242 -93 c 1
 262 -32 l 1
 316 -50 368 -58 417 -58 c 0
 535 -58 583 -17 632 65 c 0
 657 108 678 141 698 203 c 1
 689 209 681 214 674 218 c 1
 674 218 672 233 672 245 c 1
 650 226 l 1
 590 131 461 44 322 44 c 0
 183 44 62 154 62 292 c 0
 62 367 118 434 192 434 c 0
 264 434 322 376 322 304 c 0
 322 232 264 174 192 174 c 1
 221 149 269 136 322 136 c 0
 475 136 592 261 650 376 c 1
 650 642 l 2
 650 688 617 733 572 733 c 0
 536 733 507 704 507 668 c 0
 507 654 510 638 520 636 c 1
 524 658 546 675 572 675 c 0
 603 675 624 647 624 616 c 0
 624 578 585 551 546 551 c 0
 483 551 429 606 429 668 c 0
 429 746 494 811 572 811 c 0
 615 811 652 795 682 762 c 1
 682 759 l 1
140 306 m 0
 140 276 163 254 192 254 c 0
 219 254 244 279 244 306 c 0
 244 335 221 358 192 358 c 0
 161 358 140 337 140 306 c 0
EndSplineSet
Validated: 1
LCarets2: 1 0
Ligature2: "'vatu' Vattu Variants in Bengali lookup 7 subtable" u099e u09b0_u09cd.blwf
EndChar

StartChar: u099f_u09b0_u09cd.blwf.vatu
Encoding: 65592 -1 72
GlifName: u099f_u09b0_u09cd.blwf.vatu
Width: 897
GlyphClass: 3
Flags: HMW
LayerCount: 2
Fore
SplineSet
548 680 m 2
 675 680 l 2
 714 680 848 509 848 381 c 0
 848 272 798 190 728 138 c 1
 703 64 677 2 646 -48 c 0
 614 -99 581 -136 545 -156 c 0
 504 -180 455 -192 395 -192 c 0
 335 -192 271 -181 203 -159 c 1
 223 -98 l 1
 277 -116 329 -124 378 -124 c 0
 496 -124 544 -83 593 -1 c 0
 611 30 628 57 643 93 c 1
 608 81 570 74 534 74 c 0
 465 74 396 97 340 146 c 0
 326 159 313 168 309 168 c 1
 309 167 l 1
 285 96 257 34 153 34 c 0
 94 34 3 78 3 115 c 0
 3 119 50 161 57 161 c 0
 75 161 121 117 150 117 c 0
 203 117 209 130 209 206 c 2
 209 733 l 1
 -12 733 l 1
 -12 741 l 1
 -31 741 -50 741 -69 742 c 1
 -69 742 -39 756 -20 775 c 0
 -17 777 -15 782 -12 786 c 2
 -12 820 l 1
 -12 820 233 815 367 812 c 1
 367 818 495 901 528 915 c 0
 559 928 591 975 591 1018 c 0
 591 1021 591 1023 589 1023 c 0
 586 1023 581 1018 573 1009 c 0
 551 985 527 974 499 974 c 0
 436 974 384 1027 384 1082 c 0
 384 1137 440 1191 510 1191 c 0
 589 1191 660 1127 660 1025 c 0
 660 939 621 892 563 862 c 0
 555 858 516 822 511 810 c 1
 567 810 l 1
 815 829 784 816 801 849 c 0
 806 858 810 872 810 881 c 0
 810 904 791 941 772 957 c 2
 755 971 l 1
 775 995 l 2
 786 1008 799 1019 803 1019 c 0
 846 1019 888 927 888 880 c 0
 888 809 839 736 755 736 c 2
 307 736 l 1
 307 382 l 2
 310 253 434 180 534 180 c 0
 668 180 775 295 775 452 c 0
 775 540 683 605 674 611 c 1
 656 611 l 2
 649 612 649 614 642 614 c 0
 616 614 576 605 576 605 c 2
 495 593 431 577 431 481 c 0
 431 458 446 408 452 408 c 0
 455 408 459 416 462 432 c 0
 475 488 513 532 583 532 c 0
 649 532 716 489 716 414 c 0
 716 325 634 258 551 258 c 0
 445 258 355 350 349 456 c 0
 349 460 348 465 348 470 c 0
 348 577 439 680 548 680 c 2
620 399 m 0
 620 425 603 437 580 437 c 0
 547 437 512 414 512 375 c 0
 512 350 529 333 557 333 c 0
 597 333 620 357 620 399 c 0
543 1073 m 0
 543 1094 516 1113 491 1113 c 0
 472 1113 444 1085 444 1067 c 0
 444 1045 469 1031 494 1031 c 0
 519 1031 543 1050 543 1073 c 0
EndSplineSet
Validated: 1
LCarets2: 1 0
Ligature2: "'vatu' Vattu Variants in Bengali lookup 7 subtable" u099f u09b0_u09cd.blwf
EndChar

StartChar: u09a0_u09b0_u09cd.blwf.vatu
Encoding: 65593 -1 73
GlifName: u09a0_u09b0_u09cd.blwf.vatu
Width: 539
VWidth: 1024
GlyphClass: 3
Flags: HMW
LayerCount: 2
Fore
SplineSet
281 1092 m 0
 262 1092 249 1078 249 1059 c 0
 249 1041 263 1027 281 1027 c 0
 300 1027 314 1040 314 1059 c 0
 314 1078 300 1092 281 1092 c 0
422 562 m 1
 404 496 363 421 290 421 c 2
 214 421 l 2
 172 421 148 366 148 320 c 0
 148 247 200 178 271 178 c 0
 379 178 432 340 432 461 c 0
 432 497 427 529 422 562 c 1
281 42 m 0
 160 42 91 194 91 325 c 0
 91 422 136 547 224 547 c 2
 300 547 l 2
 380 547 369 652 394 689 c 1
 388 689 380 706 362 729 c 0
 353 741 259 744 169 744 c 0
 102 744 36 742 11 741 c 0
 4 741 -4 741 -11 741 c 0
 -30 741 -49 741 -69 742 c 1
 -69 742 -39 756 -20 775 c 0
 -13 781 -6 796 0 807 c 1
 0 819 l 1
 185 819 l 1
 158 861 117 901 117 964 c 2
 117 978 l 2
 117 1066 185 1142 272 1142 c 0
 320 1142 362 1107 362 1060 c 0
 362 1015 326 978 281 978 c 0
 236 978 199 1015 199 1060 c 1
 183 1040 174 1014 174 978 c 0
 174 936 188 897 218 858 c 0
 233 838 262 837 296 819 c 1
 441 819 l 2
 463 819 481 879 481 909 c 0
 481 910 481 911 481 912 c 0
 480 930 482 925 462 956 c 1
 500 1023 l 1
 532 975 537 987 537 912 c 0
 537 849 492 741 446 741 c 1
 487 699 508 575 508 466 c 0
 508 340 472 177 394 95 c 1
 397 95 l 1
 373 19 347 -45 317 -96 c 0
 287 -147 256 -184 222 -204 c 0
 183 -228 137 -240 80 -240 c 0
 23 -240 56 -229 -8 -207 c 1
 11 -146 l 1
 64 -172 l 1
 64 -172 221 -131 267 -49 c 0
 285 -17 300 9 315 46 c 1
 304 43 293 42 281 42 c 0
EndSplineSet
Validated: 1
LCarets2: 1 0
Ligature2: "'vatu' Vattu Variants in Bengali lookup 7 subtable" u09a0 u09b0_u09cd.blwf
EndChar

StartChar: u09a1_u09b0_u09cd.blwf.vatu
Encoding: 65594 -1 74
GlifName: u09a1_u09b0_u09cd.blwf.vatu
Width: 728
VWidth: 1024
GlyphClass: 3
Flags: HMW
LayerCount: 2
Fore
SplineSet
643 1022 m 0
 686 1022 728 929 728 882 c 0
 728 843 713 807 683 779 c 0
 644 741 646 757 378 739 c 0
 303 734 217 591 217 513 c 0
 217 481 235 461 271 461 c 0
 322 461 362 493 391 523 c 0
 437 570 492 610 573 610 c 0
 663 610 702 542 703 463 c 2
 703 459 l 2
 703 357 653 256 576 179 c 1
 577 179 l 1
 552 103 525 39 493 -12 c 0
 461 -63 428 -100 392 -120 c 0
 351 -144 302 -156 242 -156 c 0
 182 -156 118 -145 50 -123 c 1
 70 -62 l 1
 124 -80 176 -88 225 -88 c 0
 343 -88 391 -47 440 35 c 0
 454 59 467 79 479 104 c 1
 416 67 344 46 270 46 c 0
 155 46 3 106 3 212 c 0
 3 274 67 316 136 316 c 0
 221 316 287 252 287 183 c 0
 287 158 276 138 255 120 c 1
 264 119 272 118 281 118 c 0
 452 118 617 315 617 467 c 0
 617 501 602 535 566 535 c 0
 525 535 494 508 470 484 c 0
 418 431 355 385 263 385 c 0
 176 385 127 443 127 516 c 0
 127 584 179 694 221 738 c 1
 1 738 l 1
 1 741 l 1
 -3 741 -7 741 -11 741 c 0
 -30 741 -49 741 -69 742 c 1
 -69 742 -39 756 -20 775 c 0
 -13 782 -6 798 1 809 c 1
 1 818 l 1
 7 818 l 2
 8 819 l 1
 8 818 l 1
 341 818 l 2
 415 818 472 817 515 817 c 0
 642 817 650 825 650 884 c 0
 650 907 631 944 612 960 c 2
 595 974 l 1
 615 998 l 2
 626 1011 639 1022 643 1022 c 0
124 232 m 0
 105 229 89 218 89 199 c 0
 89 172 118 151 149 151 c 0
 152 151 156 151 159 151 c 0
 179 154 194 165 194 185 c 0
 194 212 166 233 134 233 c 0
 131 233 127 232 124 232 c 0
EndSplineSet
Validated: 1
LCarets2: 1 0
Ligature2: "'vatu' Vattu Variants in Bengali lookup 7 subtable" u09a1 u09b0_u09cd.blwf
EndChar

StartChar: u09a2_u09b0_u09cd.blwf.vatu
Encoding: 65595 -1 75
GlifName: u09a2_u09b0_u09cd.blwf.vatu
Width: 906
GlyphClass: 3
Flags: HMW
LayerCount: 2
Fore
SplineSet
344 493 m 2
 344 601 435 703 544 703 c 0
 551 703 663 697 670 696 c 0
 711 696 844 533 844 404 c 0
 844 284 784 196 702 146 c 1
 677 71 651 8 619 -42 c 0
 587 -93 554 -130 518 -150 c 0
 477 -174 428 -186 368 -186 c 0
 308 -186 244 -175 176 -153 c 1
 196 -92 l 1
 250 -110 302 -118 351 -118 c 0
 469 -118 517 -77 566 5 c 0
 586 39 603 68 620 110 c 1
 590 101 559 97 529 97 c 0
 460 97 391 120 335 169 c 0
 321 181 308 191 305 191 c 1
 305 190 l 1
 281 119 253 56 149 56 c 0
 89 56 -1 99 -1 138 c 0
 -1 142 46 184 53 184 c 0
 71 184 116 139 145 139 c 0
 199 139 208 149 208 230 c 2
 208 741 l 1
 11 741 l 1
 11 741 l 1
 4 741 -4 741 -11 741 c 0
 -30 741 -49 741 -69 742 c 1
 -69 742 -39 756 -20 775 c 0
 -15 780 -9 790 -4 800 c 1
 -4 819 l 1
 496 819 l 2
 552 819 598 819 636 819 c 0
 795 819 805 825 805 890 c 0
 805 913 786 949 767 965 c 2
 750 980 l 1
 771 1003 l 2
 782 1016 794 1028 798 1028 c 0
 840 1028 883 936 883 889 c 0
 883 814 836 749 750 749 c 2
 304 749 l 1
 304 405 l 2
 307 275 429 203 530 203 c 0
 663 203 771 318 771 474 c 0
 771 563 679 626 670 633 c 1
 652 633 l 2
 645 634 645 635 638 636 c 0
 612 636 571 627 571 627 c 2
 491 616 426 599 426 505 c 0
 426 482 441 430 448 430 c 0
 451 430 453 439 457 454 c 0
 470 510 509 554 579 554 c 0
 645 554 711 511 711 437 c 0
 711 347 631 280 547 280 c 0
 441 280 350 372 344 479 c 1
 344 493 l 2
568 341 m 0
 609 345 632 363 632 407 c 0
 632 433 614 444 592 444 c 0
 561 444 524 422 524 383 c 0
 524 358 541 341 568 341 c 0
EndSplineSet
Validated: 1
LCarets2: 1 0
Ligature2: "'vatu' Vattu Variants in Bengali lookup 7 subtable" u09a2 u09b0_u09cd.blwf
EndChar

StartChar: u09a3_u09b0_u09cd.blwf.vatu
Encoding: 65596 -1 76
GlifName: u09a3_u09b0_u09cd.blwf.vatu
Width: 704
GlyphClass: 3
Flags: HMW
LayerCount: 2
Fore
SplineSet
277 516 m 2
 255 494 257 461 216 461 c 0
 184 461 156 487 156 525 c 0
 156 564 195 598 242 598 c 0
 313 598 391 534 391 447 c 0
 391 361 314 299 222 299 c 0
 91 299 7 411 7 536 c 0
 7 686 131 812 321 817 c 0
 350 818 391 819 448 819 c 2
 465 819 l 2
 557 822 626 830 626 884 c 0
 626 907 607 944 588 960 c 2
 571 974 l 1
 591 997 l 2
 602 1010 615 1022 619 1022 c 0
 662 1022 704 929 704 882 c 0
 704 794 599 746 489 742 c 1
 489 468 l 2
 489 389 488 327 488 280 c 0
 488 151 496 127 555 127 c 0
 578 127 615 146 631 165 c 2
 645 182 l 1
 669 162 l 2
 678 154 686 146 690 140 c 1
 691 140 l 1
 691 139 l 0
 692 137 693 135 693 134 c 0
 693 123 687 113 678 103 c 1
 657 43 634 -8 607 -51 c 0
 575 -102 542 -139 506 -159 c 0
 465 -183 416 -195 356 -195 c 0
 296 -195 232 -184 164 -162 c 1
 184 -101 l 1
 238 -119 290 -127 339 -127 c 0
 457 -127 505 -86 554 -4 c 0
 566 16 577 34 587 54 c 1
 574 51 563 49 553 49 c 0
 514 49 478 64 450 94 c 0
 411 134 410 161 401 458 c 1
 401 741 l 1
 256 741 l 1
 216 725 l 1
 146 692 89 635 89 540 c 0
 89 457 133 367 221 367 c 0
 275 367 319 397 319 454 c 0
 319 479 294 517 278 517 c 0
 277 517 277 516 277 516 c 2
EndSplineSet
Validated: 1
LCarets2: 1 0
Ligature2: "'vatu' Vattu Variants in Bengali lookup 7 subtable" u09a3 u09b0_u09cd.blwf
EndChar

StartChar: u09a4_u09b0_u09cd.blwf.vatu
Encoding: 65597 -1 77
GlifName: u09a4_u09b0_u09cd.blwf.vatu
Width: 790
GlyphClass: 3
Flags: HMW
LayerCount: 2
Fore
SplineSet
403 818 m 2
 480 818 538 817 581 817 c 0
 705 817 712 825 712 885 c 0
 712 908 693 945 674 961 c 2
 657 975 l 1
 677 998 l 2
 689 1012 701 1022 705 1023 c 0
 749 1023 790 929 790 882 c 0
 790 843 775 808 745 780 c 0
 705 741 710 742 413 740 c 2
 -1 740 l 1
 -1 741 l 1
 -4 741 -8 741 -11 741 c 0
 -30 741 -49 741 -69 742 c 1
 -69 742 -39 756 -20 775 c 0
 -14 781 -7 794 -1 805 c 1
 -1 818 l 1
 7 818 l 2
 8 819 l 1
 8 818 l 1
 403 818 l 2
566 597 m 0
 535 597 492 579 492 542 c 0
 492 513 537 490 562 446 c 2
 575 423 l 1
 532 424 488 426 445 427 c 1
 428 444 l 2
 405 468 386 513 385 543 c 0
 385 632 463 704 557 704 c 0
 695 704 758 571 758 427 c 0
 758 302 708 197 623 128 c 1
 599 55 572 -7 541 -57 c 0
 509 -108 476 -145 440 -165 c 0
 399 -189 350 -201 290 -201 c 0
 230 -201 166 -190 98 -168 c 1
 118 -107 l 1
 172 -125 224 -133 273 -133 c 0
 391 -133 439 -92 488 -10 c 0
 505 18 520 42 534 74 c 1
 490 56 441 45 388 42 c 0
 380 42 372 41 364 41 c 0
 145 41 0 200 0 420 c 0
 0 572 51 705 169 705 c 0
 243 705 306 635 306 544 c 0
 304 451 251 384 166 384 c 0
 143 384 120 394 104 394 c 0
 101 394 100 392 100 385 c 0
 100 234 235 131 360 131 c 0
 366 131 373 132 379 132 c 0
 554 145 661 255 661 428 c 0
 661 516 619 597 566 597 c 0
208 541 m 0
 208 568 192 610 163 610 c 0
 139 610 116 579 116 544 c 0
 116 507 141 479 165 479 c 0
 191 479 208 512 208 541 c 0
EndSplineSet
Validated: 1
LCarets2: 1 0
Substitution2: "'salt' Stylistic Alternatives in Bengali2 lookup 17-1" u09a4_u09b0_u09cd.vatu.salt
Ligature2: "'vatu' Vattu Variants in Bengali lookup 7 subtable" u09a4 u09b0_u09cd.blwf
EndChar

StartChar: u09a5_u09b0_u09cd.blwf.vatu
Encoding: 65598 -1 78
GlifName: u09a5_u09b0_u09cd.blwf.vatu
Width: 951
VWidth: 1049
GlyphClass: 3
Flags: HMW
LayerCount: 2
Fore
SplineSet
156 733 m 0
 104 733 66 677 66 626 c 0
 66 624 63 614 63 611 c 0
 63 610 64 610 64 610 c 2
 67 610 76 625 84 634 c 0
 106 659 130 670 158 670 c 0
 221 670 273 617 273 562 c 0
 273 507 216 452 147 452 c 0
 54 452 0 523 0 641 c 2
 0 654 l 2
 0 727 74 794 164 794 c 0
 207 794 291 791 291 791 c 2
 317 791 480 724 498 713 c 0
 523 698 531 661 531 621 c 0
 531 460 426 388 269 349 c 0
 205 333 119 311 119 253 c 0
 119 201 204 141 295 141 c 0
 422 141 533 196 589 311 c 1
 615 355 l 1
 615 819 l 1
 710 819 l 2
 814 819 823 822 823 823 c 2
 846 846 l 1
 846 846 856 874 856 885 c 0
 856 909 838 945 818 961 c 2
 801 975 l 1
 822 999 l 2
 833 1012 846 1022 850 1022 c 0
 894 1022 935 931 935 884 c 0
 935 845 890 781 890 781 c 2
 890 778 882 769 881 765 c 0
 879 759 867 744 864 742 c 0
 863 741 863 741 809 741 c 0
 787 741 755 741 710 741 c 1
 710 485 l 2
 710 188 711 184 752 163 c 0
 763 157 780 152 790 152 c 0
 815 152 862 175 882 197 c 2
 899 214 l 1
 925 189 l 2
 939 175 951 158 951 152 c 0
 951 116 851 58 787 58 c 0
 760 58 731 65 705 77 c 1
 684 20 663 -28 637 -69 c 0
 605 -120 572 -157 536 -177 c 0
 495 -201 446 -213 386 -213 c 0
 326 -213 262 -202 194 -180 c 1
 214 -119 l 1
 268 -137 320 -145 369 -145 c 0
 487 -145 535 -104 584 -22 c 0
 609 20 630 53 650 114 c 1
 632 131 621 151 621 170 c 0
 621 180 620 186 616 186 c 0
 611 186 602 176 588 157 c 0
 540 88 434 30 315 30 c 0
 166 30 9 102 9 248 c 0
 9 430 283 444 386 530 c 1
 386 530 428 574 428 607 c 0
 428 613 426 619 423 624 c 0
 387 680 323 695 273 707 c 2
 262 710 l 1
 250 715 l 2
 250 717 196 733 156 733 c 0
108 577 m 0
 108 555 135 537 160 537 c 0
 179 537 207 565 207 583 c 0
 207 605 182 619 157 619 c 0
 132 619 108 600 108 577 c 0
EndSplineSet
Validated: 1
LCarets2: 1 0
Ligature2: "'vatu' Vattu Variants in Bengali lookup 7 subtable" u09a5 u09b0_u09cd.blwf
EndChar

StartChar: u09a6_u09b0_u09cd.blwf.vatu
Encoding: 65599 -1 79
GlifName: u09a6_u09b0_u09cd.blwf.vatu
Width: 562
VWidth: 1024
GlyphClass: 3
Flags: HMW
LayerCount: 2
Fore
SplineSet
326 58 m 0
 233 58 124 108 124 194 c 0
 124 287 220 314 268 362 c 0
 281 375 288 387 288 396 c 0
 288 456 200 486 132 486 c 1
 132 739 l 1
 0 739 l 1
 0 741 l 1
 -4 741 -7 741 -11 741 c 0
 -30 741 -49 741 -69 742 c 1
 -69 742 -39 756 -20 775 c 0
 -13 781 -6 796 0 807 c 1
 0 817 l 1
 6 817 l 2
 7 818 7 819 8 819 c 1
 8 817 l 1
 419 817 l 2
 455 817 484 846 484 882 c 0
 484 920 457 952 432 973 c 1
 477 1025 l 1
 517 991 562 944 562 882 c 0
 562 804 497 739 419 739 c 2
 207 739 l 1
 207 568 l 1
 286 548 366 485 366 402 c 0
 366 340 325 291 282 266 c 0
 258 251 222 226 222 194 c 0
 222 159 285 142 326 142 c 0
 390 142 450 167 496 194 c 1
 542 130 l 2
 540 128 538 127 536 125 c 0
 512 52 485 -10 454 -60 c 0
 422 -111 389 -148 353 -168 c 0
 312 -192 263 -204 203 -204 c 0
 143 -204 79 -193 11 -171 c 1
 31 -110 l 1
 85 -128 137 -136 186 -136 c 0
 304 -136 352 -95 401 -13 c 0
 419 17 435 43 450 78 c 1
 414 65 372 58 326 58 c 0
EndSplineSet
Validated: 1
LCarets2: 1 0
Ligature2: "'vatu' Vattu Variants in Bengali lookup 7 subtable" u09a6 u09b0_u09cd.blwf
EndChar

StartChar: u09a7_u09b0_u09cd.blwf.vatu
Encoding: 65600 -1 80
GlifName: u09a7_u09b0_u09cd.blwf.vatu
Width: 730
VWidth: 1024
GlyphClass: 3
Flags: HMW
LayerCount: 2
Fore
SplineSet
584 58 m 0
 532 58 490 96 467 142 c 1
 424 99 360 58 285 58 c 0
 154 58 56 132 56 260 c 0
 56 346 101 421 161 448 c 1
 101 475 56 549 56 635 c 0
 56 734 116 838 211 838 c 0
 292 838 352 764 352 682 c 0
 352 617 304 557 241 557 c 1
 241 635 l 1
 263 635 278 659 278 682 c 0
 278 710 247 728 217 728 c 0
 173 728 142 681 142 635 c 0
 142 497 307 500 448 495 c 1
 448 817 l 1
 490 819 571 823 571 884 c 0
 571 907 552 944 533 960 c 2
 516 974 l 1
 536 997 l 2
 547 1010 560 1022 564 1022 c 0
 610 1022 650 924 650 875 c 0
 650 857 629 768 590 768 c 0
 587 768 590 778 571 778 c 0
 561 778 546 775 522 767 c 1
 522 229 l 2
 522 190 547 151 584 151 c 0
 623 151 652 185 671 214 c 1
 720 151 l 2
 720 150 719 150 719 149 c 1
 724 149 l 1
 699 73 672 9 640 -42 c 0
 608 -93 575 -130 539 -150 c 0
 498 -174 449 -186 389 -186 c 0
 329 -186 265 -175 197 -153 c 1
 217 -92 l 1
 271 -110 323 -118 372 -118 c 0
 490 -118 538 -77 587 5 c 0
 599 25 610 44 620 64 c 1
 609 60 597 58 584 58 c 0
448 400 m 1
 307 395 142 398 142 260 c 0
 142 189 203 151 278 151 c 0
 353 151 407 207 448 257 c 1
 448 400 l 1
EndSplineSet
Validated: 1
LCarets2: 1 0
Ligature2: "'vatu' Vattu Variants in Bengali lookup 7 subtable" u09a7 u09b0_u09cd.blwf
EndChar

StartChar: u09a8_u09b0_u09cd.blwf.vatu
Encoding: 65601 -1 81
GlifName: u09a8_u09b0_u09cd.blwf.vatu
Width: 653
GlyphClass: 3
Flags: HMW
LayerCount: 2
Fore
SplineSet
245 819 m 2
 307 819 356 818 397 818 c 0
 538 818 564 826 564 890 c 0
 564 912 544 954 524 973 c 2
 509 987 l 1
 532 1011 l 2
 545 1024 559 1034 565 1034 c 0
 597 1034 648 945 648 888 c 0
 648 821 576 740 526 740 c 0
 521 740 519 738 519 735 c 0
 519 725 543 703 566 686 c 0
 612 652 653 489 653 386 c 0
 653 299 634 206 587 146 c 1
 589 146 l 1
 564 70 537 6 505 -45 c 0
 473 -96 440 -133 404 -153 c 0
 363 -177 314 -189 254 -189 c 0
 194 -189 130 -178 62 -156 c 1
 82 -95 l 1
 136 -113 188 -121 237 -121 c 0
 355 -121 403 -80 452 2 c 0
 469 31 484 56 498 88 c 1
 485 85 472 83 457 83 c 0
 271 83 313 345 205 418 c 0
 192 427 181 432 171 432 c 0
 122 432 101 368 101 316 c 0
 101 229 132 144 183 93 c 2
 209 68 l 1
 173 41 l 2
 153 26 135 15 132 15 c 0
 75 15 3 233 3 309 c 0
 3 420 58 530 170 530 c 0
 255 530 334 448 367 314 c 0
 382 256 400 181 453 181 c 0
 500 181 548 256 553 338 c 0
 553 345 554 352 554 360 c 0
 554 481 497 664 401 711 c 2
 361 730 l 1
 241 731 122 733 2 734 c 1
 2 741 l 1
 -2 741 -7 741 -11 741 c 0
 -30 741 -49 741 -69 742 c 1
 -69 742 -39 756 -20 775 c 0
 -13 782 -5 800 2 811 c 1
 2 819 l 1
 245 819 l 2
EndSplineSet
Validated: 1
LCarets2: 1 0
Ligature2: "'vatu' Vattu Variants in Bengali lookup 7 subtable" u09a8 u09b0_u09cd.blwf
EndChar

StartChar: u09aa_u09b0_u09cd.blwf.vatu
Encoding: 65602 -1 82
GlifName: u09aa_u09b0_u09cd.blwf.vatu
Width: 826
VWidth: 1024
GlyphClass: 3
Flags: HMW
LayerCount: 2
Fore
SplineSet
538 486 m 0
 538 622 406 720 266 720 c 0
 201 720 122 689 122 630 c 0
 122 565 197 526 266 526 c 1
 266 448 l 1
 198 448 122 408 122 344 c 0
 122 283 210 252 278 252 c 0
 414 252 538 353 538 486 c 0
28 629 m 0
 28 739 147 811 262 811 c 0
 381 811 477 761 534 693 c 1
 534 816 l 1
 559 816 l 2
 588 816 611 815 630 815 c 0
 676 815 694 823 694 883 c 0
 694 906 675 943 656 959 c 2
 639 973 l 1
 659 996 l 2
 670 1009 683 1021 687 1021 c 0
 730 1021 772 928 772 881 c 0
 771 776 718 739 612 738 c 1
 612 189 l 2
 612 152 652 123 690 123 c 0
 721 123 750 153 768 175 c 1
 820 137 l 1
 816 129 810 122 805 114 c 0
 779 48 752 -8 720 -54 c 0
 684 -105 647 -142 607 -162 c 0
 561 -186 506 -198 439 -198 c 0
 372 -198 300 -187 224 -165 c 1
 246 -104 l 1
 306 -122 365 -130 420 -130 c 0
 552 -130 606 -89 661 -7 c 0
 673 11 684 27 694 45 c 1
 693 45 691 45 690 45 c 0
 563 45 534 171 534 291 c 1
 473 218 402 161 274 161 c 0
 155 161 28 231 28 343 c 0
 28 415 84 469 144 485 c 1
 83 501 28 556 28 629 c 0
EndSplineSet
Validated: 1
LCarets2: 1 0
Ligature2: "'vatu' Vattu Variants in Bengali lookup 7 subtable" u09aa u09b0_u09cd.blwf
EndChar

StartChar: u09ab_u09b0_u09cd.blwf.vatu
Encoding: 65603 -1 83
GlifName: u09ab_u09b0_u09cd.blwf.vatu
Width: 1140
GlyphClass: 3
Flags: HMW
LayerCount: 2
Fore
SplineSet
159 742 m 1
 237 711 304 621 304 528 c 0
 304 451 267 391 220 357 c 0
 194 338 161 305 161 268 c 0
 161 226 218 203 265 203 c 0
 329 203 384 232 427 262 c 1
 427 661 l 1
 866 661 l 1
 994 614 1106 491 1106 364 c 0
 1106 245 1017 141 893 141 c 0
 800 141 724 203 724 289 c 0
 724 376 802 440 873 440 c 0
 920 440 959 406 959 367 c 0
 959 329 931 303 899 303 c 0
 857 303 861 336 839 358 c 2
 839 358 839 359 838 359 c 0
 822 359 796 321 796 296 c 0
 796 239 840 209 894 209 c 0
 982 209 1026 299 1026 382 c 0
 1026 476 969 534 900 567 c 2
 860 586 l 1
 743 586 625 586 508 586 c 1
 508 240 l 2
 508 199 528 159 568 159 c 0
 609 159 639 193 659 223 c 1
 703 176 l 1
 709 176 l 1
 708 174 708 173 707 171 c 2
 711 167 l 1
 708 163 704 159 701 154 c 0
 678 88 654 31 625 -15 c 0
 593 -66 560 -103 524 -123 c 0
 483 -147 434 -159 374 -159 c 0
 314 -159 250 -148 182 -126 c 1
 202 -65 l 1
 256 -83 308 -91 357 -91 c 0
 475 -91 523 -50 572 32 c 0
 578 43 584 53 590 63 c 1
 583 61 576 61 568 61 c 0
 512 61 463 104 442 154 c 1
 399 121 335 97 265 97 c 0
 161 97 63 167 63 268 c 0
 63 380 157 416 207 478 c 0
 220 494 226 507 226 519 c 0
 226 590 145 633 70 633 c 1
 70 738 l 1
 3 738 l 1
 3 741 l 1
 -2 741 -6 741 -11 741 c 0
 -30 741 -49 741 -69 742 c 1
 -69 742 -39 756 -20 775 c 0
 -12 782 -4 801 3 812 c 1
 3 817 l 1
 6 817 l 2
 7 818 7 819 8 819 c 1
 8 817 l 1
 262 817 l 2
 545 817 1031 817 1049 851 c 0
 1054 860 1057 875 1057 884 c 0
 1057 907 1038 944 1019 960 c 2
 1002 974 l 1
 1022 997 l 2
 1033 1010 1046 1022 1050 1022 c 0
 1093 1022 1135 929 1135 882 c 0
 1135 743 970 742 814 742 c 2
 159 742 l 1
EndSplineSet
Validated: 1
LCarets2: 1 0
Ligature2: "'vatu' Vattu Variants in Bengali lookup 7 subtable" u09ab u09b0_u09cd.blwf
EndChar

StartChar: u09ac_u09b0_u09cd.blwf.vatu
Encoding: 65604 -1 84
GlifName: u09ac_u09b0_u09cd.blwf.vatu
Width: 870
GlyphClass: 3
Flags: HMW
LayerCount: 2
Fore
SplineSet
349 187 m 0
 451 187 567 255 570 388 c 2
 570 400 l 2
 570 516 473 604 353 604 c 0
 242 604 132 527 132 395 c 0
 132 259 244 187 349 187 c 0
732 130 m 0
 761 130 807 175 825 175 c 0
 832 175 879 133 879 129 c 0
 879 118 871 106 858 95 c 1
 835 34 811 -17 783 -60 c 0
 749 -111 715 -148 677 -168 c 0
 634 -192 582 -204 519 -204 c 0
 456 -204 388 -193 317 -171 c 1
 338 -110 l 1
 395 -128 449 -136 501 -136 c 0
 625 -136 675 -95 727 -13 c 0
 741 9 753 29 765 52 c 1
 752 49 740 47 729 47 c 0
 625 47 598 110 574 181 c 1
 574 181 574 182 573 182 c 0
 569 182 556 172 542 160 c 0
 486 111 417 88 348 88 c 0
 196 88 34 199 34 394 c 0
 34 573 155 651 323 696 c 0
 335 699 347 701 360 701 c 0
 433 701 515 653 543 628 c 2
 573 602 l 1
 573 739 l 1
 3 739 l 1
 3 741 l 1
 -2 741 -6 741 -11 741 c 0
 -30 741 -49 741 -69 742 c 1
 -69 742 -39 756 -20 775 c 0
 -12 782 -4 801 3 812 c 1
 3 817 l 1
 6 817 l 2
 7 818 7 819 8 819 c 1
 8 817 l 1
 425 817 l 2
 502 817 563 816 612 816 c 0
 751 816 789 824 789 884 c 0
 789 907 770 944 751 960 c 2
 734 974 l 1
 754 997 l 2
 765 1010 778 1022 782 1022 c 0
 825 1022 867 929 867 882 c 0
 867 823 866 769 797 747 c 0
 778 741 697 742 679 741 c 1
 679 186 l 2
 679 143 694 130 732 130 c 0
EndSplineSet
Validated: 1
LCarets2: 1 0
Ligature2: "'vatu' Vattu Variants in Bengali lookup 7 subtable" u09ac u09b0_u09cd.blwf
EndChar

StartChar: u09ad_u09b0_u09cd.blwf.vatu
Encoding: 65605 -1 85
GlifName: u09ad_u09b0_u09cd.blwf.vatu
Width: 711
VWidth: 1024
GlyphClass: 3
Flags: HMW
LayerCount: 2
Fore
SplineSet
328 654 m 0
 328 674 305 690 281 690 c 0
 264 690 240 665 240 648 c 0
 240 629 262 616 284 616 c 0
 306 616 328 633 328 654 c 0
146 268 m 0
 130 265 114 253 114 234 c 0
 114 204 140 181 170 181 c 0
 173 181 175 182 177 182 c 0
 194 185 209 198 209 218 c 0
 209 245 182 269 155 269 c 0
 152 269 149 268 146 268 c 0
316 739 m 1
 365 730 402 685 402 639 c 0
 402 589 355 541 297 541 c 0
 272 541 250 551 231 572 c 0
 232 573 230 576 227 579 c 1
 224 568 223 556 223 545 c 0
 224 514 240 494 271 494 c 0
 317 494 352 526 379 558 c 0
 419 607 472 651 543 651 c 0
 625 651 660 577 660 491 c 0
 660 382 612 272 539 190 c 1
 541 190 l 1
 516 114 489 50 457 -1 c 0
 425 -52 392 -89 356 -109 c 0
 315 -133 266 -145 206 -145 c 0
 146 -145 82 -134 14 -112 c 1
 34 -51 l 1
 88 -69 140 -77 189 -77 c 0
 307 -77 355 -36 404 46 c 0
 416 67 427 85 438 106 c 1
 386 75 329 57 271 57 c 0
 169 57 30 121 30 232 c 0
 30 296 86 341 149 341 c 0
 226 341 285 274 285 202 c 0
 285 176 276 154 257 135 c 1
 264 134 272 133 279 133 c 0
 431 133 582 338 582 498 c 0
 582 535 570 571 535 571 c 0
 499 571 472 542 450 517 c 0
 404 462 347 414 265 414 c 0
 187 414 142 474 142 552 c 0
 142 641 217 730 293 739 c 1
 0 739 l 1
 0 741 l 1
 -4 741 -7 741 -11 741 c 0
 -30 741 -49 741 -69 742 c 1
 -69 742 -39 756 -20 775 c 0
 -13 781 -6 796 0 807 c 1
 0 817 l 1
 6 817 l 2
 7 818 7 819 8 819 c 1
 8 817 l 1
 320 817 l 2
 397 817 455 816 498 816 c 0
 622 816 629 824 629 884 c 0
 629 907 610 944 591 960 c 2
 574 974 l 1
 594 997 l 2
 605 1010 618 1022 622 1022 c 0
 665 1022 707 929 707 882 c 0
 707 843 692 807 662 779 c 0
 622 740 627 741 330 739 c 2
 316 739 l 1
EndSplineSet
Validated: 1
LCarets2: 1 0
Ligature2: "'vatu' Vattu Variants in Bengali lookup 7 subtable" u09ad u09b0_u09cd.blwf
EndChar

StartChar: u09ae_u09b0_u09cd.blwf.vatu
Encoding: 65606 -1 86
GlifName: u09ae_u09b0_u09cd.blwf.vatu
Width: 715
VWidth: 1024
GlyphClass: 3
Flags: HMW
LayerCount: 2
Fore
SplineSet
312 311 m 1
 244 286 156 234 156 155 c 0
 156 130 171 103 195 103 c 0
 268 103 305 230 312 311 c 1
390 344 m 1
 390 203 323 25 195 25 c 0
 123 25 65 83 65 155 c 0
 65 268 211 346 312 383 c 1
 312 588 238 631 108 737 c 1
 0 737 l 1
 0 741 l 1
 -4 741 -7 741 -11 741 c 0
 -30 741 -49 741 -69 742 c 1
 -69 742 -39 756 -20 775 c 0
 -13 781 -6 796 0 807 c 1
 0 817 l 1
 6 817 l 2
 7 818 7 819 8 819 c 1
 8 817 l 1
 327 817 l 2
 404 817 462 816 505 816 c 0
 629 816 636 824 636 884 c 0
 636 907 617 944 598 960 c 2
 581 974 l 1
 601 997 l 2
 612 1010 625 1022 629 1022 c 0
 672 1022 714 929 714 882 c 0
 714 797 665 747 561 742 c 1
 603 708 650 696 650 636 c 0
 650 565 609 511 566 474 c 1
 599 404 624 327 624 233 c 0
 624 139 565 68 500 28 c 1
 481 -23 460 -67 436 -105 c 0
 404 -156 371 -193 335 -213 c 0
 294 -237 245 -249 185 -249 c 0
 125 -249 61 -238 -7 -216 c 1
 13 -155 l 1
 67 -173 119 -181 168 -181 c 0
 286 -181 334 -140 383 -58 c 0
 408 -15 429 18 449 81 c 1
 442 90 l 1
 490 119 546 167 546 233 c 0
 546 309 538 379 514 428 c 1
 475 396 435 364 390 344 c 1
585 636 m 0
 585 670 500 701 452 740 c 1
 420 740 382 739 337 739 c 2
 248 739 l 1
 325 662 384 556 384 409 c 1
 425 426 459 451 488 480 c 0
 488 481 l 2
 488 481 575 594 575 603 c 0
 575 603 l 1
 582 617 585 628 585 636 c 0
EndSplineSet
Validated: 1
LCarets2: 1 0
Ligature2: "'vatu' Vattu Variants in Bengali lookup 7 subtable" u09ae u09b0_u09cd.blwf
EndChar

StartChar: u09af_u09b0_u09cd.blwf.vatu
Encoding: 65607 -1 87
GlifName: u09af_u09b0_u09cd.blwf.vatu
Width: 721
VWidth: 1024
GlyphClass: 3
Flags: HMW
LayerCount: 2
Fore
SplineSet
568 68 m 0
 512 68 463 111 442 161 c 1
 399 128 335 104 265 104 c 0
 161 104 63 174 63 275 c 0
 63 387 157 423 207 485 c 0
 220 501 226 514 226 526 c 0
 226 597 145 640 70 640 c 1
 70 738 l 1
 3 738 l 1
 3 741 l 1
 -2 741 -6 741 -11 741 c 0
 -30 741 -49 741 -69 742 c 1
 -69 742 -39 756 -20 775 c 0
 -12 782 -4 801 3 812 c 1
 3 817 l 1
 6 817 l 2
 7 818 7 819 8 819 c 1
 8 817 l 1
 262 817 l 2
 347 817 415 816 467 816 c 0
 598 816 637 824 637 884 c 0
 637 907 618 944 599 960 c 2
 582 974 l 1
 602 997 l 2
 613 1010 626 1022 630 1022 c 0
 673 1022 715 929 715 882 c 0
 715 769 630 749 503 742 c 1
 503 247 l 2
 503 206 528 166 568 166 c 0
 609 166 639 200 659 230 c 1
 711 174 l 2
 710 172 708 171 707 169 c 1
 709 169 l 1
 684 93 657 29 625 -22 c 0
 593 -73 560 -110 524 -130 c 0
 483 -154 434 -166 374 -166 c 0
 314 -166 250 -155 182 -133 c 1
 202 -72 l 1
 256 -90 308 -98 357 -98 c 0
 475 -98 523 -57 572 25 c 0
 582 42 591 57 600 73 c 1
 590 70 579 68 568 68 c 0
159 739 m 1
 238 708 304 629 304 535 c 0
 304 458 267 398 220 364 c 0
 194 345 161 312 161 275 c 0
 161 233 218 210 265 210 c 0
 329 210 382 239 425 269 c 1
 425 740 l 1
 386 739 336 739 272 739 c 2
 159 739 l 1
EndSplineSet
Validated: 1
LCarets2: 1 0
Ligature2: "'vatu' Vattu Variants in Bengali lookup 7 subtable" u09af u09b0_u09cd.blwf
EndChar

StartChar: u09b0_u09b0_u09cd.blwf.vatu
Encoding: 65608 -1 88
GlifName: u09b0_u09b0_u09cd.blwf.vatu
Width: 870
GlyphClass: 3
Flags: HMW
LayerCount: 2
Fore
SplineSet
142 40 m 0
 142 3 108 -21 73 -23 c 0
 45 -23 17 -10 17 19 c 0
 17 58 50 96 88 96 c 0
 122 96 142 68 142 40 c 0
349 187 m 0
 451 187 567 255 570 388 c 2
 570 400 l 2
 570 516 473 604 353 604 c 0
 242 604 132 527 132 395 c 0
 132 259 244 187 349 187 c 0
732 130 m 0
 761 130 807 175 825 175 c 0
 830 175 855 154 869 140 c 1
 874 140 l 1
 874 139 873 138 873 137 c 0
 877 133 879 130 879 129 c 0
 879 118 871 107 859 96 c 1
 838 39 816 -10 790 -51 c 0
 758 -102 725 -139 689 -159 c 0
 648 -183 599 -195 539 -195 c 0
 479 -195 415 -184 347 -162 c 1
 367 -101 l 1
 421 -119 473 -127 522 -127 c 0
 640 -127 688 -86 737 -4 c 0
 749 16 759 34 769 53 c 1
 755 49 741 47 729 47 c 0
 625 47 598 110 574 181 c 1
 574 181 574 182 573 182 c 0
 569 182 556 172 542 160 c 0
 486 111 417 88 348 88 c 0
 196 88 34 199 34 394 c 0
 34 573 155 651 323 696 c 0
 335 699 347 701 360 701 c 0
 433 701 515 653 543 628 c 2
 573 602 l 1
 573 739 l 1
 3 739 l 1
 3 741 l 1
 -2 741 -6 741 -11 741 c 0
 -30 741 -49 741 -69 742 c 1
 -69 742 -39 756 -20 775 c 0
 -12 782 -4 801 3 812 c 1
 3 817 l 1
 6 817 l 2
 7 818 7 819 8 819 c 1
 8 817 l 1
 425 817 l 2
 502 817 563 816 612 816 c 0
 751 816 789 824 789 884 c 0
 789 907 770 944 751 960 c 2
 734 974 l 1
 754 997 l 2
 765 1010 778 1022 782 1022 c 0
 825 1022 867 929 867 882 c 0
 867 823 866 769 797 747 c 0
 778 741 697 742 679 741 c 1
 679 186 l 2
 679 143 694 130 732 130 c 0
EndSplineSet
Validated: 1
LCarets2: 1 0
Ligature2: "'vatu' Vattu Variants in Bengali lookup 7 subtable" u09b0 u09b0_u09cd.blwf
EndChar

StartChar: u09b2_u09b0_u09cd.blwf.vatu
Encoding: 65609 -1 89
GlifName: u09b2_u09b0_u09cd.blwf.vatu
Width: 1140
GlyphClass: 2
Flags: HMW
LayerCount: 2
Fore
SplineSet
352 262 m 2
 330 240 332 207 291 207 c 0
 259 207 231 233 231 271 c 0
 231 310 270 344 317 344 c 0
 388 344 466 280 466 193 c 0
 466 107 389 45 297 45 c 0
 166 45 82 157 82 282 c 0
 82 495 250 565 523 565 c 2
 572 565 l 1
 596 579 620 585 644 585 c 0
 729 585 807 435 841 301 c 0
 856 243 874 168 927 168 c 0
 974 168 1022 243 1027 325 c 0
 1027 332 1028 407 1028 415 c 0
 1028 536 971 664 875 711 c 2
 835 730 l 1
 -60 730 l 1
 0 819 l 1
 719 819 l 2
 781 819 832 818 874 818 c 0
 1020 818 1056 826 1056 890 c 0
 1056 912 1036 954 1016 973 c 2
 1001 987 l 1
 1024 1011 l 2
 1037 1024 1051 1034 1057 1034 c 0
 1089 1034 1140 945 1140 888 c 0
 1140 821 1050 740 1000 740 c 0
 995 740 993 738 993 735 c 0
 993 725 1017 703 1040 686 c 0
 1086 652 1127 544 1127 441 c 0
 1127 334 1100 178 1023 107 c 1
 1024 107 l 1
 997 31 968 -33 933 -84 c 0
 898 -135 862 -172 823 -192 c 0
 778 -216 725 -228 660 -228 c 0
 595 -228 526 -217 452 -195 c 1
 474 -134 l 1
 533 -152 589 -160 642 -160 c 0
 770 -160 822 -119 875 -37 c 0
 897 -2 917 27 935 70 c 1
 934 70 932 70 931 70 c 0
 745 70 787 400 679 473 c 0
 666 482 655 487 645 487 c 0
 596 487 575 423 575 371 c 0
 575 284 606 199 657 148 c 2
 683 123 l 1
 647 96 l 2
 627 81 609 70 606 70 c 0
 549 70 477 288 477 364 c 0
 477 411 487 456 505 492 c 1
 331 492 l 1
 291 471 l 2
 221 438 164 381 164 286 c 0
 164 203 208 113 296 113 c 0
 350 113 394 143 394 200 c 0
 394 225 369 263 353 263 c 0
 352 263 352 262 352 262 c 2
EndSplineSet
Validated: 1
LCarets2: 1 0
Ligature2: "'vatu' Vattu Variants in Bengali lookup 7 subtable" u09b2 u09b0_u09cd.blwf
EndChar

StartChar: u09b6_u09b0_u09cd.blwf.vatu
Encoding: 65610 -1 90
GlifName: u09b6_u09b0_u09cd.blwf.vatu
Width: 1052
GlyphClass: 3
Flags: HMW
LayerCount: 2
Fore
SplineSet
515 815 m 1
 907 815 l 2
 908 815 l 0
 944 815 972 844 972 880 c 0
 972 921 956 951 933 971 c 1
 972 1023 l 1
 1011 991 1050 942 1050 880 c 0
 1050 804 989 737 914 737 c 0
 912 737 909 737 907 737 c 1
 844 737 l 1
 844 434 l 2
 843 345 841 282 841 237 c 0
 841 133 851 125 907 125 c 0
 930 125 967 144 983 163 c 2
 997 180 l 1
 1021 159 l 2
 1034 148 1045 136 1045 132 c 0
 1045 118 1036 105 1022 93 c 1
 999 36 976 -13 948 -54 c 0
 913 -105 877 -142 838 -162 c 0
 793 -186 740 -198 675 -198 c 0
 610 -198 541 -187 467 -165 c 1
 489 -104 l 1
 548 -122 604 -130 657 -130 c 0
 785 -130 837 -89 890 -7 c 0
 902 12 914 30 925 49 c 1
 919 48 912 47 907 47 c 0
 867 47 830 62 802 92 c 0
 763 132 762 127 761 424 c 2
 761 732 l 1
 504 732 l 1
 443 710 400 644 400 563 c 1
 431 589 469 615 517 615 c 0
 624 615 712 527 712 420 c 0
 712 313 624 225 517 225 c 0
 449 225 395 269 368 316 c 1
 341 268 287 225 218 225 c 0
 111 225 23 313 23 420 c 0
 23 527 111 615 218 615 c 0
 266 615 304 589 335 563 c 1
 335 636 359 699 400 732 c 2
 515 815 l 1
517 316 m 0
 573 316 621 364 621 420 c 0
 621 477 574 524 517 524 c 0
 460 524 413 477 413 420 c 0
 413 364 461 316 517 316 c 0
218 316 m 0
 275 316 322 363 322 420 c 0
 322 478 276 524 218 524 c 0
 160 524 114 478 114 420 c 0
 114 363 161 316 218 316 c 0
EndSplineSet
Validated: 1
LCarets2: 1 0
Ligature2: "'vatu' Vattu Variants in Bengali lookup 7 subtable" u09b6 u09b0_u09cd.blwf
EndChar

StartChar: u09b7_u09b0_u09cd.blwf.vatu
Encoding: 65611 -1 91
GlifName: u09b7_u09b0_u09cd.blwf.vatu
Width: 721
VWidth: 1024
GlyphClass: 3
Flags: HMW
LayerCount: 2
Fore
SplineSet
277 430 m 1
 249 379 161 343 161 275 c 0
 161 233 218 210 265 210 c 0
 329 210 382 239 425 269 c 1
 425 372 l 1
 400 377 383 408 353 419 c 0
 326 429 300 427 277 430 c 1
303 515 m 1
 339 515 397 502 425 490 c 1
 425 740 l 1
 386 739 336 739 272 739 c 2
 159 739 l 1
 238 708 304 629 304 535 c 0
 304 528 304 522 303 515 c 1
568 68 m 0
 512 68 463 111 442 161 c 1
 399 128 335 104 265 104 c 0
 161 104 63 174 63 275 c 0
 63 387 157 423 207 485 c 0
 220 501 226 514 226 526 c 0
 226 597 145 640 70 640 c 1
 70 738 l 1
 3 738 l 1
 3 817 l 1
 262 817 l 2
 347 817 415 816 467 816 c 0
 598 816 637 824 637 884 c 0
 637 907 618 944 599 960 c 2
 582 974 l 1
 602 997 l 2
 613 1010 626 1022 630 1022 c 0
 673 1022 715 929 715 882 c 0
 715 769 630 749 503 742 c 1
 503 247 l 2
 503 206 528 166 568 166 c 0
 609 166 639 200 659 230 c 1
 698 188 l 1
 706 188 l 1
 705 186 705 184 704 182 c 2
 711 174 l 1
 705 166 699 157 692 148 c 0
 671 89 648 39 622 -3 c 0
 590 -54 557 -91 521 -111 c 0
 480 -135 431 -147 371 -147 c 0
 311 -147 247 -136 179 -114 c 1
 199 -53 l 1
 253 -71 305 -79 354 -79 c 0
 472 -79 520 -38 569 44 c 0
 574 53 579 61 584 69 c 1
 579 68 573 68 568 68 c 0
EndSplineSet
Validated: 1
LCarets2: 1 0
Ligature2: "'vatu' Vattu Variants in Bengali lookup 7 subtable" u09b7 u09b0_u09cd.blwf
EndChar

StartChar: u09b8_u09b0_u09cd.blwf.vatu
Encoding: 65612 -1 92
GlifName: u09b8_u09b0_u09cd.blwf.vatu
Width: 776
VWidth: 1024
GlyphClass: 3
Flags: HMW
LayerCount: 2
Fore
SplineSet
776 885 m 0
 776 807 711 742 633 742 c 2
 213 742 l 1
 214 741 l 1
 170 740 130 640 130 599 c 0
 130 535 224 501 292 495 c 0
 376 488 449 446 481 382 c 1
 481 690 l 1
 481 741 l 1
 483 740 l 1
 563 740 l 1
 563 448 l 2
 563 362 562 300 562 255 c 0
 562 146 570 139 626 139 c 0
 649 139 686 158 702 177 c 2
 716 194 l 1
 740 174 l 2
 751 165 760 155 763 149 c 1
 763 149 l 1
 763 149 l 0
 764 148 764 147 764 146 c 0
 764 137 760 128 753 119 c 0
 731 56 707 2 679 -42 c 0
 647 -93 614 -130 578 -150 c 0
 537 -174 488 -186 428 -186 c 0
 368 -186 304 -175 236 -153 c 1
 256 -92 l 1
 310 -110 362 -118 411 -118 c 0
 529 -118 577 -77 626 5 c 0
 639 26 650 46 661 67 c 1
 647 63 634 61 624 61 c 0
 585 61 549 76 521 106 c 0
 492 137 485 141 483 271 c 1
 454 201 365 157 273 157 c 0
 150 157 57 239 0 320 c 1
 65 365 l 1
 109 303 181 235 273 235 c 0
 334 235 403 269 403 326 c 0
 403 381 335 412 279 417 c 0
 169 427 39 491 39 599 c 0
 39 668 59 724 119 741 c 1
 8 741 l 1
 -79 741 l 1
 -51 764 -14 764 2 820 c 1
 633 820 l 2
 669 820 698 849 698 885 c 0
 698 924 671 955 646 976 c 1
 698 1028 l 1
 737 995 776 949 776 885 c 0
EndSplineSet
Validated: 1
LCarets2: 1 0
Ligature2: "'vatu' Vattu Variants in Bengali lookup 7 subtable" u09b8 u09b0_u09cd.blwf
EndChar

StartChar: u09b9_u09b0_u09cd.blwf.vatu
Encoding: 65613 -1 93
GlifName: u09b9_u09b0_u09cd.blwf.vatu
Width: 693
GlyphClass: 3
Flags: HMW
LayerCount: 2
Fore
SplineSet
373 236 m 0
 373 267 257 282 211 282 c 0
 173 282 107 264 107 228 c 0
 107 197 176 189 226 189 c 2
 241 189 l 2
 290 193 373 222 373 236 c 0
512 471 m 0
 512 551 486 628 405 628 c 0
 355 628 293 573 280 542 c 1
 188 528 l 1
 218 615 l 1
 228 638 l 2
 232 638 245 657 246 658 c 0
 247 659 337 723 411 723 c 0
 549 723 621 598 621 472 c 0
 621 399 601 321 560 265 c 0
 547 247 536 231 536 228 c 0
 536 225 544 210 555 195 c 0
 582 157 603 98 605 56 c 2
 605 20 l 1
 579 20 l 1
 560 -29 540 -72 517 -108 c 0
 485 -159 452 -196 416 -216 c 0
 375 -240 326 -252 266 -252 c 0
 206 -252 142 -241 74 -219 c 1
 94 -158 l 1
 148 -176 200 -184 249 -184 c 0
 367 -184 415 -143 464 -61 c 0
 480 -34 494 -10 508 20 c 1
 507 20 l 1
 495 72 l 2
 487 106 469 168 458 168 c 0
 456 168 438 159 419 148 c 0
 354 109 288 90 223 90 c 0
 123 90 0 146 0 227 c 0
 0 321 128 367 227 367 c 0
 289 367 355 352 415 322 c 2
 458 301 l 1
 469 315 l 2
 496 347 512 404 512 471 c 0
306 815 m 2
 383 815 441 814 484 814 c 0
 608 814 615 822 615 882 c 0
 615 905 596 942 577 958 c 2
 560 972 l 1
 580 995 l 2
 591 1008 604 1020 608 1020 c 0
 651 1020 693 927 693 880 c 0
 693 841 677 806 648 777 c 0
 608 738 613 739 316 737 c 2
 -61 737 l 1
 0 815 l 1
 306 815 l 2
EndSplineSet
Validated: 1
LCarets2: 1 0
Ligature2: "'vatu' Vattu Variants in Bengali lookup 7 subtable" u09b9 u09b0_u09cd.blwf
EndChar

StartChar: bn_ka_ssa.akhn_bn_raphala.vatu
Encoding: 65615 -1 95
GlifName: bn_ka_ssa.akhn_bn_raphala.vatu
Width: 832
GlyphClass: 3
Flags: HMW
LayerCount: 2
Fore
SplineSet
405 610 m 1
 396 600 392 590 392 580 c 0
 392 553 424 524 488 494 c 1
 488 610 l 1
 405 610 l 1
184 514 m 1
 269 503 354 435 354 343 c 0
 354 319 347 294 335 269 c 1
 485 135 l 1
 485 175 l 1
 488 175 l 1
 488 430 l 1
 384 477 332 526 332 578 c 0
 332 588 333 599 337 610 c 1
 169 610 l 1
 181 591 188 570 188 548 c 0
 188 538 187 527 184 514 c 1
201 155 m 1
 184 158 167 170 167 191 c 0
 167 197 169 202 173 206 c 0
 249 249 288 294 288 342 c 0
 288 400 235 456 176 456 c 0
 169 456 162 455 155 453 c 1
 134 420 104 392 63 368 c 0
 62 368 60 368 59 368 c 0
 37 368 24 376 24 397 c 0
 24 402 26 406 29 410 c 1
 69 430 128 489 128 545 c 0
 128 578 108 600 68 610 c 1
 -11 610 l 1
 -11 673 l 1
 832 673 l 1
 832 610 l 1
 545 610 l 1
 545 471 l 1
 603 451 651 427 689 396 c 0
 730 363 751 330 751 297 c 0
 751 254 716 216 644 185 c 0
 643 185 641 184 640 184 c 0
 626 184 613 201 613 217 c 0
 613 222 614 226 615 230 c 1
 664 251 688 275 688 300 c 0
 688 339 640 375 545 408 c 1
 545 175 l 1
 547 175 l 1
 547 33 l 2
 547 18 534 10 507 10 c 0
 497 10 490 12 485 17 c 0
 460 44 430 57 395 57 c 0
 373 57 342 51 304 40 c 0
 271 30 239 25 207 25 c 0
 110 25 48 70 19 160 c 1
 20 178 32 187 55 187 c 0
 61 187 66 186 72 184 c 1
 94 115 138 81 202 81 c 0
 222 81 245 84 270 91 c 0
 327 107 370 115 400 115 c 2
 410 115 l 1
 294 221 l 1
 269 197 238 175 201 155 c 1
EndSplineSet
Validated: 1
Ligature2: "'vatu' Vattu Variants in Bengali lookup 7 subtable" u0995_u09cd_u09b7.akhn u09b0_u09cd.blwf
EndChar

StartChar: u09a4_u09cd_u09a4_u09b0
Encoding: 65616 -1 96
GlifName: u09a4_u09cd.half_u09a4_u09b0_u09cd.blwf.vatu.pres
Width: 704
GlyphClass: 3
Flags: HMW
LayerCount: 2
Fore
SplineSet
-13 673 m 1
 702 673 l 1
 702 610 l 1
 -13 610 l 1
 -13 673 l 1
266 419 m 0
 266 503 331 576 414 576 c 0
 459 576 497 561 530 531 c 1
 545 515 l 1
 569 486 582 453 582 417 c 0
 582 382 569 350 546 321 c 1
 589 283 611 239 611 189 c 0
 611 144 593 106 557 76 c 0
 542 63 524 52 505 45 c 1
 505 -73 l 2
 505 -88 493 -96 469 -96 c 0
 461 -96 456 -93 454 -89 c 0
 442 -64 424 -52 402 -52 c 0
 389 -52 369 -57 342 -68 c 0
 279 -94 235 -107 210 -107 c 0
 169 -107 132 -84 97 -35 c 1
 97 -19 98 -4 112 -4 c 0
 119 -4 128 -8 139 -15 c 1
 156 -47 179 -62 206 -62 c 0
 220 -62 239 -57 264 -47 c 2
 332 -20 l 2
 367 -7 389 0 399 -0 c 0
 415 0 434 -7 454 -19 c 1
 454 33 l 1
 443 32 430 31 417 31 c 0
 365 31 308 55 244 104 c 0
 218 125 194 146 174 168 c 0
 115 235 18 383 18 528 c 0
 18 546 24 557 42 557 c 0
 55 557 65 550 73 536 c 1
 115 388 l 1
 132 336 156 290 186 249 c 0
 264 144 345 91 429 91 c 0
 504 91 552 124 552 190 c 0
 552 227 537 258 505 276 c 0
 484 287 473 297 473 310 c 0
 473 321 479 336 495 351 c 0
 513 369 523 389 523 414 c 0
 523 472 475 519 415 519 c 0
 412 519 409 519 406 519 c 0
 399 519 391 519 385 515 c 0
 344 496 325 464 325 425 c 0
 325 407 329 386 337 362 c 1
 337 361 337 359 337 358 c 0
 337 339 330 330 310 330 c 0
 300 330 292 334 286 342 c 0
 273 366 266 392 266 419 c 0
EndSplineSet
Validated: 1
EndChar

StartChar: u0995_u09cd_u0995.cjct
Encoding: 65617 -1 97
GlifName: u0995_u09cd_u0995.cjct
Width: 583
GlyphClass: 3
Flags: HMW
LayerCount: 2
Fore
SplineSet
291 56 m 1
 291 219 l 1
 139 159 l 1
 291 56 l 1
364 210 m 2
 353 210 l 1
 353 3 l 2
 353 -10 340 -16 315 -16 c 0
 305 -16 297 -14 292 -10 c 2
 59 146 l 2
 52 151 48 157 48 166 c 0
 48 175 53 182 64 187 c 2
 292 285 l 1
 292 293 l 1
 42 429 l 2
 28 436 21 449 21 469 c 0
 21 476 22 481 25 486 c 1
 293 585 l 1
 293 610 l 1
 -5 610 l 1
 -5 673 l 1
 586 673 l 1
 586 610 l 1
 355 610 l 1
 355 594 l 1
 358 594 362 594 365 594 c 0
 421 594 472 564 496 522 c 0
 506 507 510 486 510 460 c 0
 510 403 484 338 431 337 c 0
 416 337 408 348 408 363 c 0
 408 372 411 380 418 387 c 1
 442 392 459 421 459 455 c 0
 459 469 459 483 451 495 c 0
 432 525 403 538 371 538 c 0
 366 538 360 538 355 537 c 1
 355 317 l 2
 355 312 355 308 353 304 c 1
 353 266 l 1
 383 266 412 258 435 248 c 0
 484 224 508 185 508 132 c 0
 508 75 481 9 428 9 c 0
 413 9 405 20 405 35 c 0
 405 44 409 52 416 59 c 1
 439 64 457 94 457 127 c 0
 457 141 454 154 448 167 c 1
 427 195 399 210 364 210 c 2
292 356 m 1
 292 363 l 1
 293 364 l 1
 293 524 l 1
 107 452 l 1
 292 356 l 1
EndSplineSet
Validated: 1
LCarets2: 2 0 0
Ligature2: "'cjct' Conjunct Forms in Bengali2 lookup 13" u0995 u09cd u0995
EndChar

StartChar: u0995_u09cd_u099f.cjct
Encoding: 65618 -1 98
GlifName: u0995_u09cd_u099f.cjct
Width: 553
GlyphClass: 3
Flags: HMW
LayerCount: 2
Fore
SplineSet
263 489 m 1
 118 431 l 1
 233 339 l 1
 245 367 256 417 263 489 c 1
325 562 m 1
 402 551 479 504 479 421 c 0
 479 388 465 352 439 315 c 0
 438 315 437 315 436 315 c 0
 417 315 396 325 396 343 c 0
 396 347 397 350 399 353 c 0
 415 380 423 403 423 424 c 0
 423 465 391 493 325 506 c 1
 326 498 326 490 326 481 c 0
 326 422 312 360 283 296 c 0
 250 223 210 176 162 154 c 1
 186 117 217 98 256 98 c 0
 318 98 379 151 379 213 c 0
 379 222 378 231 375 240 c 1
 383 248 392 253 402 253 c 0
 412 253 422 249 430 242 c 1
 433 229 434 216 434 203 c 0
 434 147 409 103 359 72 c 0
 331 54 294 39 251 39 c 0
 192 39 144 70 107 132 c 0
 101 142 99 151 99 160 c 0
 99 170 102 181 109 190 c 1
 155 215 188 246 209 283 c 1
 40 416 l 2
 34 421 31 427 31 434 c 0
 31 449 38 460 51 465 c 2
 263 551 l 1
 263 610 l 1
 -5 610 l 1
 -5 673 l 1
 364 673 l 1
 364 676 365 678 365 681 c 0
 365 721 317 735 270 737 c 0
 150 744 85 748 75 751 c 0
 5 769 -30 813 -30 884 c 0
 -30 885 -30 886 -30 887 c 1
 -30 889 l 1
 -24 901 -15 907 -3 907 c 0
 8 907 16 903 24 894 c 1
 24 822 68 794 140 794 c 0
 144 794 147 798 151 798 c 2
 266 798 l 1
 370 798 418 763 426 673 c 1
 555 673 l 1
 555 610 l 1
 325 610 l 1
 325 562 l 1
EndSplineSet
Validated: 1
LCarets2: 2 0 0
Ligature2: "'cjct' Conjunct Forms in Bengali2 lookup 13" u0995 u09cd u099f
EndChar

StartChar: u0995_u09cd_u09a4.cjct
Encoding: 65619 -1 99
GlifName: u0995_u09cd_u09a4.cjct
Width: 893
GlyphClass: 3
Flags: HMW
LayerCount: 2
Fore
SplineSet
688 270 m 2
 677 270 l 1
 667 275 662 283 662 293 c 0
 662 306 668 315 681 320 c 1
 685 320 688 320 692 320 c 0
 732 320 763 340 763 382 c 0
 763 389 763 395 761 401 c 0
 745 427 724 440 700 440 c 0
 669 440 635 420 598 381 c 0
 583 366 571 351 562 336 c 1
 561 341 l 1
 557 334 552 328 546 321 c 1
 589 283 611 239 611 189 c 0
 611 89 522 31 417 31 c 0
 365 31 308 55 244 104 c 0
 218 125 194 146 174 168 c 0
 115 235 18 383 18 528 c 0
 18 546 24 557 42 557 c 0
 55 557 65 550 73 536 c 1
 115 388 l 1
 132 336 156 290 186 249 c 0
 264 144 345 91 429 91 c 0
 504 91 552 124 552 190 c 0
 552 227 537 258 505 276 c 0
 484 287 473 297 473 310 c 0
 473 321 479 336 495 351 c 0
 513 369 523 389 523 414 c 0
 523 472 475 519 415 519 c 0
 412 519 409 519 406 519 c 0
 399 519 391 519 385 515 c 0
 344 496 325 464 325 425 c 0
 325 407 329 386 337 362 c 1
 337 361 337 359 337 358 c 0
 337 339 330 330 310 330 c 0
 300 330 292 334 286 342 c 0
 273 366 266 392 266 419 c 0
 266 503 331 576 414 576 c 0
 495 576 569 514 580 441 c 1
 608 470 l 1
 630 490 655 500 684 500 c 0
 755 500 817 452 817 382 c 0
 817 374 816 365 814 357 c 0
 799 299 757 270 688 270 c 2
894 610 m 1
 -13 610 l 1
 -13 673 l 1
 894 673 l 1
 894 610 l 1
EndSplineSet
Validated: 1
LCarets2: 2 0 0
Substitution2: "'salt' Stylistic Alternatives in Bengali2 lookup 17-1" u0995_u09cd_u09a4.salt
Ligature2: "'cjct' Conjunct Forms in Bengali2 lookup 13" u0995 u09cd u09a4
EndChar

StartChar: u0995_u09cd_u09a8.cjct
Encoding: 65620 -1 100
GlifName: u0995_u09cd_u09a8.cjct
Width: 584
GlyphClass: 3
Flags: HMW
LayerCount: 2
Fore
SplineSet
124 17 m 0
 75 17 10 107 10 159 c 0
 10 180 16 202 28 223 c 0
 54 270 94 293 146 293 c 0
 206 293 264 254 291 207 c 1
 291 292 l 1
 39 429 l 2
 25 436 18 449 18 469 c 0
 18 476 19 481 22 486 c 1
 291 585 l 1
 291 610 l 1
 -8 610 l 1
 -8 673 l 1
 583 673 l 1
 583 610 l 1
 353 610 l 1
 353 594 l 1
 356 594 360 594 363 594 c 0
 419 594 469 564 493 522 c 0
 503 507 507 486 507 460 c 0
 507 401 482 338 428 337 c 0
 413 337 405 348 405 363 c 0
 405 372 409 380 416 387 c 1
 439 392 457 423 457 455 c 0
 457 469 456 483 448 495 c 0
 429 525 400 538 368 538 c 0
 363 538 358 538 353 537 c 1
 353 29 l 2
 353 17 341 11 318 11 c 0
 299 11 291 17 291 29 c 0
 291 82 291 111 290 118 c 0
 286 151 275 177 258 194 c 0
 227 225 196 240 163 240 c 0
 113 240 66 201 66 148 c 0
 66 110 89 82 135 63 c 0
 142 60 146 55 146 46 c 0
 146 27 139 17 124 17 c 0
291 355 m 1
 291 524 l 1
 104 452 l 1
 291 355 l 1
EndSplineSet
Validated: 1
Ligature2: "'cjct' Conjunct Forms in Bengali2 lookup 13" u0995 u09cd u09a8
EndChar

StartChar: u0995_u09cd_u09ae.cjct
Encoding: 65621 -1 101
GlifName: u0995_u09cd_u09ae.cjct
Width: 699
GlyphClass: 3
Flags: HMW
LayerCount: 2
Fore
SplineSet
293 355 m 1
 293 524 l 1
 107 452 l 1
 293 355 l 1
373 225 m 0
 324 225 285 192 285 140 c 0
 285 97 309 74 357 71 c 1
 365 64 369 55 369 43 c 0
 369 28 363 18 350 13 c 1
 296 20 274 36 249 71 c 0
 231 100 223 128 223 158 c 0
 223 208 252 259 293 275 c 1
 293 292 l 1
 41 429 l 2
 27 436 20 449 20 469 c 0
 20 476 22 481 25 486 c 1
 293 585 l 1
 293 610 l 1
 -6 610 l 1
 -6 673 l 1
 695 673 l 1
 695 610 l 1
 619 610 l 1
 619 60 l 2
 619 47 609 41 589 41 c 0
 568 41 557 47 557 60 c 2
 557 101 l 2
 557 118 537 143 496 174 c 0
 452 208 411 225 373 225 c 0
355 282 m 1
 360 282 364 283 369 283 c 0
 447 283 533 230 557 173 c 1
 557 610 l 1
 355 610 l 1
 355 594 l 1
 358 594 362 594 365 594 c 0
 421 594 471 564 495 522 c 0
 505 507 510 486 510 460 c 0
 510 402 484 338 430 337 c 0
 415 337 407 348 407 363 c 0
 407 372 411 380 418 387 c 1
 442 392 459 421 459 455 c 0
 459 469 458 483 450 495 c 0
 431 525 402 538 370 538 c 0
 365 538 360 538 355 537 c 1
 355 282 l 1
EndSplineSet
Validated: 1
Ligature2: "'cjct' Conjunct Forms in Bengali2 lookup 13" u0995 u09cd u09ae
EndChar

StartChar: u0995_u09cd_u09b2.cjct
Encoding: 65622 -1 102
GlifName: u0995_u09cd_u09b2.cjct
Width: 582
GlyphClass: 3
Flags: HMW
LayerCount: 2
Fore
SplineSet
54 89 m 2
 64 89 l 1
 73 85 78 77 78 64 c 0
 78 38 66 34 41 34 c 0
 -34 34 -100 90 -100 164 c 0
 -100 233 -40 296 28 298 c 0
 65 298 100 283 133 252 c 1
 152 274 172 286 193 286 c 0
 229 286 261 260 288 209 c 1
 288 293 l 1
 39 429 l 2
 25 436 18 449 18 469 c 0
 18 476 19 481 22 486 c 1
 291 585 l 1
 291 610 l 1
 -8 610 l 1
 -8 673 l 1
 583 673 l 1
 583 610 l 1
 353 610 l 1
 353 594 l 1
 356 594 360 594 363 594 c 0
 419 594 469 564 493 522 c 0
 503 507 507 486 507 460 c 0
 507 401 482 338 428 337 c 0
 413 337 405 348 405 363 c 0
 405 372 409 380 416 387 c 1
 439 392 457 423 457 455 c 0
 457 469 456 483 448 495 c 0
 429 525 400 538 368 538 c 0
 363 538 358 538 353 537 c 1
 353 317 l 2
 353 312 352 308 350 304 c 1
 350 48 l 2
 350 39 340 35 319 35 c 0
 298 35 288 39 288 48 c 0
 288 94 280 135 262 170 c 0
 245 206 225 224 203 224 c 0
 185 224 169 212 154 188 c 0
 149 181 143 177 134 177 c 0
 124 177 115 181 107 189 c 1
 94 224 69 243 30 243 c 0
 -11 243 -46 208 -46 164 c 0
 -46 113 0 89 54 89 c 2
291 398 m 1
 291 524 l 1
 104 452 l 1
 288 356 l 1
 288 396 l 1
 291 398 l 1
EndSplineSet
Validated: 1
Ligature2: "'cjct' Conjunct Forms in Bengali2 lookup 13" u0995 u09cd u09b2
EndChar

StartChar: u0995_u09cd_u09b8.cjct
Encoding: 65623 -1 103
GlifName: u0995_u09cd_u09b8.cjct
Width: 746
GlyphClass: 3
Flags: HMW
LayerCount: 2
Fore
SplineSet
306 227 m 1
 306 502 l 1
 114 384 l 1
 306 227 l 1
465 283 m 0
 464 283 462 283 461 283 c 0
 444 283 428 299 428 318 c 0
 428 333 436 343 453 347 c 0
 482 354 497 377 497 415 c 0
 497 483 438 524 368 524 c 1
 368 179 l 1
 421 210 464 226 497 226 c 0
 533 226 570 209 607 175 c 1
 607 610 l 1
 368 610 l 1
 368 590 l 1
 428 589 476 570 511 534 c 1
 525 518 l 1
 547 489 558 454 558 414 c 0
 558 349 523 291 465 283 c 0
669 46 m 2
 669 33 650 22 631 22 c 0
 618 22 610 26 607 35 c 0
 580 119 544 161 501 161 c 0
 482 161 459 154 431 140 c 0
 419 134 391 118 346 91 c 0
 286 56 236 38 197 38 c 0
 136 38 90 79 57 162 c 0
 56 165 55 168 55 171 c 0
 55 187 70 201 90 201 c 0
 99 201 106 197 110 190 c 0
 139 127 168 95 199 95 c 0
 223 95 258 111 306 143 c 1
 41 364 l 2
 34 370 30 378 30 388 c 0
 30 399 35 408 44 414 c 2
 306 577 l 1
 306 610 l 1
 -6 610 l 1
 -6 673 l 1
 745 673 l 1
 745 610 l 1
 669 610 l 1
 669 46 l 2
EndSplineSet
Validated: 1
Ligature2: "'cjct' Conjunct Forms in Bengali2 lookup 13" u0995 u09cd u09b8
EndChar

StartChar: bn_ka_ssa.akhn_u09cd_u09a3.cjct
Encoding: 65624 -1 104
GlifName: bn_ka_ssa.akhn_u09cd_u09a3.cjct
Width: 833
GlyphClass: 3
Flags: HMW
LayerCount: 2
Fore
SplineSet
406 610 m 1
 397 600 393 590 393 580 c 0
 393 553 425 524 489 494 c 1
 489 610 l 1
 406 610 l 1
489 133 m 1
 489 430 l 1
 385 477 333 526 333 578 c 0
 333 588 334 599 338 610 c 1
 170 610 l 1
 182 591 188 570 188 548 c 0
 188 538 188 527 185 514 c 1
 230 508 268 490 301 460 c 0
 337 427 354 388 354 343 c 0
 354 319 348 294 336 269 c 1
 489 133 l 1
289 342 m 0
 289 400 236 456 177 456 c 0
 170 456 163 455 156 453 c 1
 135 420 104 392 63 368 c 0
 62 368 60 368 59 368 c 0
 38 368 25 376 25 397 c 0
 25 402 27 406 30 410 c 1
 70 430 129 489 129 545 c 0
 129 578 109 600 69 610 c 1
 -10 610 l 1
 -10 673 l 1
 833 673 l 1
 833 610 l 1
 546 610 l 1
 546 471 l 1
 604 451 652 427 690 396 c 0
 731 363 752 330 752 297 c 0
 752 254 717 216 645 185 c 0
 644 185 642 184 641 184 c 0
 627 184 614 201 614 217 c 0
 614 222 615 226 616 230 c 1
 665 251 688 275 688 300 c 0
 688 339 641 375 546 408 c 1
 546 156 l 1
 551 108 l 1
 551 -127 l 2
 551 -139 541 -145 521 -145 c 0
 500 -145 489 -138 489 -125 c 0
 489 -87 484 -61 473 -48 c 0
 444 -14 415 3 385 3 c 0
 358 3 333 -14 333 -43 c 0
 333 -63 346 -81 369 -97 c 0
 373 -100 375 -104 375 -111 c 0
 375 -129 368 -138 356 -138 c 0
 354 -138 353 -137 350 -136 c 0
 305 -112 283 -77 283 -31 c 0
 283 17 322 49 375 49 c 0
 420 49 457 31 489 -6 c 1
 489 44 l 1
 487 45 485 46 484 47 c 2
 295 221 l 1
 270 197 239 175 202 155 c 1
 186 157 167 171 167 191 c 0
 167 197 170 202 174 206 c 0
 250 249 289 294 289 342 c 0
EndSplineSet
Validated: 1
LCarets2: 2 0 0
Ligature2: "'cjct' Conjunct Forms in Bengali2 lookup 13" u0995_u09cd_u09b7.akhn u09cd u09a3
EndChar

StartChar: bn_ka_ssa.akhn_u09cd_u09ae.cjct
Encoding: 65625 -1 105
GlifName: bn_ka_ssa.akhn_u09cd_u09ae.cjct
Width: 750
GlyphClass: 3
Flags: HMW
LayerCount: 2
Fore
SplineSet
458 533 m 1
 516 518 576 480 576 412 c 0
 576 383 562 356 534 331 c 1
 531 331 528 331 525 331 c 0
 503 331 482 340 482 361 c 0
 482 363 482 365 483 368 c 1
 505 381 517 396 517 413 c 0
 517 435 497 455 458 473 c 1
 458 303 l 1
 473 306 487 307 498 307 c 0
 539 307 578 286 615 243 c 1
 615 610 l 1
 458 610 l 1
 458 533 l 1
479 39 m 1
 408 39 351 94 351 168 c 0
 351 198 359 226 378 251 c 1
 258 350 l 1
 239 335 213 320 178 305 c 1
 158 312 147 324 147 341 c 0
 147 347 150 352 155 357 c 1
 215 378 245 405 245 440 c 0
 245 476 205 505 165 505 c 0
 156 505 147 504 139 501 c 1
 105 472 80 452 62 440 c 1
 39 442 26 453 26 474 c 0
 26 479 28 484 30 490 c 1
 60 499 106 533 106 571 c 0
 106 591 92 604 63 610 c 1
 -10 610 l 1
 -10 673 l 1
 752 673 l 1
 752 610 l 1
 677 610 l 1
 677 54 l 2
 677 41 667 34 647 34 c 0
 630 34 620 39 615 47 c 1
 615 81 612 106 608 122 c 0
 598 163 581 196 557 221 c 0
 537 242 515 252 492 252 c 0
 449 252 406 215 406 171 c 0
 406 133 436 94 477 94 c 0
 481 94 485 94 489 95 c 1
 496 92 500 86 500 78 c 0
 500 63 492 50 479 39 c 1
396 610 m 1
 329 610 l 1
 328 605 327 601 327 597 c 0
 327 571 349 553 396 544 c 1
 396 610 l 1
166 561 m 1
 231 561 304 501 304 434 c 0
 304 421 300 408 294 395 c 1
 396 314 l 1
 396 485 l 1
 339 501 302 521 284 546 c 0
 273 561 268 577 268 596 c 0
 268 600 268 605 269 610 c 1
 156 610 l 1
 163 599 166 582 166 561 c 1
EndSplineSet
Validated: 1
Ligature2: "'cjct' Conjunct Forms in Bengali2 lookup 13" u0995_u09cd_u09b7.akhn u09cd u09ae
EndChar

StartChar: u0997_u09cd_u0997.cjct
Encoding: 65626 -1 106
GlifName: u0997_u09cd_u0997.cjct
Width: 509
GlyphClass: 3
Flags: HMW
LayerCount: 2
Fore
SplineSet
169 131 m 0
 169 156 156 185 131 185 c 0
 120 185 103 177 81 160 c 1
 74 157 67 156 62 156 c 0
 47 156 39 166 36 185 c 1
 52 278 99 307 183 339 c 0
 192 342 202 344 214 344 c 0
 245 344 277 335 307 318 c 0
 341 298 363 274 372 243 c 1
 372 289 l 1
 370 289 l 1
 370 439 l 2
 370 512 355 548 318 580 c 0
 290 604 257 616 220 616 c 0
 185 616 145 602 102 573 c 1
 179 567 218 538 218 485 c 0
 218 450 200 415 163 382 c 0
 148 369 133 358 116 349 c 0
 113 348 111 348 108 348 c 0
 92 348 79 360 79 377 c 0
 79 382 81 388 84 394 c 1
 132 421 155 451 155 484 c 0
 155 509 143 521 118 521 c 0
 103 521 86 514 68 500 c 0
 64 499 60 498 56 498 c 0
 37 498 27 507 23 526 c 1
 37 608 111 667 208 667 c 0
 210 667 211 667 213 667 c 0
 295 663 325 644 370 601 c 1
 370 636 395 673 432 673 c 2
 508 673 l 1
 508 610 l 1
 432 610 l 1
 432 382 l 1
 434 382 l 1
 434 42 l 2
 434 29 422 22 399 22 c 0
 380 22 372 28 372 39 c 2
 372 143 l 2
 372 211 292 272 229 281 c 0
 223 282 216 282 210 282 c 0
 169 282 135 265 106 230 c 1
 115 233 125 234 135 234 c 0
 199 234 234 176 234 124 c 0
 234 84 203 35 163 35 c 0
 149 35 131 49 131 67 c 0
 131 73 133 78 138 81 c 0
 159 94 169 111 169 131 c 0
EndSplineSet
Validated: 1
Ligature2: "'cjct' Conjunct Forms in Bengali2 lookup 13" u0997 u09cd u0997
EndChar

StartChar: u0997_u09cd_u09a4.cjct
Encoding: 65627 -1 107
GlifName: u0997_u09cd_u09a4.cjct
Width: 517
GlyphClass: 3
Flags: HMW
LayerCount: 2
Fore
SplineSet
298 81 m 0
 373 81 434 119 434 199 c 0
 434 246 417 275 385 289 c 1
 379 289 l 1
 379 290 l 1
 376 290 374 290 371 290 c 0
 330 290 308 261 304 202 c 1
 300 191 291 186 279 186 c 0
 266 186 256 191 246 202 c 1
 246 206 246 209 246 213 c 0
 246 288 295 341 368 349 c 0
 372 349 375 348 379 348 c 1
 379 439 l 2
 379 511 364 549 327 580 c 0
 299 604 266 616 229 616 c 0
 194 616 154 602 111 573 c 1
 188 567 227 538 227 485 c 0
 227 450 209 415 172 382 c 0
 157 369 142 358 125 349 c 0
 122 348 120 348 117 348 c 0
 101 348 88 360 88 377 c 0
 88 382 90 388 93 394 c 1
 141 421 164 451 164 484 c 0
 164 509 152 521 127 521 c 0
 112 521 95 514 77 500 c 0
 73 499 69 498 65 498 c 0
 46 498 36 507 32 526 c 1
 46 608 120 667 217 667 c 0
 219 667 220 667 222 667 c 0
 304 663 334 644 379 601 c 1
 379 636 404 673 441 673 c 2
 517 673 l 1
 517 610 l 1
 441 610 l 1
 441 322 l 1
 465 301 481 272 490 235 c 0
 494 221 496 206 496 192 c 0
 496 161 489 135 475 113 c 0
 436 51 378 20 303 20 c 0
 243 20 184 38 125 76 c 0
 66 114 24 161 -4 218 c 1
 -4 238 4 249 24 249 c 0
 31 249 40 247 48 243 c 1
 70 195 105 156 154 126 c 0
 202 96 250 81 298 81 c 0
EndSplineSet
Validated: 1
Ligature2: "'cjct' Conjunct Forms in Bengali2 lookup 13" u0997 u09cd u09a4
EndChar

StartChar: u0997_u09cd_u09a6.cjct
Encoding: 65628 -1 108
GlifName: u0997_u09cd_u09a6.cjct
Width: 648
GlyphClass: 3
Flags: HMW
LayerCount: 2
Fore
SplineSet
208 485 m 0
 208 450 189 415 152 382 c 0
 137 369 122 358 105 349 c 0
 103 349 100 348 98 348 c 0
 82 348 68 360 68 377 c 0
 68 382 70 388 73 394 c 1
 121 421 145 451 145 484 c 0
 145 509 132 521 107 521 c 0
 92 521 76 514 58 500 c 0
 54 499 49 498 45 498 c 0
 26 498 16 507 12 526 c 1
 27 609 100 667 198 667 c 0
 200 667 201 667 203 667 c 0
 286 663 314 644 359 601 c 1
 359 611 361 620 365 629 c 1
 365 651 375 663 394 666 c 1
 402 671 411 673 421 673 c 2
 498 673 l 1
 498 667 l 1
 647 667 l 1
 647 609 l 1
 640 609 608 610 553 611 c 1
 504 611 l 1
 421 611 l 1
 421 387 l 1
 438 408 462 431 494 456 c 0
 539 491 572 507 596 507 c 0
 599 507 602 506 604 506 c 0
 621 503 630 496 630 477 c 0
 630 476 630 475 630 474 c 1
 604 390 591 321 591 267 c 0
 591 208 605 148 632 87 c 1
 632 85 632 84 632 82 c 0
 632 69 625 60 610 60 c 2
 591 60 l 1
 560 124 544 191 544 260 c 0
 544 313 554 372 572 440 c 1
 516 414 465 372 421 314 c 1
 421 289 l 1
 359 289 l 1
 359 439 l 2
 359 512 344 548 307 580 c 0
 279 604 246 616 209 616 c 0
 174 616 134 602 91 573 c 1
 168 567 208 538 208 485 c 0
EndSplineSet
Validated: 1
LCarets2: 2 0 0
Ligature2: "'cjct' Conjunct Forms in Bengali2 lookup 13" u0997 u09cd u09a6
EndChar

StartChar: u0997_u09cd_u09a7.cjct
Encoding: 65629 -1 109
GlifName: u0997_u09cd_u09a7.cjct
Width: 625
GlyphClass: 3
Flags: HMW
LayerCount: 2
Fore
SplineSet
356 299 m 1
 241 234 l 1
 356 143 l 1
 356 299 l 1
357 601 m 1
 357 636 382 673 419 673 c 2
 624 673 l 1
 624 610 l 1
 419 610 l 1
 419 394 l 1
 439 402 456 406 472 406 c 0
 496 406 512 395 518 373 c 1
 521 352 l 1
 521 326 l 1
 521 190 l 1
 521 141 522 110 537 109 c 2
 566 109 l 1
 574 105 579 98 579 88 c 0
 579 78 574 69 565 59 c 1
 556 58 548 58 541 58 c 0
 525 58 513 60 505 64 c 0
 479 76 461 111 461 169 c 0
 461 175 469 182 469 188 c 2
 469 323 l 2
 469 330 469 336 469 341 c 0
 469 346 462 349 447 349 c 0
 431 349 422 346 419 339 c 1
 419 289 l 1
 418 289 l 1
 418 90 l 2
 418 74 405 66 378 66 c 0
 368 66 361 68 356 71 c 2
 180 214 l 2
 167 224 161 235 161 245 c 0
 161 252 165 258 173 263 c 2
 356 362 l 1
 356 435 l 1
 357 435 l 1
 357 439 l 2
 357 511 342 549 305 580 c 0
 277 604 244 616 207 616 c 0
 172 616 132 602 89 573 c 1
 166 567 205 538 205 485 c 0
 205 450 187 415 150 382 c 0
 135 369 120 358 103 349 c 0
 100 348 98 348 95 348 c 0
 79 348 66 360 66 377 c 0
 66 382 68 388 71 394 c 1
 119 421 142 451 142 484 c 0
 142 509 130 521 105 521 c 0
 90 521 73 514 55 500 c 0
 51 499 47 498 43 498 c 0
 24 498 14 507 10 526 c 1
 24 608 98 667 195 667 c 0
 197 667 198 667 200 667 c 0
 282 663 312 644 357 601 c 1
EndSplineSet
Validated: 1
LCarets2: 2 0 0
Ligature2: "'cjct' Conjunct Forms in Bengali2 lookup 13" u0997 u09cd u09a7
EndChar

StartChar: u0997_u09cd_u09a8.cjct
Encoding: 65630 -1 110
GlifName: u0997_u09cd_u09a8.cjct
Width: 500
GlyphClass: 3
Flags: HMW
LayerCount: 2
Fore
SplineSet
191 44 m 0
 142 44 78 134 78 186 c 0
 78 207 84 229 96 250 c 0
 122 297 161 320 213 320 c 0
 256 320 295 304 328 272 c 1
 344 255 l 2
 350 248 354 241 358 234 c 1
 358 413 l 1
 359 414 l 1
 359 439 l 2
 359 512 344 548 307 580 c 0
 279 604 246 616 209 616 c 0
 174 616 134 602 91 573 c 1
 168 567 208 538 208 485 c 0
 208 450 189 415 152 382 c 0
 137 369 122 358 105 349 c 0
 103 349 100 348 98 348 c 0
 82 348 68 360 68 377 c 0
 68 382 70 388 73 394 c 1
 121 421 145 451 145 484 c 0
 145 509 132 521 107 521 c 0
 92 521 76 514 58 500 c 0
 54 499 49 498 45 498 c 0
 26 498 16 507 12 526 c 1
 27 609 100 667 198 667 c 0
 200 667 201 667 203 667 c 0
 286 663 314 644 359 601 c 1
 359 636 384 673 421 673 c 2
 498 673 l 1
 498 610 l 1
 421 610 l 1
 421 289 l 1
 420 289 l 1
 420 56 l 2
 420 44 409 38 386 38 c 0
 367 38 358 44 358 56 c 0
 358 109 358 138 357 145 c 0
 353 178 343 204 326 221 c 0
 295 252 263 267 230 267 c 0
 181 267 134 227 134 175 c 0
 134 137 157 109 203 90 c 0
 210 87 213 82 213 73 c 0
 213 54 206 44 191 44 c 0
EndSplineSet
Validated: 1
Ligature2: "'cjct' Conjunct Forms in Bengali2 lookup 13" u0997 u09cd u09a8
EndChar

StartChar: u0997_u09cd_u09ae.cjct
Encoding: 65631 -1 111
GlifName: u0997_u09cd_u09ae.cjct
Width: 714
GlyphClass: 3
Flags: HMW
LayerCount: 2
Fore
SplineSet
409 411 m 1
 410 409 411 407 411 404 c 2
 411 304 l 1
 458 304 500 285 536 246 c 0
 551 230 563 212 573 192 c 1
 573 610 l 1
 409 610 l 1
 409 411 l 1
347 601 m 1
 347 636 372 673 409 673 c 2
 711 673 l 1
 711 610 l 1
 635 610 l 1
 635 60 l 2
 635 48 626 42 607 42 c 0
 584 42 573 48 573 61 c 2
 573 121 l 2
 573 137 556 160 521 191 c 0
 482 225 447 242 412 242 c 0
 370 242 346 213 346 166 c 0
 346 122 371 95 414 91 c 0
 423 90 427 82 427 66 c 0
 427 44 421 33 409 33 c 0
 408 33 408 33 407 33 c 0
 351 38 328 54 306 91 c 0
 286 123 280 157 280 186 c 0
 280 235 302 271 347 294 c 1
 347 439 l 2
 347 512 332 548 295 580 c 0
 267 604 234 616 197 616 c 0
 162 616 122 602 79 573 c 1
 156 567 195 538 195 485 c 0
 195 450 177 415 140 382 c 0
 125 369 110 358 93 349 c 0
 90 348 88 348 85 348 c 0
 69 348 56 360 56 377 c 0
 56 382 58 388 61 394 c 1
 109 421 132 451 132 484 c 0
 132 509 120 521 95 521 c 0
 80 521 63 514 45 500 c 0
 41 499 37 498 33 498 c 0
 14 498 4 507 0 526 c 1
 14 608 88 667 185 667 c 0
 187 667 188 667 190 667 c 0
 272 663 302 644 347 601 c 1
EndSplineSet
Validated: 1
Ligature2: "'cjct' Conjunct Forms in Bengali2 lookup 13" u0997 u09cd u09ae
EndChar

StartChar: u0997_u09cd_u09b2.cjct
Encoding: 65632 -1 112
GlifName: u0997_u09cd_u09b2.cjct
Width: 516
GlyphClass: 3
Flags: HMW
LayerCount: 2
Fore
SplineSet
139 104 m 2
 149 104 l 1
 158 100 164 92 164 79 c 0
 164 53 151 48 126 48 c 0
 51 48 -15 104 -15 178 c 0
 -15 248 45 311 113 313 c 0
 150 313 185 298 218 267 c 1
 237 289 257 300 278 300 c 0
 314 300 347 275 374 224 c 1
 374 411 l 1
 377 414 l 1
 377 439 l 2
 377 511 362 549 325 580 c 0
 297 604 264 616 227 616 c 0
 192 616 152 602 109 573 c 1
 186 567 225 538 225 485 c 0
 225 450 207 415 170 382 c 0
 155 369 140 358 123 349 c 0
 120 348 118 348 115 348 c 0
 99 348 86 360 86 377 c 0
 86 382 88 388 91 394 c 1
 139 421 162 451 162 484 c 0
 162 509 150 521 125 521 c 0
 110 521 93 514 75 500 c 0
 71 499 67 498 63 498 c 0
 44 498 34 507 30 526 c 1
 44 608 118 667 215 667 c 0
 217 667 218 667 220 667 c 0
 302 663 332 644 377 601 c 1
 377 636 402 673 439 673 c 2
 515 673 l 1
 515 610 l 1
 439 610 l 1
 439 289 l 1
 436 289 l 1
 436 63 l 2
 436 54 425 49 404 49 c 0
 383 49 374 54 374 63 c 0
 374 129 345 238 289 238 c 0
 271 238 254 226 239 202 c 0
 234 195 228 192 219 192 c 0
 209 192 200 196 192 204 c 1
 179 239 154 257 115 257 c 0
 74 257 39 224 39 179 c 0
 39 127 84 104 139 104 c 2
EndSplineSet
Validated: 1
Ligature2: "'cjct' Conjunct Forms in Bengali2 lookup 13" u0997 u09cd u09b2
EndChar

StartChar: u0999_u09cd_u0995.cjct
Encoding: 65633 -1 113
GlifName: u0999_u09cd_u0995.cjct
Width: 579
GlyphClass: 3
Flags: HMW
LayerCount: 2
Fore
SplineSet
287 123 m 1
 287 364 l 1
 126 270 l 1
 287 123 l 1
411 523 m 0
 433 523 449 530 461 544 c 0
 467 551 471 560 471 568 c 0
 471 581 465 595 453 610 c 1
 308 610 l 1
 320 582 337 559 360 542 c 0
 377 529 394 523 411 523 c 0
108 610 m 1
 138 581 l 1
 147 583 157 584 167 584 c 0
 198 584 230 575 264 556 c 1
 240 610 l 1
 108 610 l 1
287 432 m 1
 275 483 232 524 168 524 c 0
 137 524 115 515 100 497 c 1
 93 485 l 2
 89 477 87 468 87 459 c 0
 87 455 87 451 88 446 c 1
 85 437 77 432 65 432 c 0
 48 432 36 439 29 452 c 1
 30 497 47 533 81 558 c 1
 28 610 l 1
 -12 610 l 1
 -12 673 l 1
 575 673 l 1
 575 610 l 1
 526 610 l 1
 532 599 535 586 535 572 c 0
 535 513 484 457 425 457 c 0
 403 457 371 471 328 498 c 1
 349 446 l 1
 436 443 504 394 504 308 c 0
 504 247 467 192 412 182 c 0
 410 182 409 181 407 181 c 0
 395 181 388 194 388 210 c 0
 388 221 390 229 397 236 c 1
 426 236 445 268 445 302 c 0
 445 353 405 387 349 387 c 1
 349 57 l 2
 349 42 329 29 307 29 c 0
 298 29 292 31 287 35 c 2
 59 252 l 2
 53 257 49 265 49 274 c 0
 49 286 53 294 62 299 c 2
 287 432 l 1
EndSplineSet
Validated: 1
Ligature2: "'cjct' Conjunct Forms in Bengali2 lookup 13" u0999 u09cd u0995
Substitution2: "'salt' Stylistic Alternatives in Bengali2 lookup 17-1" u0999_u09cd_u0995.salt
EndChar

StartChar: u0999_u09cd_u0996.cjct
Encoding: 65634 -1 114
GlifName: u0999_u09cd_u0996.cjct
Width: 800
GlyphClass: 3
Flags: HMW
LayerCount: 2
Fore
SplineSet
247 563 m 0
 265 563 280 569 292 581 c 0
 299 588 303 595 303 602 c 0
 303 609 299 614 291 619 c 1
 246 619 233 603 221 569 c 1
 229 565 238 563 247 563 c 0
584 377 m 0
 584 306 539 241 482 218 c 1
 662 112 l 1
 662 610 l 2
 662 652 683 673 725 673 c 2
 799 673 l 1
 799 610 l 1
 724 610 l 1
 724 64 l 2
 724 43 710 33 682 33 c 0
 674 33 667 35 662 38 c 2
 403 197 l 1
 395 204 392 212 392 221 c 0
 392 232 397 244 411 250 c 0
 487 282 526 319 526 368 c 0
 526 387 522 407 512 429 c 1
 497 399 463 377 411 364 c 1
 395 301 341 243 267 243 c 0
 261 243 254 243 248 244 c 0
 182 251 127 293 83 369 c 0
 51 425 29 491 18 567 c 1
 23 578 32 584 45 584 c 0
 56 584 67 580 76 572 c 1
 90 508 103 463 114 438 c 0
 135 389 167 347 215 313 c 0
 227 305 241 303 255 303 c 0
 306 303 356 344 356 397 c 0
 356 411 353 424 345 437 c 1
 341 440 337 441 332 441 c 0
 324 441 283 424 211 390 c 1
 166 421 145 459 145 504 c 0
 145 535 156 570 177 610 c 1
 -8 610 l 1
 -8 673 l 1
 302 673 l 2
 329 673 358 629 358 599 c 0
 358 574 345 552 320 534 c 0
 299 519 277 511 255 511 c 0
 245 511 229 513 208 517 c 1
 207 510 206 502 206 496 c 0
 206 484 209 474 215 468 c 1
 231 472 257 479 290 492 c 0
 321 505 341 512 351 513 c 1
 384 488 405 459 413 427 c 1
 440 431 459 450 471 484 c 0
 477 501 487 510 503 510 c 0
 510 510 516 508 520 504 c 0
 563 473 584 431 584 377 c 0
EndSplineSet
Validated: 1
Ligature2: "'cjct' Conjunct Forms in Bengali2 lookup 13" u0999 u09cd u0996
EndChar

StartChar: u0999_u09cd_u0997.cjct
Encoding: 65635 -1 115
GlifName: u0999_u09cd_u0997.cjct
Width: 578
GlyphClass: 3
Flags: HMW
LayerCount: 2
Fore
SplineSet
451 526 m 0
 480 526 505 537 505 569 c 0
 505 581 501 595 493 610 c 1
 304 610 l 1
 313 583 334 565 362 549 c 0
 382 538 420 526 451 526 c 0
177 500 m 0
 130 500 86 454 86 405 c 0
 86 400 86 395 87 390 c 1
 80 381 71 377 59 377 c 0
 46 377 37 382 30 392 c 1
 30 394 30 397 30 399 c 0
 30 466 58 508 103 534 c 1
 51 610 l 1
 -6 610 l 1
 -6 673 l 1
 577 673 l 1
 577 610 l 1
 558 610 l 1
 561 600 563 588 563 575 c 0
 563 523 539 489 490 472 c 1
 497 465 508 455 523 443 c 1
 494 367 480 292 480 221 c 0
 480 166 490 100 511 22 c 0
 511 21 512 20 512 19 c 0
 512 7 488 -5 471 -5 c 0
 464 -5 459 -3 458 2 c 0
 434 92 422 171 422 240 c 0
 422 289 428 332 440 369 c 1
 232 197 l 2
 193 165 159 149 130 149 c 0
 97 149 68 170 43 211 c 0
 41 217 40 223 40 228 c 0
 40 244 48 252 63 252 c 0
 70 252 79 249 89 244 c 1
 107 219 124 206 140 206 c 0
 152 206 167 214 185 231 c 2
 239 281 l 1
 260 356 l 1
 264 375 266 391 266 403 c 0
 266 419 265 435 257 448 c 0
 237 484 208 500 177 500 c 0
180 557 m 0
 265 557 323 486 323 401 c 0
 323 381 320 362 314 342 c 1
 469 470 l 1
 458 468 447 467 436 467 c 0
 378 467 328 491 285 538 c 0
 265 559 250 583 238 610 c 1
 123 610 l 1
 161 556 l 1
 168 557 174 557 180 557 c 0
EndSplineSet
Validated: 1
Substitution2: "'salt' Stylistic Alternatives in Bengali2 lookup 17-1" u0999_u09cd_u0997.salt
Ligature2: "'cjct' Conjunct Forms in Bengali2 lookup 13" u0999 u09cd u0997
EndChar

StartChar: u099a_u09cd_u099b.cjct
Encoding: 65636 -1 116
GlifName: u099a_u09cd_u099b.cjct
Width: 851
GlyphClass: 3
Flags: HMW
LayerCount: 2
Fore
SplineSet
400 522 m 1
 400 324 l 2
 400 307 408 299 424 299 c 0
 451 299 486 317 529 353 c 0
 568 385 589 412 589 435 c 0
 589 446 585 459 572 466 c 2
 558 474 l 1
 546 479 530 483 511 486 c 0
 454 495 417 507 400 522 c 1
293 441 m 1
 290 463 264 478 215 485 c 0
 156 494 119 507 102 522 c 1
 102 274 l 1
 111 258 124 250 139 250 c 0
 169 250 203 276 242 327 c 0
 276 372 293 408 293 435 c 0
 293 436 293 438 293 439 c 1
 293 441 l 1
870 -28 m 2
 862 -28 l 1
 742 56 612 84 416 94 c 1
 406 102 401 114 401 127 c 0
 401 138 405 145 414 150 c 1
 521 162 552 167 614 214 c 0
 658 246 721 321 721 391 c 0
 721 436 695 466 643 480 c 1
 644 472 645 464 645 456 c 0
 645 401 618 352 564 309 c 0
 515 270 464 250 414 250 c 0
 363 250 338 273 338 318 c 2
 338 388 l 1
 327 351 306 314 275 279 c 0
 226 223 179 195 131 195 c 0
 80 195 40 231 40 308 c 2
 40 610 l 1
 -6 610 l 1
 -6 673 l 1
 388 673 l 1
 388 672 l 1
 392 673 396 673 400 673 c 2
 850 673 l 1
 850 610 l 1
 400 610 l 1
 400 585 426 565 479 552 c 0
 513 544 547 539 582 539 c 0
 598 539 611 540 620 542 c 1
 712 536 774 486 774 389 c 0
 774 335 754 283 716 232 c 0
 695 204 671 182 646 165 c 0
 627 154 603 143 572 134 c 1
 650 130 730 107 813 66 c 0
 843 51 870 36 894 19 c 1
 898 10 900 3 900 -4 c 0
 900 -20 890 -28 870 -28 c 2
338 610 m 1
 102 610 l 1
 102 559 213 537 285 537 c 0
 293 537 299 538 306 538 c 0
 307 538 307 538 308 538 c 0
 313 538 320 532 330 519 c 1
 338 505 l 1
 338 610 l 1
EndSplineSet
Validated: 1
LCarets2: 2 0 0
Ligature2: "'cjct' Conjunct Forms in Bengali2 lookup 13" u099a u09cd u099b
EndChar

StartChar: u099a_u09cd_u099e.cjct
Encoding: 65637 -1 117
GlifName: u099a_u09cd_u099e.cjct
Width: 633
GlyphClass: 3
Flags: HMW
LayerCount: 2
Fore
SplineSet
477 159 m 2
 477 150 l 1
 502 97 521 64 532 51 c 0
 544 35 562 24 584 24 c 0
 585 24 586 24 587 24 c 0
 616 24 631 39 631 62 c 0
 631 98 591 127 551 127 c 1
 535 131 527 140 527 154 c 0
 527 167 533 176 545 182 c 1
 581 185 618 209 618 248 c 0
 618 279 598 294 557 294 c 1
 531 288 510 268 495 234 c 0
 483 208 477 183 477 159 c 2
295 441 m 0
 292 462 266 477 217 485 c 0
 157 494 119 506 102 522 c 1
 102 294 l 1
 112 277 125 268 142 268 c 0
 173 268 207 290 244 335 c 0
 278 376 295 409 295 434 c 0
 295 436 295 439 295 441 c 0
102 610 m 1
 102 559 222 538 290 538 c 2
 307 538 l 1
 307 538 308 538 309 538 c 0
 312 538 315 536 319 532 c 2
 327 523 l 2
 342 505 350 481 350 452 c 0
 350 415 331 370 292 318 c 1
 335 336 367 345 390 348 c 0
 397 349 404 349 410 349 c 0
 432 349 449 344 461 332 c 2
 469 323 l 2
 475 315 477 304 477 292 c 1
 510 333 543 354 577 354 c 0
 628 354 677 294 677 243 c 0
 677 212 662 184 632 159 c 1
 669 132 687 100 687 63 c 0
 687 20 663 -11 616 -30 c 1
 610 -31 605 -31 600 -31 c 0
 586 -31 573 -30 561 -26 c 2
 542 -19 l 1
 521 -8 502 8 477 37 c 1
 477 -15 l 1
 415 -15 l 1
 385 12 348 26 303 26 c 0
 286 26 270 25 255 19 c 0
 231 9 208 3 185 3 c 0
 101 3 46 81 46 168 c 0
 46 180 47 192 49 204 c 1
 60 214 71 219 80 219 c 0
 89 219 98 213 106 200 c 1
 104 189 103 179 103 168 c 0
 103 109 127 62 184 62 c 0
 202 62 222 67 245 78 c 1
 261 82 277 84 294 84 c 0
 336 84 376 73 415 51 c 1
 415 270 l 2
 415 279 405 284 384 284 c 0
 338 284 273 252 273 207 c 0
 273 193 278 178 288 161 c 1
 288 159 288 158 288 156 c 0
 288 140 275 127 257 127 c 0
 249 127 242 130 236 136 c 1
 220 165 212 191 212 214 c 0
 212 225 214 236 217 246 c 1
 187 225 159 215 132 215 c 0
 81 215 40 251 40 328 c 2
 40 610 l 1
 -6 610 l 1
 -6 673 l 1
 633 673 l 1
 633 610 l 1
 102 610 l 1
EndSplineSet
Validated: 1
LCarets2: 2 0 0
Ligature2: "'cjct' Conjunct Forms in Bengali2 lookup 13" u099a u09cd u099e
EndChar

StartChar: u099c_u09cd_u099c.cjct
Encoding: 65638 -1 118
GlifName: u099c_u09cd_u099c.cjct
Width: 1117
GlyphClass: 3
Flags: HMW
LayerCount: 2
Fore
SplineSet
732 94 m 2
 742 94 l 1
 798 105 856 149 856 216 c 0
 856 252 838 282 803 306 c 1
 791 302 763 292 719 274 c 0
 685 259 657 252 635 252 c 1
 559 295 521 341 521 390 c 0
 521 417 532 448 554 482 c 1
 359 611 l 1
 291 595 227 542 227 461 c 0
 227 422 243 386 275 353 c 1
 411 407 l 1
 414 407 416 407 419 407 c 0
 455 407 481 381 500 356 c 0
 525 322 537 286 537 249 c 0
 537 234 534 222 529 211 c 1
 584 133 651 94 732 94 c 2
835 383 m 1
 893 368 937 308 937 233 c 0
 937 183 918 139 881 104 c 0
 846 72 805 52 756 52 c 0
 752 52 747 51 743 51 c 0
 661 51 589 91 527 169 c 1
 480 118 429 92 374 92 c 0
 362 92 350 93 338 95 c 0
 193 120 94 268 41 539 c 1
 46 554 56 562 73 562 c 0
 84 562 93 557 100 546 c 1
 109 463 135 381 178 301 c 0
 232 201 294 151 366 151 c 0
 434 151 502 201 502 274 c 0
 502 313 484 343 448 364 c 1
 435 362 411 353 376 336 c 0
 341 319 315 311 298 311 c 0
 286 311 275 314 266 321 c 0
 217 365 193 416 193 474 c 0
 193 531 216 582 262 627 c 1
 15 627 l 1
 15 690 l 1
 1142 690 l 1
 1142 627 l 1
 480 627 l 1
 599 526 l 1
 648 559 679 571 679 571 c 1
 710 556 l 1
 710 556 719 557 730 557 c 0
 745 557 766 556 776 551 c 0
 932 485 1029 456 1098 456 c 1
 1111 449 1118 439 1118 423 c 0
 1118 418 1117 414 1116 409 c 0
 1062 337 1035 268 1035 202 c 0
 1035 163 1046 114 1067 56 c 0
 1068 53 1069 50 1069 46 c 0
 1069 31 1059 24 1039 24 c 0
 1024 24 1014 29 1010 39 c 0
 989 92 978 143 978 193 c 0
 978 267 1001 339 1047 411 c 1
 1021 411 936 441 794 497 c 1
 709 532 l 2
 708 532 707 532 706 532 c 0
 693 532 667 505 658 493 c 0
 629 462 615 432 615 405 c 0
 615 372 636 347 679 330 c 1
 687 333 712 343 755 360 c 0
 786 373 813 380 835 383 c 1
EndSplineSet
Validated: 1
LCarets2: 2 0 0
Ligature2: "'cjct' Conjunct Forms in Bengali2 lookup 13" u099c u09cd u099c
EndChar

StartChar: u099c_u09cd_u099d.cjct
Encoding: 65639 -1 119
GlifName: u099c_u09cd_u099d.cjct
Width: 751
GlyphClass: 3
Flags: HMW
LayerCount: 2
Fore
SplineSet
488 233 m 1
 408 190 l 1
 488 121 l 1
 488 233 l 1
608 137 m 1
 608 610 l 1
 434 610 l 1
 526 542 l 2
 542 530 550 518 550 506 c 2
 550 179 l 1
 608 137 l 1
245 435 m 1
 296 452 335 467 362 478 c 0
 364 478 367 478 369 478 c 0
 382 478 391 474 399 466 c 0
 423 443 441 423 449 405 c 0
 457 388 461 369 461 349 c 0
 461 327 456 307 446 289 c 1
 488 308 l 1
 488 495 l 1
 330 612 l 1
 306 608 283 593 261 566 c 0
 237 535 224 506 223 477 c 0
 223 457 230 443 245 435 c 1
550 55 m 2
 550 42 527 31 508 31 c 0
 500 31 493 33 488 37 c 2
 339 173 l 1
 339 195 l 1
 324 192 310 191 297 191 c 0
 216 191 151 233 101 318 c 0
 66 378 42 452 30 540 c 1
 34 552 42 558 55 558 c 0
 65 558 75 555 85 549 c 1
 89 473 111 404 152 341 c 0
 194 276 240 243 291 243 c 0
 318 243 344 253 369 274 c 0
 396 299 411 325 412 352 c 0
 412 377 399 399 372 418 c 1
 372 418 271 378 247 373 c 0
 232 373 212 384 188 405 c 1
 171 432 162 459 162 486 c 0
 162 525 180 567 216 610 c 1
 -11 610 l 1
 -11 673 l 1
 751 673 l 1
 751 610 l 1
 670 610 l 1
 670 78 l 2
 670 66 648 56 628 56 c 0
 620 56 613 58 608 62 c 2
 550 110 l 1
 550 55 l 2
EndSplineSet
Validated: 1
LCarets2: 2 0 0
Ligature2: "'cjct' Conjunct Forms in Bengali2 lookup 13" u099c u09cd u099d
EndChar

StartChar: u099e_u09cd_u099a.cjct
Encoding: 65640 -1 120
GlifName: u099e_u09cd_u099a.cjct
Width: 761
GlyphClass: 3
Flags: HMW
LayerCount: 2
Fore
SplineSet
370 463 m 1
 138 321 l 1
 370 119 l 1
 370 463 l 1
30 512 m 0
 30 588 88 654 179 654 c 0
 236 654 300 633 370 590 c 1
 370 659 l 2
 370 671 380 677 401 677 c 0
 422 677 432 671 432 659 c 2
 432 53 l 2
 432 37 418 30 389 30 c 0
 380 30 373 31 370 35 c 2
 67 304 l 2
 61 309 58 317 58 327 c 0
 58 338 62 346 70 351 c 2
 370 530 l 1
 313 579 256 604 199 604 c 0
 139 604 91 573 91 512 c 0
 91 487 99 464 115 441 c 1
 105 420 92 410 77 410 c 0
 72 410 67 411 62 414 c 1
 41 446 30 478 30 512 c 0
621 565 m 0
 682 564 745 513 745 447 c 0
 745 412 727 380 693 352 c 1
 735 325 756 288 756 243 c 0
 756 193 728 160 673 145 c 0
 665 144 656 143 647 143 c 0
 563 143 492 205 433 330 c 1
 433 385 l 1
 457 436 478 473 496 495 c 0
 531 538 571 565 618 565 c 0
 619 565 620 565 621 565 c 0
689 251 m 0
 689 286 643 320 603 320 c 1
 587 329 579 339 579 350 c 0
 579 361 586 371 599 379 c 1
 637 384 677 411 677 454 c 0
 677 487 655 503 612 503 c 0
 587 503 562 485 538 448 c 0
 532 439 514 409 487 358 c 1
 504 315 527 278 556 248 c 0
 585 218 615 203 644 203 c 0
 649 203 654 204 660 205 c 0
 680 218 689 233 689 251 c 0
EndSplineSet
Validated: 1
Substitution2: "'salt' Stylistic Alternatives in Bengali2 lookup 17-1" u099e_u09cd_u099a.salt
Ligature2: "'cjct' Conjunct Forms in Bengali2 lookup 13" u099e u09cd u099a
EndChar

StartChar: u099e_u09cd_u099b.cjct
Encoding: 65641 -1 121
GlifName: u099e_u09cd_u099b.cjct
Width: 590
GlyphClass: 3
Flags: HMW
LayerCount: 2
Fore
SplineSet
227 414 m 1
 225 414 l 1
 187 389 142 365 90 340 c 1
 104 307 132 290 175 290 c 0
 221 290 249 305 260 335 c 1
 241 358 230 384 227 414 c 1
504 410 m 0
 504 432 480 454 456 457 c 0
 439 461 430 472 430 492 c 0
 430 505 436 516 449 524 c 1
 475 527 504 541 504 571 c 0
 504 594 486 606 451 607 c 0
 437 606 416 595 388 574 c 0
 360 553 342 535 334 519 c 1
 353 466 376 427 404 401 c 0
 423 383 443 374 463 374 c 0
 466 374 469 375 472 375 c 0
 493 383 504 395 504 410 c 0
569 415 m 0
 569 362 520 316 465 316 c 0
 393 316 335 366 292 465 c 1
 285 454 281 442 281 431 c 0
 281 411 291 391 312 369 c 0
 323 357 344 340 373 318 c 0
 397 300 410 288 413 281 c 0
 424 263 430 244 430 224 c 0
 430 189 414 158 382 131 c 0
 370 121 356 113 342 107 c 1
 449 56 471 38 581 -38 c 0
 590 -46 595 -56 595 -67 c 0
 595 -85 586 -94 568 -94 c 0
 562 -94 556 -93 549 -89 c 0
 461 -30 406 6 383 19 c 0
 324 52 263 76 201 91 c 1
 192 97 188 104 188 114 c 0
 188 129 196 141 211 149 c 1
 221 148 231 147 240 147 c 0
 294 147 369 179 369 230 c 0
 369 253 349 274 309 295 c 1
 272 251 229 229 180 229 c 0
 113 229 30 273 30 336 c 0
 30 347 33 359 39 371 c 1
 47 381 75 399 122 424 c 0
 177 455 214 478 235 493 c 0
 269 518 286 542 286 562 c 0
 286 566 285 569 284 573 c 0
 273 603 233 612 192 617 c 0
 189 617 187 617 184 617 c 0
 140 617 102 580 102 535 c 0
 102 513 111 498 129 491 c 1
 130 488 131 486 131 483 c 0
 131 468 112 447 93 447 c 0
 90 447 86 448 83 450 c 0
 56 471 42 498 42 532 c 0
 42 565 54 597 77 626 c 0
 101 656 129 672 160 675 c 0
 163 675 165 676 168 676 c 0
 216 676 256 666 288 647 c 0
 295 643 310 630 334 607 c 1
 379 646 421 666 458 666 c 0
 512 666 559 622 559 566 c 0
 559 536 547 512 524 493 c 1
 554 472 569 446 569 415 c 0
EndSplineSet
Validated: 1
Ligature2: "'cjct' Conjunct Forms in Bengali2 lookup 13" u099e u09cd u099b
EndChar

StartChar: u099e_u09cd_u099c.cjct
Encoding: 65642 -1 122
GlifName: u099e_u09cd_u099c.cjct
Width: 677
GlyphClass: 3
Flags: HMW
LayerCount: 2
Fore
SplineSet
547 357 m 0
 582 357 604 383 604 400 c 0
 604 425 581 443 534 452 c 0
 521 453 515 462 515 477 c 0
 515 492 521 503 532 508 c 1
 562 515 584 527 598 545 c 0
 605 554 608 565 608 575 c 0
 608 604 577 615 543 615 c 0
 497 615 465 599 441 577 c 0
 417 555 407 539 407 522 c 0
 407 519 407 516 408 513 c 0
 420 445 474 357 547 357 c 0
318 38 m 2
 306 38 l 1
 205 55 166 89 120 162 c 0
 59 259 44 318 20 463 c 1
 25 480 33 488 45 488 c 0
 54 488 66 482 77 472 c 1
 97 371 113 305 126 274 c 0
 153 208 188 159 228 128 c 0
 255 106 283 95 312 95 c 0
 375 95 411 138 411 206 c 0
 411 243 399 273 378 295 c 1
 365 290 342 278 309 258 c 0
 283 242 263 234 249 234 c 0
 220 234 197 262 178 317 c 0
 174 326 172 335 172 344 c 0
 172 370 194 399 238 433 c 0
 316 493 355 538 355 568 c 0
 355 586 344 602 319 610 c 0
 301 616 284 616 267 616 c 0
 221 616 188 602 167 574 c 1
 158 560 l 1
 152 543 l 2
 150 535 149 526 149 517 c 0
 149 495 156 472 167 450 c 1
 166 439 147 424 130 424 c 0
 125 424 120 425 115 429 c 1
 100 460 92 490 92 520 c 0
 92 618 170 675 273 675 c 0
 327 675 369 655 398 617 c 1
 440 655 486 674 536 674 c 0
 582 674 614 660 638 632 c 1
 648 618 l 1
 657 602 662 585 662 567 c 0
 662 533 647 505 616 482 c 1
 647 461 663 433 663 398 c 0
 663 361 646 333 612 313 c 0
 569 283 557 213 557 139 c 0
 557 89 575 30 612 -37 c 1
 606 -51 591 -58 567 -58 c 0
 564 -58 562 -58 559 -57 c 1
 518 16 498 80 498 137 c 0
 498 185 507 239 528 299 c 1
 432 327 394 372 359 463 c 1
 352 452 327 430 284 398 c 0
 249 371 230 348 230 329 c 0
 230 318 237 306 248 294 c 1
 257 297 279 309 316 330 c 0
 343 345 368 353 388 353 c 0
 393 353 398 352 404 351 c 1
 447 315 469 267 469 207 c 0
 469 115 408 38 318 38 c 2
EndSplineSet
Validated: 1
Ligature2: "'cjct' Conjunct Forms in Bengali2 lookup 13" u099e u09cd u099c
EndChar

StartChar: u099e_u09cd_u099d.pres
Encoding: 65643 -1 123
GlifName: u099e_u09cd_u099d.pres
Width: 687
GlyphClass: 3
Flags: HMW
LayerCount: 2
Fore
SplineSet
399 119 m 1
 399 225 l 1
 310 184 l 1
 399 119 l 1
637 364 m 0
 637 401 598 429 557 429 c 1
 542 433 534 442 534 456 c 0
 534 469 540 478 552 484 c 1
 588 487 625 511 625 550 c 0
 625 581 605 596 564 596 c 1
 537 590 512 570 490 536 c 0
 470 505 461 477 461 452 c 1
 484 404 506 372 527 353 c 0
 545 337 566 326 590 326 c 0
 591 326 592 326 593 326 c 0
 623 326 637 341 637 364 c 0
170 305 m 0
 85 305 31 379 31 469 c 0
 31 481 32 494 34 506 c 1
 45 516 55 521 64 521 c 0
 74 521 83 515 91 502 c 1
 89 491 88 480 88 470 c 0
 88 410 112 364 169 364 c 0
 187 364 207 369 230 380 c 1
 246 384 262 386 278 386 c 0
 320 386 360 375 399 353 c 1
 399 572 l 2
 399 602 386 616 361 616 c 0
 347 616 331 612 313 603 c 0
 276 586 258 564 258 539 c 0
 258 526 263 510 273 493 c 0
 273 491 273 490 273 488 c 0
 273 478 269 470 260 464 c 1
 250 460 l 2
 247 459 245 459 242 459 c 0
 234 459 227 462 221 468 c 1
 205 498 197 524 197 548 c 0
 197 564 200 579 207 592 c 0
 240 645 293 671 364 671 c 0
 403 671 430 659 447 637 c 1
 455 625 l 1
 459 616 461 605 461 594 c 1
 493 635 530 656 574 656 c 0
 611 656 642 638 665 603 c 0
 678 584 684 565 684 546 c 0
 684 515 669 486 638 461 c 1
 676 434 695 401 695 364 c 0
 695 321 672 290 625 272 c 1
 625 111 l 2
 625 96 615 89 594 89 c 0
 581 89 571 91 563 97 c 2
 461 169 l 1
 461 60 l 2
 461 43 448 35 422 35 c 0
 412 35 405 37 399 41 c 2
 234 168 l 2
 226 174 222 181 222 190 c 0
 222 201 228 210 241 216 c 2
 399 287 l 1
 369 314 332 328 287 328 c 0
 245 328 206 305 170 305 c 0
563 272 m 1
 520 287 486 309 461 339 c 1
 461 233 l 1
 563 162 l 1
 563 272 l 1
EndSplineSet
Validated: 1
Ligature2: "'cjct' Conjunct Forms in Bengali2 lookup 13" u099e u09cd u099d
EndChar

StartChar: u099f_u09cd_u099f.cjct
Encoding: 65644 -1 124
GlifName: u099f_u09cd_u099f.cjct
Width: 525
GlyphClass: 3
Flags: HMW
LayerCount: 2
Fore
SplineSet
204 294 m 2
 204 262 228 230 260 230 c 0
 263 230 265 230 268 231 c 0
 324 254 364 302 387 373 c 0
 390 386 392 398 392 406 c 0
 392 421 387 434 378 444 c 0
 372 451 358 463 336 480 c 0
 333 483 332 487 332 491 c 0
 332 507 353 524 373 524 c 1
 425 487 451 447 451 407 c 0
 451 376 435 331 403 272 c 1
 439 240 457 203 457 160 c 0
 457 78 384 40 294 40 c 0
 203 42 131 85 79 172 c 0
 58 206 42 245 29 289 c 0
 29 290 28 292 28 293 c 0
 28 305 51 313 68 313 c 0
 77 313 83 311 84 306 c 0
 98 257 110 223 121 204 c 0
 154 147 216 95 302 95 c 0
 339 95 367 104 385 123 c 0
 395 133 400 146 400 161 c 0
 400 182 388 205 365 229 c 1
 326 191 290 172 257 172 c 0
 255 172 252 172 250 172 c 0
 248 172 247 173 245 173 c 0
 176 193 142 235 142 297 c 2
 142 610 l 1
 -6 610 l 1
 -6 673 l 1
 405 673 l 1
 405 676 406 678 406 681 c 0
 406 705 390 722 359 729 c 1
 332 733 l 1
 282 733 l 1
 263 737 l 1
 203 738 161 741 137 745 c 0
 38 761 3 793 -7 894 c 1
 -5 903 3 908 16 908 c 0
 27 908 37 905 45 899 c 1
 57 812 107 797 212 797 c 2
 253 797 l 1
 324 794 374 786 403 773 c 0
 443 756 464 726 464 673 c 1
 526 673 l 1
 526 610 l 1
 204 610 l 1
 204 294 l 2
EndSplineSet
Validated: 1
LCarets2: 2 0 0
Ligature2: "'cjct' Conjunct Forms in Bengali2 lookup 13" u099f u09cd u099f
EndChar

StartChar: u09a1_u09cd_u09a1.cjct
Encoding: 65645 -1 125
GlifName: u09a1_u09cd_u09a1.cjct
Width: 1159
GlyphClass: 3
Flags: HMW
LayerCount: 2
Fore
SplineSet
12 538 m 0
 12 549 25 559 42 559 c 0
 51 559 59 556 65 550 c 1
 85 467 122 390 177 320 c 0
 236 246 295 209 352 209 c 0
 387 209 418 223 445 251 c 0
 475 282 490 320 490 366 c 0
 490 374 489 383 488 391 c 1
 481 408 476 426 470 444 c 0
 466 451 461 458 455 465 c 1
 420 426 397 401 385 391 c 0
 357 368 330 353 302 353 c 2
 295 353 l 1
 251 357 229 389 229 441 c 2
 229 610 l 1
 -12 610 l 1
 -12 673 l 1
 1156 673 l 1
 1156 610 l 1
 774 610 l 1
 774 353 l 1
 779 340 787 333 798 333 c 0
 816 333 840 347 869 376 c 0
 895 402 920 433 945 470 c 0
 949 477 956 480 965 480 c 0
 979 480 992 474 1003 463 c 0
 1055 414 1082 358 1082 296 c 0
 1082 264 1079 227 1062 190 c 0
 1016 86 943 36 857 35 c 0
 856 35 854 35 853 35 c 0
 787 35 725 60 664 109 c 0
 600 159 565 219 528 295 c 1
 522 274 513 255 502 237 c 0
 469 181 425 153 366 153 c 0
 189 153 67 361 16 522 c 0
 14 528 12 533 12 538 c 0
458 521 m 0
 459 521 460 521 460 521 c 1
 466 527 473 530 482 530 c 0
 492 530 500 526 507 519 c 1
 515 496 l 2
 516 493 518 491 520 489 c 0
 533 476 540 452 542 418 c 1
 564 358 586 314 603 281 c 0
 627 234 656 191 697 156 c 0
 746 115 797 94 849 94 c 0
 904 94 949 119 986 168 c 0
 1011 201 1023 240 1023 285 c 0
 1023 335 1009 377 979 412 c 1
 934 361 905 330 892 319 c 0
 858 290 823 272 788 272 c 0
 785 272 783 272 780 272 c 0
 735 276 712 316 712 382 c 2
 712 610 l 1
 292 610 l 1
 292 417 l 1
 296 406 302 401 311 401 c 0
 325 401 344 413 367 436 c 0
 388 457 408 481 428 511 c 1
 438 518 447 521 458 521 c 0
EndSplineSet
Validated: 1
Ligature2: "'cjct' Conjunct Forms in Bengali2 lookup 13" u09a1 u09cd u09a1
EndChar

StartChar: u09a3_u09cd_u099f.cjct
Encoding: 65646 -1 126
GlifName: u09a3_u09cd_u099f.cjct
Width: 759
GlyphClass: 3
Flags: HMW
LayerCount: 2
Fore
SplineSet
216 947 m 0
 216 854 303 831 409 831 c 0
 414 831 418 831 423 831 c 2
 558 831 l 1
 655 829 715 773 718 673 c 1
 760 673 l 1
 760 610 l 1
 413 610 l 1
 413 165 l 1
 420 113 439 87 468 87 c 0
 492 87 516 103 540 135 c 0
 597 212 625 271 625 313 c 0
 625 351 604 384 563 412 c 1
 561 417 560 421 560 426 c 0
 560 444 573 452 598 452 c 1
 656 423 685 376 685 311 c 0
 685 255 665 199 625 143 c 0
 585 87 539 50 488 32 c 0
 480 29 472 28 464 28 c 0
 407 28 351 95 351 152 c 2
 351 461 l 2
 351 551 296 619 205 619 c 0
 189 619 172 619 157 612 c 0
 112 591 92 555 92 510 c 0
 92 455 131 407 180 394 c 1
 185 386 187 379 187 372 c 0
 187 359 178 349 160 342 c 1
 92 358 30 423 30 506 c 0
 30 535 38 562 54 588 c 0
 90 647 140 676 203 676 c 0
 258 676 307 654 351 610 c 1
 351 642 378 673 413 673 c 2
 658 673 l 1
 658 677 658 680 658 684 c 0
 658 756 593 774 508 774 c 0
 491 774 457 767 407 767 c 0
 399 767 389 768 380 768 c 0
 294 772 234 802 200 837 c 0
 172 865 158 904 158 954 c 0
 158 960 159 966 159 973 c 1
 166 981 176 986 188 986 c 0
 199 986 210 981 218 973 c 1
 217 964 216 955 216 947 c 0
EndSplineSet
Validated: 1
LCarets2: 2 0 0
Ligature2: "'cjct' Conjunct Forms in Bengali2 lookup 13" u09a3 u09cd u099f
EndChar

StartChar: u09a3_u09cd_u09a0.cjct
Encoding: 65647 -1 127
GlifName: u09a3_u09cd_u09a0.cjct
Width: 621
GlyphClass: 3
Flags: HMW
LayerCount: 2
Fore
SplineSet
194 244 m 1
 196 165 235 96 314 96 c 0
 350 96 385 111 419 142 c 0
 463 181 485 234 485 299 c 0
 485 387 453 471 387 551 c 1
 388 542 388 533 388 524 c 0
 388 439 361 370 308 317 c 0
 278 288 240 263 194 244 c 1
149 353 m 1
 83 369 34 426 34 509 c 0
 34 607 107 683 205 683 c 0
 246 683 281 672 308 650 c 1
 226 791 l 1
 191 857 173 910 173 951 c 0
 173 1010 210 1044 282 1054 c 1
 299 1051 307 1041 307 1024 c 0
 307 1015 303 1006 297 998 c 1
 254 997 233 979 233 944 c 0
 233 908 258 848 307 765 c 2
 362 673 l 1
 620 673 l 1
 620 610 l 1
 417 610 l 1
 503 502 545 397 545 294 c 0
 545 194 500 116 408 59 c 0
 383 44 356 36 327 36 c 0
 274 36 228 55 190 93 c 0
 152 130 133 176 133 229 c 0
 133 258 140 279 155 292 c 1
 220 321 266 354 292 391 c 0
 316 425 329 466 329 516 c 0
 329 518 329 520 329 522 c 0
 315 569 290 600 255 616 c 0
 238 624 221 627 205 627 c 0
 166 627 130 607 110 578 c 1
 101 561 l 1
 94 544 89 527 89 507 c 0
 89 456 118 415 165 409 c 1
 172 403 175 395 175 386 c 0
 175 372 166 353 149 353 c 1
EndSplineSet
Validated: 1
Ligature2: "'cjct' Conjunct Forms in Bengali2 lookup 13" u09a3 u09cd u09a0
EndChar

StartChar: u09a3_u09cd_u09a1.cjct
Encoding: 65648 -1 128
GlifName: u09a3_u09cd_u09a1.cjct
Width: 694
GlyphClass: 3
Flags: HMW
LayerCount: 2
Fore
SplineSet
490 97 m 0
 563 97 625 136 625 208 c 0
 625 237 615 259 595 275 c 1
 582 283 l 1
 566 288 l 2
 550 292 542 305 542 316 c 0
 542 325 546 334 555 342 c 1
 601 365 625 398 625 442 c 0
 625 495 597 542 544 583 c 1
 544 500 l 1
 537 487 519 480 506 480 c 0
 497 480 490 484 483 491 c 1
 459 538 427 571 388 589 c 0
 368 598 347 603 325 603 c 0
 267 603 229 569 229 512 c 0
 229 509 229 506 229 502 c 0
 233 441 282 408 362 403 c 1
 369 398 374 390 374 377 c 0
 374 359 367 348 356 344 c 1
 256 352 204 387 176 461 c 0
 171 475 171 491 171 506 c 0
 171 568 196 615 248 644 c 0
 273 657 299 660 325 660 c 0
 379 660 435 637 488 590 c 1
 488 641 l 2
 489 656 500 664 520 664 c 0
 525 664 529 663 534 662 c 0
 583 634 620 599 647 555 c 0
 670 519 682 481 682 442 c 0
 682 395 663 355 627 321 c 1
 663 291 681 253 681 208 c 0
 681 164 665 127 634 94 c 1
 618 79 l 1
 593 59 565 43 534 42 c 0
 524 42 515 41 506 41 c 0
 446 41 400 50 365 60 c 0
 315 75 265 105 216 150 c 0
 117 241 51 371 16 542 c 1
 18 557 27 564 43 564 c 0
 52 564 61 561 69 556 c 1
 93 448 126 363 165 301 c 0
 196 252 236 208 286 168 c 0
 328 134 413 97 490 97 c 0
EndSplineSet
Validated: 1
LCarets2: 2 0 0
Ligature2: "'cjct' Conjunct Forms in Bengali2 lookup 13" u09a3 u09cd u09a1
EndChar

StartChar: u09a4_u09cd_u09a5.cjct
Encoding: 65649 -1 129
GlifName: u09a4_u09cd_u09a5.cjct
Width: 664
GlyphClass: 3
Flags: HMW
LayerCount: 2
Fore
SplineSet
412 488 m 0
 412 425 391 367 349 315 c 0
 332 294 313 276 292 261 c 1
 524 107 l 1
 524 610 l 2
 524 652 545 673 586 673 c 2
 663 673 l 1
 663 610 l 1
 586 610 l 1
 586 65 l 2
 586 40 577 27 556 27 c 0
 547 27 535 31 524 38 c 2
 208 244 l 2
 201 249 197 256 197 265 c 0
 197 284 207 295 225 299 c 0
 292 308 347 401 352 475 c 0
 352 479 353 484 353 488 c 0
 353 529 339 563 313 588 c 1
 297 566 285 542 276 519 c 0
 269 505 259 498 246 498 c 0
 226 498 212 509 212 533 c 0
 212 536 212 540 212 543 c 0
 212 579 183 610 146 610 c 0
 133 610 120 606 106 599 c 1
 83 579 72 559 72 537 c 0
 72 505 90 481 125 465 c 1
 132 458 136 450 136 441 c 0
 136 423 125 414 104 414 c 0
 100 414 96 415 91 416 c 0
 39 441 13 481 13 535 c 0
 13 591 43 634 107 662 c 0
 119 667 133 668 146 668 c 0
 186 668 222 648 255 607 c 1
 263 628 274 641 284 648 c 0
 292 653 306 657 327 661 c 1
 384 619 412 562 412 488 c 0
EndSplineSet
Validated: 1
Ligature2: "'cjct' Conjunct Forms in Bengali2 lookup 13" u09a4 u09cd u09a5
EndChar

StartChar: u09a4_u09cd_u09a8.cjct
Encoding: 65650 -1 130
GlifName: u09a4_u09cd_u09a8.cjct
Width: 455
GlyphClass: 3
Flags: HMW
LayerCount: 2
Fore
SplineSet
453 610 m 1
 -5 610 l 1
 -5 673 l 1
 453 673 l 1
 453 610 l 1
102 12 m 0
 53 12 -12 102 -12 154 c 0
 -12 175 -6 197 6 218 c 0
 32 265 72 288 124 288 c 0
 184 288 242 249 269 202 c 1
 269 331 l 1
 211 331 156 356 103 407 c 0
 55 452 14 511 14 567 c 0
 14 577 33 586 50 586 c 0
 61 586 66 583 67 576 c 0
 70 530 93 487 136 446 c 0
 180 405 221 385 259 385 c 0
 265 385 270 385 276 386 c 1
 331 421 l 1
 342 435 347 451 347 470 c 0
 347 496 335 520 312 540 c 0
 303 547 293 551 281 551 c 0
 260 551 243 543 230 527 c 1
 223 516 l 2
 219 508 217 498 217 489 c 0
 217 487 217 486 217 484 c 0
 217 482 218 481 218 480 c 0
 218 473 214 468 208 466 c 1
 197 464 l 1
 194 464 l 2
 171 464 159 479 159 509 c 0
 159 562 212 605 267 605 c 0
 342 605 405 545 405 469 c 0
 405 413 374 366 331 344 c 1
 331 24 l 2
 331 12 319 6 296 6 c 0
 277 6 269 12 269 24 c 0
 269 77 269 106 268 113 c 0
 264 146 253 172 236 189 c 0
 205 220 174 235 141 235 c 0
 91 235 44 196 44 143 c 0
 44 105 67 77 113 58 c 0
 120 55 124 50 124 41 c 0
 124 22 117 12 102 12 c 0
EndSplineSet
Validated: 1
LCarets2: 2 0 0
Ligature2: "'cjct' Conjunct Forms in Bengali2 lookup 13" u09a4 u09cd u09a8
EndChar

StartChar: u09a4_u09cd_u09ae.cjct
Encoding: 65651 -1 131
GlifName: u09a4_u09cd_u09ae.cjct
Width: 689
GlyphClass: 3
Flags: HMW
LayerCount: 2
Fore
SplineSet
157 509 m 0
 157 563 209 605 265 605 c 0
 339 605 402 544 402 469 c 0
 402 444 397 422 387 402 c 1
 387 304 l 1
 434 304 476 285 512 246 c 0
 527 230 539 212 549 192 c 1
 549 610 l 1
 -7 610 l 1
 -7 673 l 1
 687 673 l 1
 687 610 l 1
 611 610 l 1
 611 60 l 2
 611 48 602 42 583 42 c 0
 560 42 549 48 549 61 c 2
 549 121 l 2
 549 137 533 160 498 191 c 0
 459 225 423 242 388 242 c 0
 346 242 322 213 322 166 c 0
 322 122 347 95 390 91 c 0
 399 90 403 82 403 66 c 0
 403 44 397 33 385 33 c 0
 384 33 384 33 383 33 c 0
 327 38 304 54 282 91 c 0
 262 123 256 157 256 186 c 0
 256 235 279 272 325 295 c 1
 325 343 l 1
 308 335 288 331 267 331 c 0
 209 331 154 356 101 407 c 0
 53 452 12 511 12 567 c 0
 12 578 31 586 47 586 c 0
 58 586 63 583 64 576 c 0
 67 530 90 487 134 446 c 0
 177 405 218 385 256 385 c 0
 302 385 345 422 345 470 c 0
 345 501 320 551 278 551 c 0
 257 551 241 543 228 527 c 1
 220 516 l 1
 216 508 214 498 214 489 c 0
 214 487 214 486 214 484 c 0
 214 482 215 481 215 479 c 0
 215 473 212 468 206 466 c 1
 195 464 l 1
 191 464 l 2
 168 464 157 479 157 509 c 0
EndSplineSet
Validated: 1
LCarets2: 2 0 0
Ligature2: "'cjct' Conjunct Forms in Bengali2 lookup 13" u09a4 u09cd u09ae
EndChar

StartChar: u09a6_u09cd_u09a6.cjct
Encoding: 65652 -1 132
GlifName: u09a6_u09cd_u09a6.cjct
Width: 638
GlyphClass: 3
Flags: HMW
LayerCount: 2
Fore
SplineSet
81 253 m 0
 64 253 38 259 38 276 c 2
 38 610 l 1
 -8 610 l 1
 -8 673 l 1
 637 673 l 1
 637 610 l 1
 100 610 l 1
 100 355 l 1
 155 416 189 451 201 461 c 0
 242 497 285 517 329 522 c 0
 331 522 334 522 336 522 c 0
 355 522 361 514 364 496 c 0
 364 491 362 487 359 482 c 0
 323 416 306 357 306 307 c 0
 306 285 308 262 313 238 c 1
 375 340 451 396 542 409 c 0
 545 409 548 410 550 410 c 0
 563 410 569 403 573 392 c 0
 573 390 574 388 574 385 c 0
 574 381 573 377 572 373 c 0
 543 302 528 237 528 176 c 0
 528 128 568 50 568 -51 c 0
 568 -63 549 -76 533 -76 c 0
 526 -76 521 -74 520 -68 c 0
 490 51 475 136 475 187 c 0
 475 236 483 287 500 337 c 1
 429 305 373 239 331 139 c 1
 322 130 312 126 303 126 c 0
 293 126 284 131 278 141 c 1
 259 208 250 263 250 306 c 0
 250 350 258 395 277 441 c 1
 245 426 212 400 181 361 c 2
 100 259 l 2
 97 255 90 253 81 253 c 0
EndSplineSet
Validated: 1
Ligature2: "'cjct' Conjunct Forms in Bengali2 lookup 13" u09a6 u09cd u09a6
EndChar

StartChar: u09a6_u09cd_u09a7.cjct
Encoding: 65653 -1 133
GlifName: u09a6_u09cd_u09a7.cjct
Width: 539
GlyphClass: 3
Flags: HMW
LayerCount: 2
Fore
SplineSet
297 558 m 0
 341 558 379 499 379 453 c 2
 379 344 l 1
 398 351 414 356 429 356 c 0
 458 356 474 341 478 312 c 0
 479 301 479 288 479 275 c 2
 479 139 l 1
 479 90 479 60 494 59 c 2
 524 59 l 1
 532 55 536 48 536 38 c 0
 536 28 532 18 523 8 c 1
 516 8 509 7 503 7 c 0
 485 7 471 10 463 14 c 0
 434 27 420 68 420 137 c 0
 420 159 427 232 427 269 c 0
 427 273 427 277 427 280 c 0
 427 284 426 288 426 291 c 0
 426 296 419 299 404 299 c 0
 385 299 376 293 376 283 c 2
 376 40 l 2
 376 24 363 16 336 16 c 0
 326 16 319 18 314 21 c 2
 137 164 l 2
 124 174 118 185 118 195 c 0
 118 202 123 208 131 213 c 2
 316 312 l 1
 316 448 l 1
 317 448 l 1
 315 488 302 507 277 507 c 0
 250 507 212 485 165 442 c 0
 126 406 100 377 87 355 c 0
 82 354 78 353 72 353 c 0
 55 353 45 360 40 373 c 1
 40 610 l 1
 -6 610 l 1
 -6 671 l 1
 537 671 l 1
 537 607 l 1
 102 607 l 1
 102 446 l 1
 139 482 167 507 186 520 c 0
 222 546 256 559 286 559 c 0
 288 559 290 559 292 559 c 0
 294 559 295 558 297 558 c 0
314 249 m 1
 198 184 l 1
 314 92 l 1
 314 249 l 1
EndSplineSet
Validated: 1
LCarets2: 2 0 0
Ligature2: "'cjct' Conjunct Forms in Bengali2 lookup 13" u09a6 u09cd u09a7
EndChar

StartChar: u09a6_u09cd_u09ae.cjct
Encoding: 65654 -1 134
GlifName: u09a6_u09cd_u09ae.cjct
Width: 572
GlyphClass: 3
Flags: HMW
LayerCount: 2
Fore
SplineSet
434 610 m 1
 100 610 l 1
 100 371 l 1
 144 420 174 452 193 467 c 0
 230 497 271 520 316 525 c 0
 318 525 320 525 322 525 c 0
 339 525 348 513 348 495 c 0
 348 492 348 488 347 484 c 0
 320 439 307 400 307 367 c 0
 307 347 310 325 318 302 c 1
 361 302 400 282 434 242 c 1
 434 610 l 1
312 249 m 0
 272 249 236 218 233 177 c 0
 233 149 241 124 252 115 c 0
 259 109 275 104 301 98 c 0
 317 93 330 89 330 71 c 0
 330 55 321 45 304 40 c 1
 229 43 180 89 180 168 c 0
 180 226 209 267 264 292 c 1
 255 315 250 342 250 373 c 0
 250 402 255 426 266 446 c 1
 239 430 195 387 135 317 c 1
 100 274 l 2
 97 270 90 268 81 268 c 0
 64 268 38 275 38 292 c 2
 38 610 l 1
 -8 610 l 1
 -8 673 l 1
 572 673 l 1
 572 610 l 1
 496 610 l 1
 496 85 l 2
 496 62 485 50 465 50 c 0
 444 50 434 62 434 85 c 2
 434 117 l 1
 422 179 392 221 344 242 c 0
 334 247 323 249 312 249 c 0
EndSplineSet
Validated: 1
Ligature2: "'cjct' Conjunct Forms in Bengali2 lookup 13" u09a6 u09cd u09ae
EndChar

StartChar: u0998_u09cd_u09a8.cjct
Encoding: 65655 -1 135
GlifName: u0998_u09cd_u09a8.cjct
Width: 547
GlyphClass: 3
Flags: HMW
LayerCount: 2
Fore
SplineSet
139 420 m 1
 80 428 30 475 30 543 c 0
 30 565 36 588 47 610 c 1
 -9 610 l 1
 -9 673 l 1
 546 673 l 1
 546 610 l 1
 468 610 l 1
 468 62 l 2
 468 60 467 59 467 57 c 2
 467 -86 l 2
 467 -98 457 -104 437 -104 c 0
 416 -104 405 -96 405 -83 c 0
 405 -45 400 -20 389 -7 c 0
 360 27 331 44 301 44 c 0
 274 44 250 27 250 -2 c 0
 250 -22 262 -40 285 -56 c 0
 289 -59 291 -63 291 -70 c 0
 291 -88 285 -97 273 -97 c 0
 271 -97 269 -96 266 -95 c 0
 221 -71 199 -36 199 10 c 0
 199 59 237 90 291 90 c 0
 336 90 373 72 405 35 c 1
 405 46 l 1
 66 287 l 1
 57 291 52 298 52 307 c 0
 52 314 55 321 61 328 c 2
 139 420 l 1
86 548 m 0
 86 509 122 477 166 477 c 1
 209 484 l 1
 228 484 238 474 238 455 c 0
 238 448 235 441 230 435 c 2
 128 315 l 1
 405 122 l 1
 405 147 l 2
 405 148 406 148 406 149 c 2
 406 610 l 1
 129 610 l 1
 100 594 86 573 86 548 c 0
EndSplineSet
Validated: 1
Ligature2: "'cjct' Conjunct Forms in Bengali2 lookup 13" u0998 u09cd u09a8
EndChar

StartChar: u09a6_u09cd_u09ad.cjct
Encoding: 65656 -1 136
GlifName: u09a6_u09cd_u09ad.cjct
Width: 604
GlyphClass: 3
Flags: HMW
LayerCount: 2
Fore
SplineSet
255 347 m 1
 255 309 291 262 330 262 c 0
 342 262 355 266 368 274 c 1
 376 284 379 298 379 315 c 0
 379 320 378 325 378 330 c 2
 378 416 l 1
 378 439 382 459 391 475 c 1
 366 461 341 442 316 417 c 0
 308 408 287 385 255 347 c 1
379 96 m 0
 380 96 382 96 383 96 c 0
 448 96 499 143 499 211 c 0
 499 251 481 282 444 304 c 1
 440 302 l 1
 434 247 400 203 338 203 c 0
 322 203 305 207 287 214 c 0
 224 240 193 284 193 347 c 2
 193 610 l 1
 -6 610 l 1
 -6 673 l 1
 603 673 l 1
 603 610 l 1
 255 610 l 1
 255 429 l 1
 296 470 322 496 333 505 c 0
 360 526 392 542 429 553 c 0
 431 553 433 554 435 554 c 0
 451 554 467 544 467 528 c 0
 467 526 460 503 446 459 c 0
 438 434 434 414 434 398 c 0
 434 388 435 378 438 369 c 1
 491 348 527 316 545 271 c 0
 553 251 557 231 557 208 c 0
 557 160 540 120 505 87 c 1
 488 73 l 1
 453 48 413 37 372 37 c 0
 312 37 250 60 202 96 c 0
 120 157 62 244 30 360 c 0
 29 362 29 364 29 366 c 0
 29 379 42 386 58 386 c 0
 67 386 75 383 82 377 c 1
 124 249 185 164 266 123 c 0
 301 105 338 96 379 96 c 0
EndSplineSet
Validated: 1
LCarets2: 2 0 0
Ligature2: "'cjct' Conjunct Forms in Bengali2 lookup 13" u09a6 u09cd u09ad
EndChar

StartChar: u0995_u09cd_u09ac.cjct
Encoding: 65657 -1 137
GlifName: u0995_u09cd_u09ac.cjct
Width: 584
GlyphClass: 3
Flags: HMW
LayerCount: 2
Fore
SplineSet
289 100 m 1
 289 273 l 1
 156 203 l 1
 289 100 l 1
289 355 m 1
 289 524 l 1
 103 452 l 1
 289 355 l 1
505 460 m 0
 505 401 480 338 426 337 c 0
 411 337 403 348 403 363 c 0
 403 372 407 380 414 387 c 1
 437 392 455 423 455 455 c 0
 455 469 454 483 446 495 c 0
 427 525 398 538 366 538 c 0
 361 538 356 538 351 537 c 1
 351 47 l 2
 351 34 337 28 312 28 c 0
 302 28 295 30 290 34 c 2
 96 190 l 2
 89 196 86 202 86 210 c 0
 86 219 92 226 102 231 c 2
 254 311 l 1
 37 429 l 2
 23 436 16 449 16 469 c 0
 16 476 18 481 21 486 c 1
 289 585 l 1
 289 610 l 1
 -10 610 l 1
 -10 673 l 1
 582 673 l 1
 582 610 l 1
 351 610 l 1
 351 594 l 1
 354 594 358 594 361 594 c 0
 417 594 467 564 491 522 c 0
 501 507 505 486 505 460 c 0
EndSplineSet
Validated: 1
Ligature2: "'cjct' Conjunct Forms in Bengali2 lookup 13" u0995 u09cd u09f1
Ligature2: "'cjct' Conjunct Forms in Bengali2 lookup 13" u0995 u09cd u09ac
EndChar

StartChar: u0997_u09cd_u09ac.cjct
Encoding: 65658 -1 138
GlifName: u0997_u09cd_u09ac.cjct
Width: 512
GlyphClass: 3
Flags: HMW
LayerCount: 2
Fore
SplineSet
372 93 m 1
 372 266 l 1
 239 196 l 1
 372 93 l 1
375 601 m 1
 375 636 400 673 437 673 c 2
 513 673 l 1
 513 610 l 1
 437 610 l 1
 437 289 l 1
 434 289 l 1
 434 40 l 2
 434 27 421 21 396 21 c 0
 386 21 378 23 373 27 c 2
 179 183 l 2
 172 189 169 195 169 203 c 0
 169 212 175 219 185 224 c 2
 373 322 l 1
 373 400 l 1
 375 401 l 1
 375 439 l 2
 375 512 360 548 323 580 c 0
 295 604 262 616 225 616 c 0
 190 616 150 602 107 573 c 1
 184 567 223 538 223 485 c 0
 223 450 205 415 168 382 c 0
 153 369 138 358 121 349 c 0
 118 348 116 348 113 348 c 0
 97 348 84 360 84 377 c 0
 84 382 86 388 89 394 c 1
 137 421 160 451 160 484 c 0
 160 509 148 521 123 521 c 0
 108 521 91 514 73 500 c 0
 69 499 65 498 61 498 c 0
 42 498 32 507 28 526 c 1
 42 608 116 667 213 667 c 0
 215 667 216 667 218 667 c 0
 300 663 330 644 375 601 c 1
EndSplineSet
Validated: 1
Ligature2: "'cjct' Conjunct Forms in Bengali2 lookup 13" u0997 u09cd u09f1
Ligature2: "'cjct' Conjunct Forms in Bengali2 lookup 13" u0997 u09cd u09ac
EndChar

StartChar: u099b_u09cd_u09ac.cjct
Encoding: 65659 -1 139
GlifName: u099b_u09cd_u09ac.cjct
Width: 612
GlyphClass: 3
Flags: HMW
LayerCount: 2
Fore
SplineSet
423 -108 m 1
 423 7 l 1
 332 -42 l 1
 423 -108 l 1
152 524 m 1
 152 327 l 2
 152 310 160 301 176 301 c 0
 203 301 238 319 281 354 c 0
 321 388 341 416 341 438 c 0
 341 445 339 451 335 457 c 0
 325 473 301 482 263 488 c 0
 206 497 169 509 152 524 c 1
622 -25 m 2
 614 -25 l 1
 574 3 530 25 482 43 c 1
 484 40 485 37 485 34 c 2
 485 -136 l 2
 485 -151 461 -164 439 -164 c 0
 432 -164 427 -163 423 -160 c 2
 266 -50 l 1
 260 -43 257 -40 257 -37 c 0
 257 -34 263 -29 275 -22 c 2
 423 60 l 2
 424 61 426 61 427 61 c 1
 365 78 286 89 190 95 c 0
 183 96 176 97 168 97 c 1
 158 105 153 116 153 129 c 0
 153 140 157 147 166 152 c 1
 274 164 303 171 366 216 c 0
 411 249 473 324 473 394 c 0
 473 439 447 468 395 482 c 1
 396 474 397 466 397 458 c 0
 397 403 370 355 316 312 c 0
 267 273 216 252 166 252 c 0
 115 252 90 275 90 320 c 2
 90 604 l 1
 81 610 l 1
 -10 610 l 1
 -10 673 l 1
 612 673 l 1
 612 612 l 1
 152 612 l 1
 152 587 178 567 231 554 c 0
 265 546 299 542 334 542 c 0
 350 542 363 542 372 544 c 1
 463 538 526 489 526 392 c 0
 526 338 506 285 468 234 c 0
 447 206 423 184 398 167 c 0
 379 156 355 145 324 136 c 1
 402 132 482 110 565 69 c 0
 595 54 622 38 646 21 c 1
 650 12 652 6 652 -1 c 0
 652 -17 642 -25 622 -25 c 2
EndSplineSet
Validated: 1
Ligature2: "'cjct' Conjunct Forms in Bengali2 lookup 13" u099b u09cd u09f1
Ligature2: "'cjct' Conjunct Forms in Bengali2 lookup 13" u099b u09cd u09ac
EndChar

StartChar: u099c_u09cd_u09ac.cjct
Encoding: 65660 -1 140
GlifName: u099c_u09cd_u09ac.cjct
Width: 815
GlyphClass: 3
Flags: HMW
LayerCount: 2
Fore
SplineSet
721 -66 m 1
 688 17 l 1
 632 -37 l 1
 721 -66 l 1
533 431 m 2
 540 431 l 1
 593 392 620 342 620 280 c 0
 620 208 587 153 520 116 c 0
 476 92 432 80 388 80 c 1
 280 104 l 1
 223 129 175 171 134 228 c 0
 80 304 44 400 30 516 c 0
 30 519 29 521 29 523 c 0
 29 539 39 547 53 547 c 0
 63 547 74 541 84 530 c 1
 91 429 125 338 184 257 c 0
 245 174 313 133 387 133 c 0
 434 133 479 152 521 189 c 0
 548 214 562 245 562 281 c 0
 562 318 548 351 519 379 c 1
 507 376 477 363 429 342 c 0
 392 326 362 317 338 316 c 1
 280 341 251 382 251 441 c 0
 251 499 275 555 324 610 c 1
 -6 610 l 1
 -6 673 l 1
 819 673 l 1
 819 610 l 1
 540 610 l 1
 767 471 l 1
 778 468 783 460 783 448 c 0
 783 442 782 438 779 434 c 0
 735 330 713 244 713 177 c 0
 713 113 731 50 762 -15 c 0
 779 -49 789 -78 797 -101 c 1
 792 -120 791 -133 777 -133 c 0
 774 -133 770 -133 765 -131 c 2
 564 -63 l 1
 555 -51 551 -42 551 -37 c 0
 551 -30 555 -23 564 -16 c 2
 670 78 l 1
 656 119 649 158 649 194 c 0
 649 229 656 267 669 308 c 0
 674 324 691 366 719 434 c 1
 431 614 l 1
 378 588 309 517 309 444 c 0
 309 412 323 388 350 372 c 0
 351 372 382 385 444 410 c 0
 478 424 508 431 533 431 c 2
EndSplineSet
Validated: 1
Ligature2: "'cjct' Conjunct Forms in Bengali2 lookup 13" u099c u09cd u09f1
Ligature2: "'cjct' Conjunct Forms in Bengali2 lookup 13" u099c u09cd u09ac
EndChar

StartChar: u09a3_u09cd_u09ac.cjct
Encoding: 65661 -1 141
GlifName: u09a3_u09cd_u09ac.cjct
Width: 464
GlyphClass: 3
Flags: HMW
LayerCount: 2
Fore
SplineSet
329 71 m 1
 329 244 l 1
 196 174 l 1
 329 71 l 1
326 497 m 1
 317 550 264 595 200 595 c 0
 173 595 150 589 131 572 c 0
 105 548 93 519 93 490 c 0
 93 442 130 398 179 398 c 0
 180 398 181 398 182 398 c 0
 189 392 192 384 192 374 c 0
 192 359 184 348 168 342 c 1
 97 354 38 409 38 491 c 0
 38 528 51 562 76 594 c 0
 106 631 146 650 197 650 c 0
 201 650 204 650 208 650 c 0
 260 648 299 634 326 607 c 1
 326 619 l 2
 326 655 347 673 388 673 c 2
 464 673 l 1
 464 610 l 1
 388 610 l 1
 388 416 l 1
 391 417 l 1
 391 18 l 2
 391 5 378 -1 353 -1 c 0
 343 -1 335 1 330 5 c 2
 136 161 l 2
 129 167 126 173 126 181 c 0
 126 190 132 197 142 202 c 2
 326 298 l 1
 326 497 l 1
EndSplineSet
Validated: 1
Ligature2: "'cjct' Conjunct Forms in Bengali2 lookup 13" u09a3 u09cd u09ac
Ligature2: "'cjct' Conjunct Forms in Bengali2 lookup 13" u09a3 u09cd u09f1
EndChar

StartChar: u09a4_u09cd_u09ac.cjct
Encoding: 65662 -1 142
GlifName: u09a4_u09cd_u09ac.cjct
Width: 453
GlyphClass: 3
Flags: HMW
LayerCount: 2
Fore
SplineSet
276 66 m 1
 276 239 l 1
 144 169 l 1
 276 66 l 1
453 610 m 1
 -5 610 l 1
 -5 673 l 1
 453 673 l 1
 453 610 l 1
159 509 m 0
 159 562 212 605 267 605 c 0
 342 605 405 545 405 469 c 0
 405 417 378 370 338 348 c 1
 338 13 l 2
 338 0 325 -6 300 -6 c 0
 290 -6 282 -4 277 0 c 2
 83 156 l 2
 76 162 74 168 74 176 c 0
 74 185 79 192 89 197 c 2
 277 295 l 1
 277 331 l 1
 269 331 l 2
 211 331 156 356 103 407 c 0
 55 452 14 511 14 567 c 0
 14 577 33 586 50 586 c 0
 61 586 66 583 67 576 c 0
 70 530 93 487 136 446 c 0
 180 405 221 385 259 385 c 0
 305 385 347 422 347 470 c 0
 347 496 335 520 312 540 c 0
 303 547 293 551 281 551 c 0
 260 551 243 543 230 527 c 1
 223 516 l 2
 219 508 217 498 217 489 c 0
 217 487 217 486 217 484 c 0
 217 482 218 481 218 480 c 0
 218 473 214 468 208 466 c 1
 197 464 l 1
 194 464 l 2
 171 464 159 479 159 509 c 0
EndSplineSet
Validated: 1
LCarets2: 2 0 0
Ligature2: "'cjct' Conjunct Forms in Bengali2 lookup 13" u09a4 u09cd u09ac
Ligature2: "'cjct' Conjunct Forms in Bengali2 lookup 13" u09a4 u09cd u09f1
EndChar

StartChar: u09a6_u09cd_u09ac.cjct
Encoding: 65663 -1 143
GlifName: u09a6_u09cd_u09ac.cjct
Width: 456
GlyphClass: 3
Flags: HMW
LayerCount: 2
Fore
SplineSet
315 81 m 1
 315 253 l 1
 183 184 l 1
 315 81 l 1
315 310 m 1
 315 320 l 1
 315 359 315 398 315 437 c 0
 315 484 302 507 275 507 c 0
 248 507 210 485 163 442 c 0
 124 406 98 377 85 355 c 1
 80 354 76 353 70 353 c 0
 53 353 43 360 38 373 c 1
 38 610 l 1
 -8 610 l 1
 -8 673 l 1
 453 673 l 1
 453 610 l 1
 100 610 l 1
 100 446 l 1
 142 487 175 514 198 529 c 0
 230 550 259 558 286 558 c 0
 289 558 292 558 295 558 c 0
 318 556 335 546 351 524 c 0
 366 503 377 480 377 453 c 0
 377 311 377 169 377 27 c 0
 377 14 364 8 339 8 c 0
 329 8 321 11 316 15 c 2
 123 170 l 2
 116 176 113 182 113 190 c 0
 113 199 118 206 128 211 c 2
 315 310 l 1
EndSplineSet
Validated: 1
LCarets2: 2 0 0
Ligature2: "'cjct' Conjunct Forms in Bengali2 lookup 13" u09a6 u09cd u09ac
Ligature2: "'cjct' Conjunct Forms in Bengali2 lookup 13" u09a6 u09cd u09f1
EndChar

StartChar: u09a7_u09cd_u09ac.cjct
Encoding: 65664 -1 144
GlifName: u09a7_u09cd_u09ac.cjct
Width: 825
GlyphClass: 3
Flags: HMW
LayerCount: 2
Fore
SplineSet
688 128 m 1
 688 500 l 1
 442 347 l 1
 688 128 l 1
328 121 m 1
 328 495 l 1
 83 344 l 1
 328 121 l 1
390 610 m 1
 390 382 l 1
 688 564 l 1
 688 610 l 1
 390 610 l 1
9 558 m 0
 9 606 32 638 79 657 c 0
 103 666 131 671 163 671 c 1
 175 668 181 659 181 646 c 0
 181 629 175 618 164 612 c 1
 99 612 67 595 67 562 c 0
 67 555 69 546 72 538 c 0
 95 499 129 480 174 480 c 0
 181 480 189 481 196 482 c 1
 328 564 l 1
 328 673 l 1
 825 673 l 1
 825 610 l 1
 750 610 l 1
 750 62 l 1
 746 47 733 39 714 39 c 0
 703 39 695 42 688 49 c 2
 390 320 l 1
 390 53 l 2
 390 42 377 37 352 37 c 0
 342 37 334 39 328 42 c 1
 18 328 l 2
 14 333 12 339 12 347 c 0
 12 359 16 370 25 380 c 1
 115 432 l 1
 63 455 28 489 11 534 c 0
 10 542 9 550 9 558 c 0
EndSplineSet
Validated: 1
Ligature2: "'cjct' Conjunct Forms in Bengali2 lookup 13" u09a7 u09cd u09f1
Ligature2: "'cjct' Conjunct Forms in Bengali2 lookup 13" u09a7 u09cd u09ac
EndChar

StartChar: u09a8_u09cd_u09ac.cjct
Encoding: 65665 -1 145
GlifName: u09a8_u09cd_u09ac.cjct
Width: 441
GlyphClass: 3
Flags: HMW
LayerCount: 2
Fore
SplineSet
300 90 m 1
 300 263 l 1
 168 193 l 1
 300 90 l 1
304 437 m 1
 296 487 246 529 185 529 c 0
 152 529 124 517 103 493 c 0
 97 486 94 476 94 465 c 0
 94 433 117 401 146 391 c 1
 149 385 150 379 150 373 c 0
 150 353 142 343 125 343 c 1
 80 361 38 406 38 468 c 0
 38 494 46 515 61 531 c 0
 92 564 130 580 177 580 c 0
 227 580 269 563 304 529 c 1
 304 610 l 1
 -8 610 l 1
 -8 673 l 1
 441 673 l 1
 441 610 l 1
 366 610 l 1
 366 291 l 1
 362 291 l 1
 362 37 l 2
 362 24 349 18 324 18 c 0
 314 18 306 20 301 24 c 2
 108 180 l 2
 101 186 98 192 98 200 c 0
 98 209 103 216 113 221 c 2
 301 319 l 1
 301 397 l 1
 304 399 l 1
 304 437 l 1
EndSplineSet
Validated: 1
Ligature2: "'cjct' Conjunct Forms in Bengali2 lookup 13" u09a8 u09cd u09f1
Ligature2: "'cjct' Conjunct Forms in Bengali2 lookup 13" u09a8 u09cd u09ac
EndChar

StartChar: u09aa_u09cd_u09ac.cjct
Encoding: 65666 -1 146
GlifName: u09aa_u09cd_u09ac.cjct
Width: 541
GlyphClass: 3
Flags: HMW
LayerCount: 2
Fore
SplineSet
403 93 m 1
 403 266 l 1
 271 196 l 1
 403 93 l 1
308 567 m 1
 276 599 242 616 206 616 c 0
 170 616 138 599 109 566 c 1
 199 458 l 1
 308 567 l 1
401 607 m 2
 401 640 427 670 463 670 c 2
 539 670 l 1
 539 607 l 1
 463 607 l 1
 463 438 l 1
 465 439 l 1
 465 40 l 2
 465 27 452 21 427 21 c 0
 417 21 409 23 404 27 c 2
 210 183 l 2
 203 189 201 195 201 203 c 0
 201 212 206 219 216 224 c 2
 401 320 l 1
 401 439 l 2
 401 475 380 520 346 526 c 1
 167 351 l 2
 166 351 165 351 164 351 c 0
 149 351 130 369 130 387 c 0
 130 388 130 389 130 390 c 1
 161 422 l 1
 76 521 l 1
 67 506 59 493 54 483 c 0
 51 480 47 479 42 479 c 0
 21 479 10 490 8 511 c 1
 60 614 128 666 213 666 c 0
 246 666 274 659 297 644 c 0
 350 609 385 575 401 542 c 1
 401 607 l 2
EndSplineSet
Validated: 1
LCarets2: 2 0 0
Ligature2: "'cjct' Conjunct Forms in Bengali2 lookup 13" u09aa u09cd u09f1
Ligature2: "'cjct' Conjunct Forms in Bengali2 lookup 13" u09aa u09cd u09ac
EndChar

StartChar: u09ac_u09cd_u09ac.cjct
Encoding: 65667 -1 147
GlifName: u09ac_u09cd_u09ac.cjct
Width: 835
GlyphClass: 3
Flags: HMW
LayerCount: 2
Fore
SplineSet
696 128 m 1
 696 500 l 1
 451 347 l 1
 696 128 l 1
342 128 m 1
 342 500 l 1
 97 347 l 1
 342 128 l 1
404 610 m 1
 404 385 l 1
 696 564 l 1
 696 610 l 1
 404 610 l 1
404 314 m 1
 404 62 l 1
 400 47 388 39 369 39 c 0
 358 39 349 42 342 49 c 2
 31 332 l 2
 25 337 22 343 22 352 c 0
 22 363 26 371 33 375 c 2
 342 564 l 1
 342 610 l 1
 -13 610 l 1
 -13 673 l 1
 833 673 l 1
 833 610 l 1
 758 610 l 1
 758 62 l 1
 754 47 742 39 723 39 c 0
 712 39 703 42 696 49 c 2
 404 314 l 1
EndSplineSet
Validated: 1
Ligature2: "'cjct' Conjunct Forms in Bengali2 lookup 13" u09ac u09cd u09f1
Ligature2: "'cjct' Conjunct Forms in Bengali2 lookup 13" u09ac u09cd u09ac
EndChar

StartChar: u09b6_u09cd_u09ac.cjct
Encoding: 65668 -1 148
GlifName: u09b6_u09cd_u09ac.cjct
Width: 541
GlyphClass: 3
Flags: HMW
LayerCount: 2
Fore
SplineSet
396 66 m 1
 396 239 l 1
 263 169 l 1
 396 66 l 1
399 545 m 2
 399 588 332 610 279 610 c 0
 242 610 203 574 203 535 c 0
 203 476 240 446 315 443 c 0
 319 441 321 436 321 427 c 0
 321 408 317 395 310 389 c 1
 304 389 299 388 293 388 c 0
 233 388 188 413 162 461 c 1
 144 426 120 404 91 393 c 0
 77 388 59 386 37 386 c 2
 13 386 l 1
 6 391 3 400 3 412 c 0
 3 425 5 434 11 441 c 1
 71 444 110 470 120 520 c 0
 121 526 122 531 122 537 c 0
 122 574 97 605 61 609 c 0
 57 610 36 610 -1 610 c 0
 -9 610 -13 621 -13 643 c 0
 -13 663 -9 673 -1 673 c 0
 42 673 71 671 85 667 c 0
 114 658 139 634 161 597 c 1
 179 625 195 643 211 653 c 0
 227 663 250 670 279 673 c 0
 282 673 286 674 290 674 c 0
 331 674 386 649 399 622 c 1
 399 645 434 673 461 673 c 2
 537 673 l 1
 537 610 l 1
 461 610 l 1
 461 383 l 2
 461 379 460 377 458 375 c 1
 458 13 l 2
 458 0 444 -6 419 -6 c 0
 409 -6 401 -4 396 0 c 2
 203 156 l 2
 196 162 193 168 193 176 c 0
 193 185 198 192 208 197 c 2
 396 295 l 1
 396 373 l 1
 401 376 l 1
 399 378 399 380 399 383 c 2
 399 545 l 2
EndSplineSet
Validated: 1
Ligature2: "'cjct' Conjunct Forms in Bengali2 lookup 13" u09b6 u09cd u09f1
Ligature2: "'cjct' Conjunct Forms in Bengali2 lookup 13" u09b6 u09cd u09ac
EndChar

StartChar: u09b8_u09cd_u09ac.cjct
Encoding: 65669 -1 149
GlifName: u09b8_u09cd_u09ac.cjct
Width: 580
GlyphClass: 3
Flags: HMW
LayerCount: 2
Fore
SplineSet
432 115 m 1
 432 288 l 1
 300 218 l 1
 432 115 l 1
392 425 m 0
 420 425 440 454 440 487 c 0
 440 507 435 524 424 540 c 0
 403 572 385 595 370 610 c 1
 258 610 l 1
 258 602 264 590 274 571 c 2
 321 485 l 1
 346 445 370 425 392 425 c 0
433 373 m 1
 418 369 405 367 392 367 c 0
 358 367 329 380 304 407 c 0
 285 427 265 459 243 502 c 1
 188 419 143 378 107 378 c 0
 80 378 55 395 30 429 c 0
 30 431 29 433 29 435 c 0
 29 452 45 466 64 466 c 0
 67 466 71 466 74 465 c 1
 79 447 86 438 96 438 c 0
 121 438 153 473 185 547 c 0
 190 558 191 569 191 579 c 0
 191 584 191 590 190 595 c 0
 189 600 188 605 187 610 c 1
 -6 610 l 1
 -6 673 l 1
 578 673 l 1
 578 610 l 1
 456 610 l 1
 480 571 l 2
 500 538 510 506 510 475 c 0
 510 451 504 431 494 415 c 1
 494 62 l 2
 494 49 481 42 456 42 c 0
 446 42 438 45 433 49 c 2
 240 205 l 2
 233 211 230 217 230 225 c 0
 230 234 235 241 245 246 c 2
 433 344 l 1
 433 373 l 1
EndSplineSet
Validated: 1
Ligature2: "'cjct' Conjunct Forms in Bengali2 lookup 13" u09b8 u09cd u09f1
Ligature2: "'cjct' Conjunct Forms in Bengali2 lookup 13" u09b8 u09cd u09ac
EndChar

StartChar: u09a6_u09cd_u09a8.cjct
Encoding: 65670 -1 150
GlifName: u09a6_u09cd_u09a8.cjct
Width: 452
GlyphClass: 3
Flags: HMW
LayerCount: 2
Fore
SplineSet
146 0 m 0
 97 0 32 89 32 142 c 0
 32 163 38 185 50 206 c 0
 76 253 115 276 167 276 c 0
 227 276 285 238 312 190 c 1
 312 369 l 1
 314 371 l 1
 314 437 l 2
 314 484 301 507 274 507 c 0
 247 507 210 485 163 442 c 0
 124 406 97 377 84 355 c 1
 79 354 75 353 69 353 c 0
 52 353 43 360 38 373 c 1
 38 610 l 1
 -8 610 l 1
 -8 673 l 1
 453 673 l 1
 453 610 l 1
 100 610 l 1
 100 446 l 1
 142 487 174 514 197 529 c 0
 229 550 258 558 285 558 c 0
 288 558 291 558 294 558 c 0
 317 556 335 546 351 524 c 0
 366 503 376 480 376 453 c 2
 376 323 l 2
 376 320 376 318 375 316 c 1
 375 12 l 2
 375 0 363 -6 340 -6 c 0
 321 -6 312 0 312 12 c 2
 312 101 l 1
 308 134 297 160 280 177 c 0
 249 208 218 223 185 223 c 0
 136 223 88 183 88 131 c 0
 88 93 111 65 157 46 c 0
 164 43 167 38 167 29 c 0
 167 10 161 0 146 0 c 0
EndSplineSet
Validated: 1
Ligature2: "'cjct' Conjunct Forms in Bengali2 lookup 13" u09a6 u09cd u09a8
EndChar

StartChar: u09a7_u09cd_u09a8.cjct
Encoding: 65671 -1 151
GlifName: u09a7_u09cd_u09a8.cjct
Width: 476
GlyphClass: 3
Flags: HMW
LayerCount: 2
Fore
SplineSet
340 121 m 1
 340 495 l 1
 95 344 l 1
 340 121 l 1
137 -14 m 0
 137 34 176 66 229 66 c 0
 274 66 311 48 343 11 c 1
 343 41 l 1
 342 41 341 41 340 42 c 2
 30 328 l 2
 26 333 23 339 23 347 c 0
 23 359 28 370 37 380 c 1
 126 432 l 1
 74 455 39 489 22 534 c 0
 21 542 21 550 21 558 c 0
 21 606 44 638 91 657 c 0
 115 666 143 671 175 671 c 1
 187 668 193 659 193 646 c 0
 193 629 187 618 176 612 c 1
 111 612 79 595 79 562 c 0
 79 555 80 546 83 538 c 0
 106 499 141 480 186 480 c 0
 193 480 201 481 208 482 c 1
 340 564 l 1
 340 610 l 2
 340 652 361 673 402 673 c 2
 478 673 l 1
 478 610 l 1
 402 610 l 1
 402 125 l 1
 405 125 l 1
 405 -110 l 2
 405 -122 395 -128 375 -128 c 0
 354 -128 343 -121 343 -108 c 0
 343 -70 338 -44 327 -31 c 0
 298 3 269 20 239 20 c 0
 212 20 188 3 188 -26 c 0
 188 -46 200 -64 223 -80 c 0
 227 -83 229 -87 229 -94 c 0
 229 -112 222 -121 210 -121 c 0
 208 -121 207 -120 204 -119 c 0
 159 -95 137 -60 137 -14 c 0
EndSplineSet
Validated: 1
Ligature2: "'cjct' Conjunct Forms in Bengali2 lookup 13" u09a7 u09cd u09a8
EndChar

StartChar: u09a8_u09cd._u09a4.cjct
Encoding: 65672 -1 152
GlifName: u09a8_u09cd._u09a4.cjct
Width: 440
GlyphClass: 3
Flags: HMW
LayerCount: 2
Fore
SplineSet
303 437 m 1
 295 487 245 529 184 529 c 0
 151 529 123 517 102 493 c 0
 96 486 93 476 93 465 c 0
 93 433 116 401 146 391 c 1
 149 385 149 379 149 373 c 0
 149 353 142 343 125 343 c 1
 80 361 37 406 37 468 c 0
 37 494 45 515 60 531 c 0
 91 564 129 580 176 580 c 0
 226 580 268 563 303 529 c 1
 303 610 l 1
 -9 610 l 1
 -9 673 l 1
 440 673 l 1
 440 610 l 1
 365 610 l 1
 365 332 l 1
 400 308 429 256 429 195 c 0
 429 164 422 137 408 115 c 0
 369 53 311 22 236 22 c 0
 176 22 118 41 59 79 c 0
 0 117 -43 163 -71 220 c 1
 -71 240 -62 251 -42 251 c 0
 -35 251 -26 249 -18 245 c 1
 4 197 39 158 88 128 c 0
 136 98 184 83 232 83 c 0
 306 83 367 121 367 201 c 0
 367 247 351 277 320 291 c 1
 303 291 l 1
 303 293 l 1
 263 292 241 262 237 204 c 1
 233 193 225 188 213 188 c 0
 200 188 189 193 179 204 c 1
 179 208 179 211 179 215 c 0
 179 290 228 343 301 351 c 1
 303 351 l 1
 303 437 l 1
EndSplineSet
Validated: 1
Ligature2: "'cjct' Conjunct Forms in Bengali2 lookup 13" u09a8 u09cd u09a4
EndChar

StartChar: u09a8_u09cd_u09a4_u09b0.vatu
Encoding: 65673 -1 153
GlifName: u09a8_u09cd_u09a4_u09b0.vatu
Width: 445
GlyphClass: 3
Flags: HMW
LayerCount: 2
Fore
SplineSet
127 343 m 1
 82 361 40 406 40 468 c 0
 40 494 48 515 63 531 c 0
 94 564 132 580 179 580 c 0
 229 580 271 563 306 529 c 1
 306 610 l 1
 -6 610 l 1
 -6 673 l 1
 443 673 l 1
 443 610 l 1
 368 610 l 1
 368 312 l 1
 369 302 370 289 370 271 c 2
 370 -27 l 2
 370 -44 357 -52 333 -52 c 0
 321 -52 313 -49 308 -42 c 0
 282 -9 254 7 223 7 c 0
 220 7 198 5 156 -1 c 0
 143 -3 133 -4 128 -4 c 0
 79 -4 53 17 36 51 c 0
 23 77 16 107 16 140 c 0
 16 151 17 161 18 170 c 1
 27 181 37 186 47 186 c 0
 57 186 65 181 72 170 c 1
 71 160 70 149 70 139 c 0
 70 80 91 51 133 51 c 1
 133 51 202 65 228 65 c 0
 254 65 281 56 308 39 c 1
 308 268 l 2
 308 301 305 307 284 307 c 0
 258 307 238 292 223 263 c 1
 214 243 l 1
 209 228 208 213 208 198 c 0
 208 187 208 178 211 169 c 0
 212 168 212 166 212 165 c 0
 212 154 195 143 179 143 c 0
 169 143 163 147 160 154 c 0
 152 176 147 199 147 221 c 0
 147 303 202 364 285 364 c 0
 292 364 299 364 306 363 c 1
 306 437 l 1
 298 487 248 529 187 529 c 0
 154 529 125 517 104 493 c 0
 98 486 96 476 96 465 c 0
 96 433 119 401 148 391 c 1
 151 385 152 379 152 373 c 0
 152 353 144 343 127 343 c 1
EndSplineSet
Validated: 1
Ligature2: "'cjct' Conjunct Forms in Bengali2 lookup 13" u09a8 u09cd u09a4_u09b0_u09cd.blwf.vatu
EndChar

StartChar: u09a8_u09cd_u09a4_u09c1.blws
Encoding: 65674 -1 154
GlifName: u09a8_u09cd_u09a4_u09c1.blws
Width: 447
GlyphClass: 3
Flags: HMW
LayerCount: 2
Fore
SplineSet
290 10 m 0
 329 10 369 28 369 66 c 0
 369 85 358 103 337 120 c 1
 321 128 313 138 313 151 c 0
 313 158 316 166 322 174 c 1
 340 186 349 200 349 217 c 0
 349 235 340 251 323 263 c 1
 310 271 l 2
 302 275 293 276 284 276 c 0
 280 276 276 276 272 275 c 0
 240 264 225 245 225 218 c 0
 225 205 229 190 236 174 c 1
 235 157 226 148 208 148 c 0
 201 148 193 150 184 155 c 1
 174 176 169 198 169 219 c 0
 169 281 215 328 277 333 c 0
 286 333 296 333 304 332 c 1
 304 437 l 1
 296 487 246 529 185 529 c 0
 152 529 124 517 103 493 c 0
 97 486 94 476 94 465 c 0
 94 433 117 401 146 391 c 1
 149 385 150 379 150 373 c 0
 150 353 142 343 125 343 c 1
 80 361 38 406 38 468 c 0
 38 494 46 515 61 531 c 0
 92 564 130 580 177 580 c 0
 227 580 269 563 304 529 c 1
 304 610 l 1
 -8 610 l 1
 -8 673 l 1
 441 673 l 1
 441 610 l 1
 366 610 l 1
 366 302 l 1
 390 281 403 256 405 227 c 1
 405 220 l 2
 405 198 398 176 384 155 c 1
 411 128 425 99 425 67 c 0
 425 -4 356 -49 280 -49 c 0
 123 -49 26 143 -8 295 c 1
 -7 310 2 317 20 317 c 0
 32 317 40 313 46 305 c 1
 77 184 164 10 290 10 c 0
EndSplineSet
Validated: 1
Ligature2: "'blws' Below Base Substitutions in Bengali lookup 10 subtable" u09a8_u09cd._u09a4.cjct u09c1
EndChar

StartChar: u09a8_u09cd_u09a5.cjct
Encoding: 65675 -1 155
GlifName: u09a8_u09cd_u09a5.cjct
Width: 443
GlyphClass: 3
Flags: HMW
LayerCount: 2
Fore
SplineSet
306 437 m 1
 298 488 248 529 187 529 c 0
 154 529 126 517 105 493 c 0
 99 486 96 476 96 465 c 0
 96 434 120 401 149 391 c 1
 152 385 153 379 153 373 c 0
 153 353 145 343 128 343 c 1
 83 361 40 406 40 468 c 0
 40 494 48 515 63 531 c 0
 94 564 132 580 179 580 c 0
 229 580 271 563 306 529 c 1
 306 610 l 1
 -6 610 l 1
 -6 673 l 1
 444 673 l 1
 444 610 l 1
 368 610 l 1
 368 291 l 1
 361 291 l 1
 382 265 392 232 392 192 c 0
 392 185 392 177 391 170 c 0
 375 115 353 80 324 62 c 0
 306 51 261 38 188 23 c 1
 426 -70 l 1
 427 -75 428 -79 428 -84 c 0
 428 -105 417 -117 398 -117 c 0
 397 -117 397 -117 396 -117 c 2
 88 25 l 1
 82 33 79 42 79 51 c 0
 79 70 88 79 104 79 c 0
 107 79 110 78 113 77 c 0
 129 75 145 74 161 74 c 0
 238 74 291 95 318 137 c 0
 330 156 336 179 336 206 c 0
 336 262 303 290 237 290 c 0
 175 290 131 258 125 200 c 1
 119 191 110 186 97 186 c 0
 82 186 73 193 69 206 c 1
 70 264 102 306 163 331 c 0
 186 341 211 346 237 346 c 0
 262 346 285 342 306 333 c 1
 306 437 l 1
EndSplineSet
Validated: 1
Ligature2: "'cjct' Conjunct Forms in Bengali2 lookup 13" u09a8 u09cd u09a5
EndChar

StartChar: u09a8_u09cd_u09a6.cjct
Encoding: 65676 -1 156
GlifName: u09a8_u09cd_u09a6.cjct
Width: 667
GlyphClass: 3
Flags: HMW
LayerCount: 2
Fore
SplineSet
120 270 m 1
 71 289 28 332 28 396 c 0
 28 425 38 453 58 480 c 0
 83 515 119 532 167 532 c 0
 201 532 232 524 259 509 c 1
 259 610 l 1
 -6 610 l 1
 -6 673 l 1
 666 673 l 1
 666 610 l 1
 321 610 l 1
 321 375 l 1
 336 394 363 417 401 445 c 0
 465 492 514 514 547 514 c 0
 550 514 553 513 556 513 c 0
 576 511 587 500 587 481 c 0
 587 480 587 479 587 478 c 1
 555 389 539 316 539 258 c 0
 539 196 555 133 589 69 c 0
 589 67 589 66 589 64 c 0
 589 47 573 39 552 39 c 0
 548 39 544 39 539 40 c 1
 501 108 481 178 481 251 c 0
 481 306 493 370 515 443 c 1
 440 414 373 364 314 294 c 1
 306 289 297 287 287 287 c 0
 268 287 259 295 259 310 c 2
 259 438 l 1
 238 464 209 478 173 478 c 0
 142 478 115 467 97 441 c 0
 85 423 82 405 82 389 c 0
 82 355 103 332 144 317 c 1
 146 312 146 308 146 302 c 0
 146 288 137 270 120 270 c 1
EndSplineSet
Validated: 1
LCarets2: 2 0 0
Ligature2: "'cjct' Conjunct Forms in Bengali2 lookup 13" u09a8 u09cd u09a6
EndChar

StartChar: u09a8_u09cd_u09a7.cjct
Encoding: 65677 -1 157
GlifName: u09a8_u09cd_u09a7.cjct
Width: 451
GlyphClass: 3
Flags: HMW
LayerCount: 2
Fore
SplineSet
132 343 m 1
 86 362 44 408 44 468 c 0
 44 494 52 515 67 531 c 0
 98 564 136 580 183 580 c 0
 233 580 275 563 310 529 c 1
 310 610 l 1
 0 610 l 1
 0 673 l 1
 448 673 l 1
 448 610 l 1
 372 610 l 1
 372 425 l 1
 372 343 l 1
 392 351 405 356 421 356 c 0
 450 356 466 341 470 312 c 0
 471 301 471 288 471 275 c 2
 471 139 l 2
 471 90 471 62 486 59 c 1
 516 59 l 1
 524 55 528 48 528 38 c 0
 528 28 524 18 515 8 c 1
 508 8 501 7 495 7 c 0
 477 7 463 10 455 14 c 0
 426 27 412 68 412 137 c 0
 412 151 416 177 416 213 c 0
 416 235 419 254 419 270 c 0
 419 273 419 277 419 280 c 0
 419 284 418 288 418 291 c 0
 418 296 411 299 396 299 c 0
 377 299 368 293 368 283 c 2
 368 40 l 2
 368 24 355 16 328 16 c 0
 318 16 311 18 306 21 c 2
 129 164 l 2
 116 174 110 185 110 195 c 0
 110 202 115 209 123 213 c 2
 308 312 l 1
 308 291 l 1
 308 319 311 346 311 371 c 0
 311 428 305 475 268 503 c 0
 245 520 219 529 191 529 c 0
 158 529 130 517 109 493 c 0
 103 486 100 476 100 465 c 0
 100 431 126 400 153 391 c 1
 156 385 157 379 157 373 c 0
 157 353 149 343 132 343 c 1
306 249 m 1
 190 184 l 1
 306 92 l 1
 306 249 l 1
EndSplineSet
Validated: 1
LCarets2: 2 0 0
Ligature2: "'cjct' Conjunct Forms in Bengali2 lookup 13" u09a8 u09cd u09a7
EndChar

StartChar: u09a8_u09cd_u09a8.cjct
Encoding: 65678 -1 158
GlifName: u09a8_u09cd_u09a8.cjct
Width: 443
GlyphClass: 3
Flags: HMW
LayerCount: 2
Fore
SplineSet
304 437 m 1
 296 487 246 529 185 529 c 0
 152 529 124 517 103 493 c 0
 97 486 94 476 94 465 c 0
 94 433 117 401 146 391 c 1
 149 385 150 379 150 373 c 0
 150 353 142 343 125 343 c 1
 80 361 38 406 38 468 c 0
 38 494 46 515 61 531 c 0
 92 564 130 580 177 580 c 0
 227 580 269 563 304 529 c 1
 304 610 l 1
 -8 610 l 1
 -8 673 l 1
 441 673 l 1
 441 610 l 1
 366 610 l 1
 366 442 l 1
 367 443 l 1
 367 46 l 2
 367 34 356 28 333 28 c 0
 314 28 305 34 305 46 c 0
 305 99 305 128 304 135 c 0
 300 168 290 194 273 211 c 0
 242 242 210 257 177 257 c 0
 127 257 81 218 81 165 c 0
 81 127 104 99 150 80 c 0
 157 77 160 72 160 63 c 0
 160 44 153 34 138 34 c 0
 90 34 25 124 25 176 c 0
 25 197 31 219 43 240 c 0
 69 287 108 310 160 310 c 0
 203 310 242 294 275 262 c 2
 291 246 l 2
 297 239 301 231 305 224 c 1
 305 291 l 1
 304 291 l 1
 304 437 l 1
EndSplineSet
Validated: 1
Ligature2: "'cjct' Conjunct Forms in Bengali2 lookup 13" u09a8 u09cd u09a8
EndChar

StartChar: u09a8_u09cd_u09ae.cjct
Encoding: 65679 -1 159
GlifName: u09a8_u09cd_u09ae.cjct
Width: 670
GlyphClass: 3
Flags: HMW
LayerCount: 2
Fore
SplineSet
306 437 m 1
 298 488 248 529 187 529 c 0
 154 529 126 517 105 493 c 0
 99 486 96 476 96 465 c 0
 96 434 120 401 149 391 c 1
 152 385 153 379 153 373 c 0
 153 353 145 343 128 343 c 1
 83 361 40 406 40 468 c 0
 40 494 48 515 63 531 c 0
 94 564 132 580 179 580 c 0
 229 580 271 563 306 529 c 1
 306 610 l 1
 -6 610 l 1
 -6 673 l 1
 434 673 l 1
 434 675 l 1
 670 675 l 1
 670 612 l 1
 594 612 l 1
 594 62 l 2
 594 50 585 44 566 44 c 0
 543 44 532 50 532 63 c 2
 532 124 l 2
 532 140 515 162 480 193 c 0
 441 227 406 245 371 245 c 0
 330 245 305 214 305 168 c 0
 305 124 330 97 373 93 c 0
 382 92 386 84 386 68 c 0
 386 46 380 36 368 36 c 0
 367 36 367 36 366 36 c 0
 311 41 287 57 265 93 c 0
 245 125 239 159 239 188 c 0
 239 237 261 273 306 296 c 1
 306 437 l 1
444 612 m 1
 444 610 l 1
 368 610 l 1
 368 414 l 1
 369 412 370 409 370 406 c 2
 370 307 l 1
 417 307 459 288 495 249 c 0
 510 233 522 214 532 194 c 1
 532 612 l 1
 444 612 l 1
EndSplineSet
Validated: 1
Ligature2: "'cjct' Conjunct Forms in Bengali2 lookup 13" u09a8 u09cd u09ae
EndChar

StartChar: u09a8_u09cd_u09b8.cjct
Encoding: 65680 -1 160
GlifName: u09a8_u09cd_u09b8.cjct
Width: 648
GlyphClass: 3
Flags: HMW
LayerCount: 2
Fore
SplineSet
182 536 m 1
 265 512 294 484 333 418 c 1
 350 432 368 439 388 439 c 0
 421 439 462 414 513 364 c 1
 513 610 l 1
 253 610 l 1
 182 536 l 1
28 297 m 0
 28 368 86 406 163 406 c 0
 218 406 261 383 292 337 c 1
 295 345 296 351 296 356 c 0
 296 358 296 359 296 360 c 0
 296 361 295 363 295 364 c 0
 270 411 248 441 229 456 c 0
 206 473 171 482 126 482 c 1
 105 489 96 499 96 514 c 0
 96 521 99 529 106 538 c 2
 169 610 l 1
 -8 610 l 1
 -8 673 l 1
 650 673 l 1
 650 610 l 1
 575 610 l 1
 575 53 l 2
 575 42 564 37 543 37 c 0
 522 37 513 42 513 53 c 2
 513 162 l 2
 513 265 497 308 443 349 c 0
 415 369 397 379 387 379 c 0
 376 379 365 372 357 358 c 1
 346 305 325 253 296 201 c 0
 251 120 201 80 146 80 c 0
 110 80 75 95 42 126 c 1
 40 131 40 135 40 139 c 0
 40 156 49 165 69 165 c 0
 73 165 78 165 81 164 c 0
 106 142 128 131 146 131 c 0
 164 131 182 143 200 166 c 0
 210 179 227 209 254 256 c 1
 247 317 218 347 165 347 c 0
 153 347 139 346 126 342 c 1
 102 328 90 310 90 288 c 0
 90 272 96 254 109 233 c 1
 109 232 109 230 109 229 c 0
 109 217 96 207 80 207 c 0
 73 207 66 208 59 211 c 1
 39 238 28 267 28 297 c 0
EndSplineSet
Validated: 1
LCarets2: 2 0 0
Ligature2: "'cjct' Conjunct Forms in Bengali2 lookup 13" u09a8 u09cd u09b8
EndChar

StartChar: u09aa_u09cd_u09a4.cjct
Encoding: 65681 -1 161
GlifName: u09aa_u09cd_u09a4.cjct
Width: 755
GlyphClass: 3
Flags: HMW
LayerCount: 2
Fore
SplineSet
466 549 m 1
 426 584 386 602 345 602 c 0
 304 602 266 584 231 547 c 1
 337 423 l 1
 466 549 l 1
455 192 m 0
 431 192 427 217 427 238 c 0
 427 303 479 359 544 359 c 0
 554 359 565 358 575 355 c 1
 575 411 l 2
 575 424 559 448 527 482 c 2
 507 503 l 1
 505 504 l 1
 305 310 l 1
 287 310 263 325 263 345 c 0
 263 347 264 349 264 351 c 1
 294 380 l 1
 195 497 l 1
 184 481 177 469 174 461 c 1
 171 460 169 460 166 460 c 0
 146 460 130 476 125 495 c 1
 148 538 168 567 184 584 c 0
 206 608 237 631 280 650 c 0
 304 660 328 663 351 663 c 0
 435 663 509 611 575 506 c 1
 575 610 l 2
 575 647 598 673 637 673 c 2
 754 673 l 1
 754 610 l 1
 637 610 l 1
 637 342 l 1
 664 311 678 273 678 226 c 0
 678 108 589 31 468 31 c 0
 466 31 465 31 463 31 c 0
 342 32 230 116 127 283 c 0
 87 349 49 425 14 513 c 1
 16 531 27 540 47 540 c 0
 55 540 62 538 69 534 c 1
 103 448 136 380 166 329 c 0
 208 257 256 199 310 154 c 0
 359 113 409 92 461 92 c 0
 522 92 566 112 593 152 c 0
 610 176 618 202 618 228 c 0
 618 263 605 286 579 296 c 1
 563 301 l 2
 557 302 552 302 547 302 c 0
 522 302 502 293 495 273 c 1
 490 256 l 1
 488 244 487 227 487 205 c 1
 477 196 467 192 455 192 c 0
EndSplineSet
Validated: 1
Ligature2: "'cjct' Conjunct Forms in Bengali2 lookup 13" u09aa u09cd u09a4
EndChar

StartChar: u09aa_u09cd_u09aa.cjct
Encoding: 65682 -1 162
GlifName: u09aa_u09cd_u09aa.cjct
Width: 563
GlyphClass: 3
Flags: HMW
LayerCount: 2
Fore
SplineSet
330 252 m 1
 301 279 267 292 232 292 c 0
 196 292 164 278 135 250 c 1
 223 146 l 1
 330 252 l 1
330 570 m 1
 298 602 264 618 228 618 c 0
 192 618 160 602 131 569 c 1
 221 461 l 1
 330 570 l 1
423 610 m 2
 423 642 450 673 485 673 c 2
 561 673 l 1
 561 610 l 1
 485 610 l 1
 485 382 l 1
 487 382 l 1
 487 31 l 2
 487 22 476 18 453 18 c 0
 434 18 425 22 425 31 c 0
 425 83 423 115 420 128 c 0
 414 162 398 189 369 209 c 1
 188 35 l 1
 165 40 153 51 153 68 c 0
 153 72 153 75 154 78 c 1
 182 106 l 1
 101 200 l 1
 79 166 l 1
 76 165 72 164 69 164 c 0
 50 164 38 172 31 189 c 1
 82 297 147 351 225 351 c 0
 302 351 369 311 425 232 c 1
 425 297 l 1
 423 297 l 1
 423 442 l 2
 423 477 401 524 368 529 c 1
 189 353 l 2
 188 353 187 353 186 353 c 0
 171 353 152 372 152 389 c 0
 152 390 152 391 152 392 c 1
 183 425 l 1
 98 524 l 1
 89 509 81 496 76 486 c 0
 73 483 69 481 64 481 c 0
 43 481 32 492 30 513 c 1
 82 616 150 668 235 668 c 0
 268 668 296 661 319 646 c 0
 372 611 407 578 423 545 c 1
 423 610 l 2
EndSplineSet
Validated: 1
LCarets2: 2 0 0
Ligature2: "'cjct' Conjunct Forms in Bengali2 lookup 13" u09aa u09cd u09aa
EndChar

StartChar: u09aa_u09cd_u09ae.cjct
Encoding: 65683 -1 163
GlifName: u09aa_u09cd_u09ae.cjct
Width: 767
GlyphClass: 3
Flags: HMW
LayerCount: 2
Fore
SplineSet
314 570 m 1
 282 602 248 618 212 618 c 0
 176 618 144 602 115 569 c 1
 206 461 l 1
 314 570 l 1
469 304 m 1
 516 303 557 284 593 245 c 0
 608 229 620 211 629 192 c 1
 629 610 l 1
 469 610 l 1
 469 304 l 1
407 610 m 2
 407 642 434 673 469 673 c 2
 767 673 l 1
 767 610 l 1
 691 610 l 1
 691 60 l 2
 691 48 682 42 663 42 c 0
 640 42 629 48 629 61 c 2
 629 121 l 2
 629 137 612 160 577 191 c 0
 538 225 502 242 467 242 c 0
 426 242 401 211 401 166 c 0
 401 123 427 95 469 91 c 0
 478 90 483 82 483 66 c 0
 483 44 477 33 465 33 c 0
 464 33 464 33 463 33 c 0
 408 38 383 55 361 91 c 0
 341 123 336 157 336 186 c 0
 336 235 358 272 404 295 c 1
 404 406 l 2
 404 410 405 412 407 415 c 1
 407 442 l 2
 407 467 399 488 384 507 c 0
 375 519 365 527 353 529 c 1
 173 353 l 2
 172 353 171 353 170 353 c 0
 155 353 136 372 136 389 c 0
 136 390 136 391 136 392 c 1
 167 425 l 1
 83 524 l 1
 74 509 66 496 61 486 c 0
 58 483 53 481 48 481 c 0
 27 481 16 492 14 513 c 1
 66 616 134 668 219 668 c 0
 252 668 280 661 303 646 c 0
 356 611 391 578 407 545 c 1
 407 610 l 2
EndSplineSet
Validated: 1
LCarets2: 2 0 0
Ligature2: "'cjct' Conjunct Forms in Bengali2 lookup 13" u09aa u09cd u09ae
EndChar

StartChar: u09aa_u09cd_u09a8.cjct
Encoding: 65684 -1 164
GlifName: u09aa_u09cd_u09a8.cjct
Width: 541
GlyphClass: 3
Flags: HMW
LayerCount: 2
Fore
SplineSet
309 572 m 1
 277 604 243 621 207 621 c 0
 171 621 138 604 109 571 c 1
 200 463 l 1
 309 572 l 1
234 44 m 0
 185 44 121 134 121 186 c 0
 121 207 127 229 139 250 c 0
 165 297 204 320 256 320 c 0
 299 320 338 304 371 272 c 1
 386 255 l 2
 392 248 397 241 401 234 c 1
 401 243 401 281 400 346 c 0
 400 373 401 396 401 414 c 2
 401 444 l 2
 401 479 380 526 347 531 c 1
 167 355 l 2
 166 355 165 355 164 355 c 0
 149 355 130 374 130 392 c 0
 130 393 130 394 130 395 c 1
 162 427 l 1
 77 526 l 1
 68 511 60 498 55 488 c 0
 52 485 47 483 42 483 c 0
 21 483 10 495 8 516 c 1
 60 619 128 670 213 670 c 0
 246 670 274 663 297 648 c 0
 350 613 385 580 401 547 c 1
 401 612 l 2
 401 645 427 675 463 675 c 2
 540 675 l 1
 540 612 l 1
 463 612 l 1
 463 427 463 241 463 56 c 0
 463 44 452 38 429 38 c 0
 410 38 401 44 401 56 c 0
 401 109 401 138 400 145 c 0
 396 178 386 204 369 221 c 0
 338 252 306 267 273 267 c 0
 224 267 177 227 177 175 c 0
 177 137 200 109 246 90 c 0
 253 87 256 82 256 73 c 0
 256 54 249 44 234 44 c 0
EndSplineSet
Validated: 1
LCarets2: 2 0 0
Ligature2: "'cjct' Conjunct Forms in Bengali2 lookup 13" u09aa u09cd u09a8
EndChar

StartChar: u09aa_u09cd_u09b2.cjct
Encoding: 65685 -1 165
GlifName: u09aa_u09cd_u09b2.cjct
Width: 537
GlyphClass: 3
Flags: HMW
LayerCount: 2
Fore
SplineSet
306 570 m 1
 274 602 240 618 204 618 c 0
 168 618 136 602 107 569 c 1
 197 461 l 1
 306 570 l 1
163 109 m 2
 174 109 l 1
 183 105 188 97 188 84 c 0
 188 58 177 53 151 53 c 0
 76 53 10 108 10 183 c 0
 10 253 70 316 138 318 c 0
 175 318 210 303 243 272 c 1
 262 294 282 305 303 305 c 0
 339 305 371 280 398 229 c 1
 398 416 l 1
 399 417 l 1
 399 442 l 2
 399 477 377 524 344 529 c 1
 165 353 l 2
 164 353 163 353 162 353 c 0
 147 353 128 372 128 389 c 0
 128 390 128 391 128 392 c 1
 159 425 l 1
 74 524 l 1
 65 509 57 496 52 486 c 0
 49 483 45 481 40 481 c 0
 19 481 8 492 6 513 c 1
 58 616 126 668 211 668 c 0
 244 668 272 661 295 646 c 0
 348 611 383 578 399 545 c 1
 399 610 l 2
 399 642 426 673 461 673 c 2
 537 673 l 1
 537 610 l 1
 461 610 l 1
 461 297 l 1
 460 297 l 1
 460 68 l 2
 460 59 450 54 429 54 c 0
 408 54 398 59 398 68 c 0
 398 114 390 154 372 189 c 0
 355 225 335 243 313 243 c 0
 295 243 279 231 264 207 c 0
 259 200 253 197 244 197 c 0
 234 197 225 201 217 209 c 1
 204 244 179 262 140 262 c 0
 99 262 64 229 64 184 c 0
 64 133 109 109 163 109 c 2
EndSplineSet
Validated: 1
LCarets2: 2 0 0
Ligature2: "'cjct' Conjunct Forms in Bengali2 lookup 13" u09aa u09cd u09b2
EndChar

StartChar: u09ab_u09cd_u09b2.cjct
Encoding: 65686 -1 166
GlifName: u09ab_u09cd_u09b2.cjct
Width: 695
GlyphClass: 3
Flags: HMW
LayerCount: 2
Fore
SplineSet
126 -113 m 0
 71 -113 6 -65 6 -11 c 0
 6 38 46 76 97 76 c 0
 140 76 176 59 204 26 c 1
 223 51 245 63 273 63 c 0
 295 63 320 56 345 41 c 1
 345 62 l 1
 57 297 l 1
 53 305 51 312 51 319 c 0
 51 328 54 339 63 347 c 2
 166 443 l 1
 16 610 l 1
 -9 610 l 1
 -9 673 l 1
 694 673 l 1
 694 610 l 1
 96 610 l 1
 227 463 l 1
 230 455 232 448 232 442 c 0
 232 432 228 425 221 418 c 2
 118 321 l 1
 361 121 l 1
 361 514 l 2
 361 551 372 570 393 570 c 0
 505 570 578 538 612 474 c 0
 627 446 634 417 634 387 c 0
 634 316 589 240 525 233 c 1
 508 235 499 246 499 267 c 0
 499 280 504 288 515 292 c 0
 516 292 518 292 519 292 c 0
 554 292 575 348 575 389 c 0
 575 472 513 515 423 515 c 1
 423 62 l 1
 423 61 423 59 423 58 c 0
 423 48 417 41 407 38 c 1
 407 -62 l 1
 400 -72 390 -78 378 -78 c 0
 365 -78 354 -73 345 -62 c 1
 345 -16 325 11 283 11 c 0
 266 11 249 -1 232 -24 c 0
 226 -31 218 -34 209 -34 c 0
 198 -34 189 -29 181 -22 c 1
 169 1 139 24 102 24 c 0
 74 24 60 10 60 -19 c 0
 60 -51 97 -62 140 -62 c 1
 151 -66 156 -74 156 -86 c 0
 156 -106 146 -113 126 -113 c 0
EndSplineSet
Validated: 1
LCarets2: 2 0 0
Ligature2: "'cjct' Conjunct Forms in Bengali2 lookup 13" u09ab u09cd u09b2
EndChar

StartChar: u09ae_u09cd_u09aa.cjct
Encoding: 65687 -1 167
GlifName: u09ae_u09cd_u09aa.cjct
Width: 1086
GlyphClass: 3
Flags: HMW
LayerCount: 2
Fore
SplineSet
829 542 m 1
 784 585 739 606 694 606 c 0
 649 606 605 585 561 542 c 1
 683 398 l 1
 829 542 l 1
411 492 m 0
 411 519 401 548 380 574 c 0
 365 592 351 601 341 606 c 0
 334 609 320 610 300 610 c 2
 147 610 l 1
 160 591 167 569 167 544 c 0
 167 538 167 533 166 528 c 1
 185 520 211 501 246 470 c 0
 277 443 301 428 319 425 c 0
 326 424 333 423 340 423 c 0
 387 423 411 446 411 492 c 0
141 483 m 0
 122 483 100 462 100 438 c 0
 100 421 106 409 118 400 c 0
 123 396 129 393 135 393 c 1
 142 381 146 371 146 363 c 0
 146 349 135 342 114 342 c 1
 69 365 47 399 47 446 c 0
 47 492 70 521 116 534 c 1
 119 541 120 549 120 557 c 0
 120 575 113 593 97 610 c 1
 -1 610 l 1
 -1 673 l 1
 485 673 l 1
 485 610 l 1
 417 610 l 1
 445 594 467 555 475 511 c 1
 522 591 586 641 667 661 c 0
 682 664 696 666 711 666 c 0
 799 666 879 611 950 502 c 1
 950 609 l 2
 950 641 977 673 1012 673 c 2
 1088 673 l 1
 1088 610 l 1
 1012 610 l 1
 1012 55 l 2
 1012 42 1002 35 982 35 c 0
 961 35 950 41 950 54 c 2
 950 328 l 2
 950 359 942 390 926 422 c 0
 919 437 903 463 878 500 c 1
 649 276 l 1
 645 275 642 274 638 274 c 0
 620 274 606 286 606 306 c 0
 606 310 607 314 608 317 c 1
 648 358 l 1
 536 493 l 1
 506 443 l 1
 501 440 497 439 492 439 c 0
 485 439 480 441 475 444 c 1
 464 393 421 356 358 356 c 0
 329 356 299 367 268 389 c 0
 259 395 235 415 197 450 c 0
 173 472 154 483 141 483 c 0
EndSplineSet
Validated: 1
Ligature2: "'cjct' Conjunct Forms in Bengali2 lookup 13" u09ae u09cd u09aa
EndChar

StartChar: u09ae_u09cd_u09ab.cjct
Encoding: 65688 -1 168
GlifName: u09ae_u09cd_u09ab.cjct
Width: 937
GlyphClass: 3
Flags: HMW
LayerCount: 2
Fore
SplineSet
415 492 m 0
 415 519 406 548 385 574 c 0
 370 592 355 601 345 606 c 0
 338 609 324 610 304 610 c 2
 152 610 l 1
 165 591 172 569 172 544 c 0
 172 538 171 533 170 528 c 1
 189 520 215 501 250 470 c 0
 281 443 305 428 323 425 c 0
 330 424 337 423 344 423 c 0
 391 423 415 446 415 492 c 0
689 491 m 2
 683 491 l 1
 683 65 l 2
 683 50 660 36 640 36 c 0
 631 36 625 38 621 42 c 2
 396 238 l 1
 395 244 395 250 395 255 c 0
 395 278 407 303 432 332 c 0
 464 369 481 392 486 402 c 1
 464 424 l 1
 449 387 406 356 353 356 c 0
 324 356 294 367 263 389 c 0
 254 395 230 415 192 450 c 0
 168 472 149 483 136 483 c 0
 117 483 95 462 95 438 c 0
 95 421 101 409 113 400 c 0
 118 396 124 393 130 393 c 1
 137 381 141 371 141 363 c 0
 141 349 130 342 109 342 c 1
 64 365 42 399 42 446 c 0
 42 492 65 521 111 534 c 1
 114 541 115 549 115 557 c 0
 115 575 108 593 92 610 c 1
 -6 610 l 1
 -6 673 l 1
 938 673 l 1
 938 610 l 1
 412 610 l 1
 445 590 473 537 473 479 c 1
 540 417 l 1
 548 411 551 404 551 396 c 0
 551 391 549 386 544 381 c 2
 454 265 l 1
 621 119 l 1
 621 482 l 2
 621 528 635 551 663 551 c 0
 664 551 664 551 665 551 c 0
 724 550 767 537 797 513 c 0
 832 483 862 441 862 376 c 0
 862 304 830 243 771 229 c 0
 768 228 765 228 763 228 c 0
 745 228 732 244 732 266 c 0
 732 277 736 283 743 283 c 0
 746 282 748 282 751 282 c 0
 784 282 805 337 805 376 c 0
 805 395 800 412 793 427 c 0
 771 470 736 491 689 491 c 2
EndSplineSet
Validated: 1
Ligature2: "'cjct' Conjunct Forms in Bengali2 lookup 13" u09ae u09cd u09ab
EndChar

StartChar: u09ae_u09cd_u09ad.cjct
Encoding: 65689 -1 169
GlifName: u09ae_u09cd_u09ad.cjct
Width: 713
GlyphClass: 3
Flags: HMW
LayerCount: 2
Fore
SplineSet
491 444 m 0
 539 444 577 479 577 530 c 0
 577 572 554 599 507 610 c 1
 284 610 l 1
 296 597 302 582 302 565 c 0
 302 560 301 554 300 547 c 1
 325 540 352 526 380 505 c 0
 423 472 445 454 449 452 c 0
 464 446 478 444 491 444 c 0
264 491 m 1
 263 491 l 2
 242 491 220 470 220 447 c 0
 220 435 226 427 237 423 c 1
 237 420 238 417 238 414 c 0
 238 404 235 395 230 386 c 2
 225 377 l 1
 218 373 l 1
 211 371 l 1
 180 390 164 415 164 449 c 0
 164 493 199 540 240 547 c 1
 245 552 247 557 247 563 c 0
 247 576 239 588 224 600 c 0
 217 605 212 610 206 610 c 2
 -6 610 l 1
 -6 673 l 1
 710 673 l 1
 710 610 l 1
 610 610 l 1
 627 577 635 547 635 518 c 0
 635 463 607 424 550 403 c 1
 590 363 610 316 610 263 c 0
 610 217 594 174 564 134 c 0
 518 74 459 44 384 44 c 0
 318 44 255 76 195 139 c 0
 103 236 48 354 30 491 c 1
 32 503 40 509 56 509 c 0
 69 509 79 505 87 497 c 1
 114 336 161 248 254 160 c 0
 299 119 343 98 384 98 c 0
 470 98 545 171 553 251 c 0
 553 256 553 260 553 265 c 0
 553 301 539 333 512 360 c 1
 477 297 433 265 381 265 c 0
 368 265 354 267 340 270 c 1
 295 293 272 324 272 365 c 0
 272 381 275 398 282 416 c 1
 292 421 302 424 311 424 c 0
 327 424 336 418 339 407 c 1
 333 393 330 380 330 368 c 0
 330 337 346 322 377 322 c 0
 416 322 443 343 460 387 c 1
 439 390 407 410 361 447 c 0
 326 475 297 492 274 492 c 0
 271 492 267 492 264 491 c 1
EndSplineSet
Validated: 1
Ligature2: "'cjct' Conjunct Forms in Bengali2 lookup 13" u09ae u09cd u09ad
EndChar

StartChar: u09ae_u09cd_u09a8.cjct
Encoding: 65690 -1 170
GlifName: u09ae_u09cd_u09a8.cjct
Width: 442
GlyphClass: 3
Flags: HMW
LayerCount: 2
Fore
SplineSet
168 506 m 1
 171 506 174 506 177 506 c 0
 229 506 272 472 302 440 c 1
 302 610 l 1
 102 610 l 1
 75 586 l 1
 135 579 166 552 168 506 c 1
133 -17 m 0
 84 -17 20 73 20 125 c 0
 20 146 26 168 38 189 c 0
 64 236 103 259 155 259 c 0
 215 259 273 221 300 173 c 1
 300 319 l 1
 295 374 276 415 243 440 c 0
 223 456 199 464 172 464 c 0
 129 464 86 437 86 383 c 0
 86 335 114 300 164 300 c 1
 170 297 173 290 173 282 c 0
 173 267 168 260 158 260 c 0
 94 267 46 306 46 383 c 0
 46 432 73 470 127 498 c 1
 127 499 127 501 127 502 c 0
 127 537 100 547 59 547 c 0
 53 547 47 546 41 546 c 1
 28 549 21 556 21 568 c 0
 21 571 21 574 21 577 c 1
 54 610 l 1
 -6 610 l 1
 -6 673 l 1
 440 673 l 1
 440 610 l 1
 364 610 l 1
 364 253 l 2
 364 251 363 249 362 248 c 1
 362 -5 l 2
 362 -17 351 -23 328 -23 c 0
 309 -23 300 -17 300 -5 c 0
 300 48 300 77 299 84 c 0
 295 117 285 143 268 160 c 0
 237 191 205 206 172 206 c 0
 123 206 76 166 76 114 c 0
 76 76 99 48 145 29 c 0
 152 26 155 21 155 12 c 0
 155 -7 148 -17 133 -17 c 0
EndSplineSet
Validated: 1
LCarets2: 2 0 0
Ligature2: "'cjct' Conjunct Forms in Bengali2 lookup 13" u09ae u09cd u09a8
EndChar

StartChar: u09ae_u09cd_u09ae.cjct
Encoding: 65691 -1 171
GlifName: u09ae_u09cd_u09ae.cjct
Width: 704
GlyphClass: 3
Flags: HMW
LayerCount: 2
Fore
SplineSet
409 492 m 0
 409 519 399 548 378 574 c 0
 363 592 349 601 339 606 c 0
 332 609 318 610 298 610 c 2
 146 610 l 1
 159 591 166 569 166 544 c 0
 166 538 165 533 164 528 c 1
 183 520 209 501 244 470 c 0
 275 443 299 428 317 425 c 0
 324 424 331 423 338 423 c 0
 385 423 409 446 409 492 c 0
406 610 m 1
 439 590 467 537 467 479 c 0
 467 423 445 385 400 367 c 1
 400 304 l 1
 447 304 489 285 525 246 c 0
 540 230 552 212 562 192 c 1
 562 610 l 1
 406 610 l 1
89 438 m 0
 89 417 101 393 124 393 c 1
 131 381 135 371 135 363 c 0
 135 349 124 342 103 342 c 1
 58 365 36 399 36 446 c 0
 36 492 58 521 104 534 c 1
 107 541 109 549 109 557 c 0
 109 575 101 593 85 610 c 1
 -12 610 l 1
 -12 673 l 1
 701 673 l 1
 701 610 l 1
 625 610 l 1
 625 60 l 2
 625 48 616 42 597 42 c 0
 574 42 562 48 562 61 c 2
 562 121 l 2
 562 137 546 160 511 191 c 0
 472 225 436 242 401 242 c 0
 359 242 335 213 335 166 c 0
 335 122 360 95 403 91 c 0
 412 90 417 82 417 66 c 0
 417 44 410 33 398 33 c 0
 397 33 397 33 396 33 c 0
 340 38 317 54 295 91 c 0
 275 123 270 157 270 186 c 0
 270 235 292 272 338 295 c 1
 338 356 l 1
 312 358 285 369 257 389 c 0
 248 395 224 415 186 450 c 0
 162 472 143 483 130 483 c 0
 111 483 89 462 89 438 c 0
EndSplineSet
Validated: 1
Ligature2: "'cjct' Conjunct Forms in Bengali2 lookup 13" u09ae u09cd u09ae
EndChar

StartChar: u09ae_u09cd_u09b2.cjct
Encoding: 65692 -1 172
GlifName: u09ae_u09cd_u09b2.cjct
Width: 479
GlyphClass: 3
Flags: HMW
LayerCount: 2
Fore
SplineSet
415 492 m 0
 415 519 405 548 384 574 c 0
 369 592 355 601 345 606 c 0
 338 609 324 610 304 610 c 2
 151 610 l 1
 164 591 171 569 171 544 c 0
 171 538 170 533 169 528 c 1
 188 520 215 501 250 470 c 0
 281 443 305 428 323 425 c 0
 330 424 337 423 344 423 c 0
 391 423 415 446 415 492 c 0
160 124 m 2
 171 124 l 1
 180 120 185 112 185 99 c 0
 185 73 174 68 148 68 c 0
 73 68 7 123 7 198 c 0
 7 268 67 331 135 333 c 0
 172 333 207 318 240 287 c 1
 259 309 279 320 300 320 c 0
 336 320 368 295 395 244 c 1
 395 363 l 1
 381 358 367 356 353 356 c 0
 324 356 294 367 263 389 c 0
 254 395 229 415 191 450 c 0
 167 472 149 483 136 483 c 0
 117 483 95 462 95 438 c 0
 95 421 100 409 112 400 c 0
 117 396 123 393 129 393 c 1
 136 381 141 371 141 363 c 0
 141 349 129 342 108 342 c 1
 63 365 42 399 42 446 c 0
 42 492 64 521 110 534 c 1
 113 541 115 549 115 557 c 0
 115 575 107 593 91 610 c 1
 -6 610 l 1
 -6 673 l 1
 479 673 l 1
 479 610 l 1
 412 610 l 1
 444 591 473 535 473 479 c 0
 473 452 467 429 457 411 c 1
 457 83 l 2
 457 74 447 69 426 69 c 0
 405 69 395 74 395 83 c 0
 395 129 386 169 369 204 c 0
 351 240 332 258 310 258 c 0
 292 258 276 246 261 222 c 0
 256 215 250 211 241 211 c 0
 231 211 222 216 214 224 c 1
 201 259 176 277 137 277 c 0
 97 277 61 243 61 199 c 0
 61 148 106 124 160 124 c 2
EndSplineSet
Validated: 1
Ligature2: "'cjct' Conjunct Forms in Bengali2 lookup 13" u09ae u09cd u09b2
EndChar

StartChar: u09ae_u09cd_u09ad.09b0_u09cd
Encoding: 65693 -1 173
GlifName: u09ae_u09cd_u09ad.09b0_u09cd
Width: 583
GlyphClass: 3
Flags: HMW
LayerCount: 2
Fore
SplineSet
399 610 m 1
 157 610 l 1
 166 597 171 576 172 549 c 1
 199 542 232 523 268 492 c 0
 300 463 327 449 349 449 c 0
 364 449 379 453 396 461 c 0
 422 473 436 494 436 524 c 0
 436 555 423 584 399 610 c 1
125 399 m 0
 125 384 112 367 95 367 c 0
 89 367 85 368 81 371 c 0
 48 393 32 420 32 452 c 0
 32 497 69 537 112 549 c 1
 112 585 105 583 83 610 c 1
 -10 610 l 1
 -10 673 l 1
 584 673 l 1
 584 610 l 1
 473 610 l 1
 488 575 495 545 495 520 c 0
 495 483 477 450 442 420 c 1
 486 394 509 361 509 322 c 2
 509 51 l 2
 509 38 499 31 479 31 c 0
 465 31 454 36 447 46 c 0
 426 75 391 93 340 93 c 0
 336 93 332 93 328 93 c 2
 189 93 l 1
 82 93 36 141 25 240 c 1
 29 259 38 269 52 269 c 0
 65 269 75 263 83 250 c 1
 86 175 117 144 188 144 c 0
 192 144 196 149 201 149 c 2
 314 149 l 1
 367 149 412 140 447 123 c 1
 447 306 l 2
 447 325 440 343 425 360 c 1
 389 284 344 245 289 245 c 0
 232 245 184 282 148 355 c 0
 148 357 148 358 148 360 c 0
 148 378 161 395 180 395 c 0
 185 395 190 393 194 390 c 1
 220 333 252 305 288 305 c 0
 323 305 353 333 375 390 c 1
 367 388 359 387 351 387 c 0
 320 387 281 405 235 441 c 0
 189 477 157 494 137 494 c 0
 114 494 88 477 88 451 c 0
 88 436 100 423 123 412 c 1
 125 408 125 404 125 399 c 0
EndSplineSet
Validated: 1
LCarets2: 2 0 0
Ligature2: "'cjct' Conjunct Forms in Bengali2 lookup 13" u09ae u09cd u09ad_u09b0_u09cd.blwf.vatu
EndChar

StartChar: u09b2_u09cd_u0995.cjct
Encoding: 65694 -1 174
GlifName: u09b2_u09cd_u0995.cjct
Width: 727
GlyphClass: 3
Flags: HMW
LayerCount: 2
Fore
SplineSet
411 73 m 1
 411 236 l 1
 258 176 l 1
 411 73 l 1
498 227 m 2
 489 227 l 1
 489 20 l 2
 489 7 476 1 451 1 c 0
 441 1 433 3 428 7 c 2
 195 163 l 2
 188 168 184 174 184 183 c 0
 184 192 189 199 200 204 c 2
 428 302 l 1
 428 311 l 1
 427 311 l 1
 427 414 l 2
 427 464 411 499 378 520 c 0
 366 527 355 531 345 531 c 0
 327 531 309 514 288 480 c 0
 282 471 275 467 266 467 c 0
 257 467 248 471 241 480 c 1
 227 516 201 534 162 534 c 0
 119 534 91 506 88 461 c 0
 88 459 88 456 88 454 c 0
 88 404 130 381 187 381 c 0
 190 381 194 381 197 381 c 1
 206 376 211 368 211 355 c 0
 211 328 196 326 173 326 c 0
 99 326 34 380 34 454 c 0
 34 488 47 519 72 546 c 0
 99 574 130 588 163 589 c 0
 200 589 234 573 266 542 c 1
 290 571 316 585 343 585 c 0
 368 585 396 572 427 547 c 1
 427 610 l 1
 -1 610 l 1
 -1 673 l 1
 565 673 l 1
 565 672 l 1
 727 672 l 1
 727 609 l 1
 565 609 l 1
 565 610 l 1
 489 610 l 1
 489 311 l 1
 489 310 488 308 488 305 c 0
 488 302 489 298 489 292 c 0
 489 288 490 285 489 283 c 1
 519 283 547 275 570 265 c 0
 619 241 644 202 644 149 c 0
 644 92 617 26 563 26 c 0
 548 26 541 37 541 52 c 0
 541 61 545 69 552 76 c 1
 575 81 593 111 593 144 c 0
 593 198 544 227 498 227 c 2
EndSplineSet
Validated: 1
LCarets2: 2 0 0
Ligature2: "'cjct' Conjunct Forms in Bengali2 lookup 13" u09b2 u09cd u0995
EndChar

StartChar: u09b2_u09cd._u0997.cjct
Encoding: 65695 -1 175
GlifName: u09b2_u09cd._u0997.cjct
Width: 560
GlyphClass: 3
Flags: HMW
LayerCount: 2
Fore
SplineSet
285 107 m 0
 285 66 255 18 213 18 c 0
 199 18 182 33 182 50 c 0
 182 56 184 61 189 64 c 0
 210 77 220 94 220 114 c 0
 220 139 207 168 182 168 c 0
 171 168 153 160 131 143 c 1
 124 140 118 139 113 139 c 0
 98 139 89 149 86 168 c 1
 101 260 150 291 233 322 c 0
 242 325 253 327 265 327 c 0
 296 327 327 318 357 301 c 0
 391 281 413 257 422 226 c 1
 422 365 l 1
 423 365 l 1
 423 414 l 2
 423 464 407 499 374 520 c 0
 362 527 351 531 341 531 c 0
 323 531 304 514 283 480 c 0
 277 471 270 467 261 467 c 0
 252 467 244 471 237 480 c 1
 223 516 196 534 157 534 c 0
 115 534 87 505 84 461 c 0
 84 458 84 456 84 453 c 0
 84 404 126 381 183 381 c 0
 186 381 190 381 193 381 c 1
 202 376 207 368 207 355 c 0
 207 328 192 326 169 326 c 0
 94 326 30 379 30 454 c 0
 30 488 43 519 68 546 c 0
 95 574 125 588 158 589 c 0
 195 589 229 573 261 542 c 1
 285 571 312 585 339 585 c 0
 364 585 392 572 423 547 c 1
 423 610 l 1
 -6 610 l 1
 -6 673 l 1
 561 673 l 1
 561 610 l 1
 485 610 l 1
 485 311 l 1
 484 311 l 1
 484 25 l 2
 484 12 473 5 450 5 c 0
 431 5 422 11 422 22 c 2
 422 126 l 2
 422 199 337 265 261 265 c 0
 220 265 186 248 157 213 c 1
 166 216 176 217 186 217 c 0
 249 217 285 158 285 107 c 0
EndSplineSet
Validated: 1
Ligature2: "'cjct' Conjunct Forms in Bengali2 lookup 13" u09b2 u09cd u0997
EndChar

StartChar: u09b2_u09cd_u09ac.cjct
Encoding: 65696 -1 176
GlifName: u09b2_u09cd_u09ac.cjct
Width: 563
GlyphClass: 3
Flags: HMW
LayerCount: 2
Fore
SplineSet
425 76 m 1
 425 249 l 1
 292 179 l 1
 425 76 l 1
169 326 m 0
 94 326 30 379 30 454 c 0
 30 488 43 519 68 546 c 0
 95 574 125 588 158 589 c 0
 195 589 229 573 261 542 c 1
 285 571 312 585 339 585 c 0
 364 585 392 572 423 547 c 1
 423 610 l 1
 -6 610 l 1
 -6 673 l 1
 561 673 l 1
 561 610 l 1
 485 610 l 1
 485 421 l 1
 487 422 l 1
 487 22 l 2
 487 9 474 3 449 3 c 0
 439 3 431 6 426 10 c 2
 232 166 l 2
 225 172 223 178 223 186 c 0
 223 195 228 202 238 207 c 2
 426 305 l 1
 426 309 425 311 425 311 c 1
 425 311 424 311 423 311 c 1
 423 414 l 2
 423 464 407 499 374 520 c 0
 362 527 351 531 341 531 c 0
 323 531 304 514 283 480 c 0
 277 471 270 467 261 467 c 0
 252 467 244 471 237 480 c 1
 223 516 196 534 157 534 c 0
 115 534 87 505 84 461 c 0
 84 458 84 456 84 453 c 0
 84 404 126 381 183 381 c 0
 186 381 190 381 193 381 c 1
 202 376 207 368 207 355 c 0
 207 328 192 326 169 326 c 0
EndSplineSet
Validated: 1
Ligature2: "'cjct' Conjunct Forms in Bengali2 lookup 13" u09b2 u09cd u09f1
Ligature2: "'cjct' Conjunct Forms in Bengali2 lookup 13" u09b2 u09cd u09ac
EndChar

StartChar: u09b2_u09cd_u09aa.cjct
Encoding: 65697 -1 177
GlifName: u09b2_u09cd_u09aa.cjct
Width: 561
GlyphClass: 3
Flags: HMW
LayerCount: 2
Fore
SplineSet
327 220 m 1
 298 247 264 260 229 260 c 0
 193 260 161 246 132 218 c 1
 220 114 l 1
 327 220 l 1
168 326 m 0
 94 326 29 380 29 454 c 0
 29 488 42 519 67 546 c 0
 94 574 125 588 158 589 c 0
 195 589 229 573 261 542 c 1
 285 571 311 585 338 585 c 0
 363 585 391 572 422 547 c 1
 422 610 l 1
 -6 610 l 1
 -6 673 l 1
 561 673 l 1
 561 610 l 1
 484 610 l 1
 484 407 484 203 484 -0 c 0
 484 -9 473 -14 450 -14 c 0
 431 -14 422 -9 422 -0 c 0
 422 52 420 83 417 96 c 0
 411 130 395 157 366 177 c 1
 185 3 l 1
 162 8 150 19 150 36 c 0
 150 40 150 43 151 46 c 1
 179 74 l 1
 98 168 l 1
 76 134 l 1
 73 133 69 132 66 132 c 0
 47 132 35 140 28 157 c 1
 79 265 144 319 222 319 c 0
 299 319 366 279 422 200 c 1
 422 271 422 343 422 414 c 0
 422 464 407 499 374 520 c 0
 362 527 350 531 340 531 c 0
 322 531 304 514 283 480 c 0
 277 471 270 467 261 467 c 0
 252 467 243 471 236 480 c 1
 222 516 196 534 157 534 c 0
 114 534 86 506 83 461 c 0
 83 459 83 456 83 454 c 0
 83 404 125 381 182 381 c 0
 185 381 189 381 192 381 c 1
 201 376 207 368 207 355 c 0
 207 328 191 326 168 326 c 0
EndSplineSet
Validated: 1
Ligature2: "'cjct' Conjunct Forms in Bengali2 lookup 13" u09b2 u09cd u09aa
EndChar

StartChar: u09b2_u09cd_u09ae.cjct
Encoding: 65698 -1 178
GlifName: u09b2_u09cd_u09ae.cjct
Width: 791
GlyphClass: 3
Flags: HMW
LayerCount: 2
Fore
SplineSet
169 326 m 0
 94 326 30 379 30 454 c 0
 30 488 43 519 68 546 c 0
 95 574 125 588 158 589 c 0
 195 589 229 573 261 542 c 1
 285 571 312 585 339 585 c 0
 364 585 392 572 423 547 c 1
 423 610 l 1
 -6 610 l 1
 -6 673 l 1
 551 673 l 1
 551 675 l 1
 788 675 l 1
 788 612 l 1
 711 612 l 1
 711 62 l 2
 711 50 703 44 684 44 c 0
 661 44 649 50 649 63 c 2
 649 124 l 2
 649 140 633 162 598 193 c 0
 559 227 523 245 488 245 c 0
 447 245 422 214 422 168 c 0
 422 124 447 97 490 93 c 0
 499 92 503 84 503 68 c 0
 503 46 497 36 485 36 c 0
 484 36 484 36 483 36 c 0
 428 41 404 57 382 93 c 0
 362 125 356 159 356 188 c 0
 356 237 379 274 425 297 c 1
 425 311 l 1
 423 311 l 1
 423 414 l 2
 423 464 407 499 374 520 c 0
 362 527 351 531 341 531 c 0
 323 531 304 514 283 480 c 0
 277 471 270 467 261 467 c 0
 252 467 244 471 237 480 c 1
 223 516 196 534 157 534 c 0
 115 534 87 505 84 461 c 0
 84 458 84 456 84 453 c 0
 84 404 126 381 183 381 c 0
 186 381 190 381 193 381 c 1
 202 376 207 368 207 355 c 0
 207 328 192 326 169 326 c 0
561 612 m 1
 561 610 l 1
 485 610 l 1
 485 415 l 1
 486 412 487 409 487 406 c 2
 487 307 l 1
 534 307 576 288 612 249 c 0
 627 233 639 214 649 194 c 1
 649 612 l 1
 561 612 l 1
EndSplineSet
Validated: 1
Ligature2: "'cjct' Conjunct Forms in Bengali2 lookup 13" u09b2 u09cd u09ae
EndChar

StartChar: u09b2_u09cd_u09b2.cjct
Encoding: 65699 -1 179
GlifName: u09b2_u09cd_u09b2.cjct
Width: 561
GlyphClass: 3
Flags: HMW
LayerCount: 2
Fore
SplineSet
188 109 m 2
 199 109 l 1
 208 105 213 97 213 84 c 0
 213 58 202 53 176 53 c 0
 101 53 35 109 35 183 c 0
 35 253 95 316 163 318 c 0
 200 318 235 303 268 272 c 1
 287 294 307 305 328 305 c 0
 364 305 396 280 423 229 c 1
 423 416 l 2
 423 465 406 499 374 520 c 0
 362 527 351 531 341 531 c 0
 323 531 304 514 283 480 c 0
 277 471 270 467 261 467 c 0
 252 467 244 471 237 480 c 1
 223 516 196 534 157 534 c 0
 115 534 87 505 84 461 c 0
 84 458 84 456 84 453 c 0
 84 404 126 381 183 381 c 0
 186 381 190 381 193 381 c 1
 202 376 207 368 207 355 c 0
 207 328 192 326 169 326 c 0
 94 326 30 379 30 454 c 0
 30 488 43 519 68 546 c 0
 95 574 125 588 158 589 c 0
 195 589 229 573 261 542 c 1
 285 571 312 585 339 585 c 0
 364 585 392 572 423 547 c 1
 423 610 l 1
 -6 610 l 1
 -6 673 l 1
 561 673 l 1
 561 610 l 1
 485 610 l 1
 485 68 l 2
 485 59 475 54 454 54 c 0
 433 54 423 59 423 68 c 0
 423 114 414 154 396 189 c 0
 379 225 360 243 338 243 c 0
 320 243 304 231 289 207 c 0
 284 200 278 197 269 197 c 0
 259 197 250 201 242 209 c 1
 229 244 204 262 165 262 c 0
 124 262 89 229 89 184 c 0
 89 133 134 109 188 109 c 2
EndSplineSet
Validated: 1
Ligature2: "'cjct' Conjunct Forms in Bengali2 lookup 13" u09b2 u09cd u09b2
EndChar

StartChar: u09ac_u09cd_u099c.cjct
Encoding: 65700 -1 180
GlifName: u09ac_u09cd_u099c.cjct
Width: 875
GlyphClass: 3
Flags: HMW
LayerCount: 2
Fore
SplineSet
390 351 m 1
 390 538 l 1
 245 452 l 1
 390 351 l 1
472 57 m 0
 340 57 225 123 130 256 c 0
 90 312 55 377 25 452 c 1
 26 472 35 482 52 482 c 0
 60 482 68 479 76 474 c 1
 118 385 148 327 165 300 c 0
 203 241 250 194 307 160 c 0
 359 130 421 115 495 115 c 2
 519 115 l 1
 559 127 588 148 608 178 c 0
 620 197 626 218 626 240 c 0
 626 275 612 305 582 330 c 1
 430 252 l 1
 177 432 l 2
 170 438 167 445 167 453 c 0
 167 461 171 469 179 478 c 1
 390 603 l 1
 390 610 l 1
 -10 610 l 1
 -10 673 l 1
 874 673 l 1
 874 610 l 1
 452 610 l 1
 785 504 l 2
 804 498 812 486 812 468 c 0
 812 461 812 454 810 448 c 1
 773 393 754 331 754 262 c 0
 754 194 774 110 814 8 c 1
 808 -7 797 -15 779 -15 c 0
 773 -15 769 -14 764 -12 c 1
 721 100 700 193 700 269 c 0
 700 340 717 404 750 461 c 1
 452 556 l 1
 452 330 l 1
 505 366 549 384 585 384 c 0
 591 384 598 383 604 382 c 1
 653 344 678 296 678 240 c 0
 678 189 659 146 621 111 c 1
 602 96 l 1
 580 83 l 1
 547 66 512 57 472 57 c 0
EndSplineSet
Validated: 1
Ligature2: "'cjct' Conjunct Forms in Bengali2 lookup 13" u09ac u09cd u099c
EndChar

StartChar: u09ac_u09cd_u09a6.cjct
Encoding: 65701 -1 181
GlifName: u09ac_u09cd_u09a6.cjct
Width: 670
GlyphClass: 3
Flags: HMW
LayerCount: 2
Fore
SplineSet
260 364 m 1
 260 536 l 1
 104 463 l 1
 260 364 l 1
296 287 m 2
 284 287 l 2
 275 287 267 289 260 293 c 2
 36 437 l 2
 29 442 24 449 24 460 c 0
 24 476 30 487 42 493 c 2
 260 601 l 1
 260 610 l 1
 -12 610 l 1
 -12 673 l 1
 675 673 l 1
 675 610 l 1
 330 610 l 1
 330 375 l 1
 345 394 372 417 410 445 c 0
 474 492 523 514 556 514 c 0
 559 514 562 513 565 513 c 0
 585 511 596 500 596 481 c 0
 596 480 596 479 596 478 c 1
 564 389 548 316 548 258 c 0
 548 196 564 133 598 69 c 0
 598 67 598 66 598 64 c 0
 598 47 582 39 561 39 c 0
 557 39 553 39 548 40 c 1
 510 108 490 178 490 251 c 0
 490 306 502 370 524 443 c 1
 449 414 382 364 323 294 c 1
 315 289 306 287 296 287 c 2
EndSplineSet
Validated: 1
LCarets2: 2 0 0
Ligature2: "'cjct' Conjunct Forms in Bengali2 lookup 13" u09ac u09cd u09a6
EndChar

StartChar: u09ac_u09cd_u09a7.cjct
Encoding: 65702 -1 182
GlifName: u09ac_u09cd_u09a7.cjct
Width: 588
GlyphClass: 3
Flags: HMW
LayerCount: 2
Fore
SplineSet
297 321 m 1
 297 137 l 1
 180 244 l 1
 297 321 l 1
297 502 m 1
 297 392 l 1
 218 340 l 1
 114 414 l 1
 297 502 l 1
EndSplineSet
Validated: 1
LCarets2: 2 0 0
Ligature2: "'cjct' Conjunct Forms in Bengali2 lookup 13" u09ac u09cd u09a7
EndChar

StartChar: u09ac_u09cd_u09a8.cjct
Encoding: 65703 -1 183
GlifName: u09ac_u09cd_u09a8.cjct
Width: 426
GlyphClass: 3
Flags: HMW
LayerCount: 2
Fore
SplineSet
264 364 m 1
 264 536 l 1
 107 463 l 1
 264 364 l 1
99 24 m 0
 50 24 -14 115 -14 167 c 0
 -14 188 -8 209 4 230 c 0
 30 277 69 300 121 300 c 0
 164 300 203 284 236 252 c 1
 251 236 l 2
 257 229 262 221 266 214 c 1
 266 292 l 1
 265 293 265 293 264 293 c 2
 40 437 l 2
 33 442 28 449 28 460 c 0
 28 476 34 487 46 493 c 2
 264 601 l 1
 264 610 l 1
 -8 610 l 1
 -8 673 l 1
 427 673 l 1
 427 610 l 1
 326 610 l 1
 326 551 326 491 326 432 c 1
 328 434 l 1
 328 36 l 2
 328 24 317 19 294 19 c 0
 275 19 266 24 266 36 c 0
 266 89 266 118 265 125 c 0
 261 158 251 184 234 201 c 0
 203 232 171 248 138 248 c 0
 88 248 42 207 42 155 c 0
 42 117 65 89 111 70 c 0
 118 67 121 62 121 53 c 0
 121 34 114 24 99 24 c 0
EndSplineSet
Validated: 1
Ligature2: "'cjct' Conjunct Forms in Bengali2 lookup 13" u09ac u09cd u09a8
EndChar

StartChar: u09ac_u09cd_u09b2.cjct
Encoding: 65704 -1 184
GlifName: u09ac_u09cd_u09b2.cjct
Width: 549
GlyphClass: 3
Flags: HMW
LayerCount: 2
Fore
SplineSet
408 364 m 1
 408 536 l 1
 252 463 l 1
 408 364 l 1
170 105 m 2
 181 105 l 1
 190 101 195 93 195 80 c 0
 195 54 184 49 158 49 c 0
 83 49 17 104 17 179 c 0
 17 249 77 312 145 314 c 0
 182 314 217 299 250 268 c 1
 269 290 289 301 310 301 c 0
 346 301 378 276 405 225 c 1
 405 228 405 243 406 270 c 0
 406 280 406 288 405 294 c 1
 181 438 l 2
 174 443 169 450 169 461 c 0
 169 477 176 488 188 494 c 2
 405 602 l 1
 405 611 l 1
 5 611 l 1
 5 674 l 1
 548 674 l 1
 548 611 l 1
 467 611 l 1
 467 64 l 2
 467 55 457 50 436 50 c 0
 415 50 405 55 405 64 c 0
 405 130 377 239 320 239 c 0
 302 239 286 227 271 203 c 0
 266 196 260 193 251 193 c 0
 241 193 232 197 224 205 c 1
 211 240 186 258 147 258 c 0
 106 258 71 225 71 180 c 0
 71 129 116 105 170 105 c 2
EndSplineSet
Validated: 1
Ligature2: "'cjct' Conjunct Forms in Bengali2 lookup 13" u09ac u09cd u09b2
EndChar

StartChar: u09b6_u09cd_u09b2.cjct
Encoding: 65705 -1 185
GlifName: u09b6_u09cd_u09b2.cjct
Width: 542
GlyphClass: 3
Flags: HMW
LayerCount: 2
Fore
SplineSet
169 84 m 2
 179 84 l 1
 188 80 193 73 193 60 c 0
 193 34 182 29 156 29 c 0
 81 29 15 84 15 159 c 0
 15 228 75 291 143 293 c 0
 180 293 215 279 248 248 c 1
 267 270 287 281 308 281 c 0
 344 281 376 256 403 205 c 1
 403 377 l 1
 402 379 401 381 401 383 c 2
 401 545 l 2
 401 588 335 610 281 610 c 0
 245 610 206 573 206 535 c 0
 206 476 242 446 317 443 c 0
 321 441 323 436 323 427 c 0
 323 408 319 395 312 389 c 1
 306 389 301 388 295 388 c 0
 235 388 191 413 165 461 c 1
 147 426 122 404 93 393 c 0
 79 388 62 386 40 386 c 2
 16 386 l 1
 9 391 5 400 5 412 c 0
 5 425 8 434 14 441 c 1
 74 444 113 470 123 520 c 0
 124 526 125 531 125 536 c 0
 125 573 99 605 63 609 c 0
 59 610 38 610 1 610 c 0
 -7 610 -11 621 -11 643 c 0
 -11 663 -7 673 1 673 c 0
 44 673 73 671 87 667 c 0
 116 658 142 634 164 597 c 1
 182 625 198 643 214 653 c 0
 230 663 252 670 281 673 c 0
 285 673 288 674 292 674 c 0
 333 674 388 650 401 622 c 1
 401 645 436 673 463 673 c 2
 540 673 l 1
 540 610 l 1
 463 610 l 1
 463 431 l 1
 465 432 l 1
 465 43 l 2
 465 34 455 30 434 30 c 0
 413 30 403 34 403 43 c 0
 403 89 394 130 377 165 c 0
 359 201 340 219 318 219 c 0
 300 219 284 207 269 183 c 0
 264 176 258 172 249 172 c 0
 239 172 230 177 222 185 c 1
 209 220 184 238 145 238 c 0
 105 238 69 204 69 160 c 0
 69 109 115 84 169 84 c 2
EndSplineSet
Validated: 1
Ligature2: "'cjct' Conjunct Forms in Bengali2 lookup 13" u09b6 u09cd u09b2
EndChar

StartChar: u09b7_u09cd_u0995.cjct
Encoding: 65706 -1 186
GlifName: u09b7_u09cd_u0995.cjct
Width: 513
GlyphClass: 3
Flags: HMW
LayerCount: 2
Fore
SplineSet
255 85 m 1
 255 249 l 1
 103 188 l 1
 255 85 l 1
287 594 m 0
 266 604 245 610 224 610 c 0
 193 610 161 598 129 575 c 1
 292 480 l 1
 305 501 312 523 312 544 c 0
 312 569 304 585 287 594 c 0
266 445 m 1
 100 541 l 1
 86 524 80 504 80 485 c 0
 80 463 86 440 104 426 c 2
 128 407 l 1
 146 400 161 396 173 396 c 0
 200 396 231 412 266 445 c 1
328 239 m 2
 317 239 l 1
 317 32 l 2
 317 19 304 13 279 13 c 0
 269 13 261 16 256 20 c 2
 23 175 l 2
 16 180 12 186 12 195 c 0
 12 204 17 211 28 216 c 2
 256 314 l 1
 256 373 l 1
 230 357 204 348 178 348 c 0
 159 348 140 350 122 360 c 0
 60 392 30 438 30 495 c 0
 30 542 48 581 85 610 c 1
 -7 610 l 1
 -7 673 l 1
 361 673 l 1
 392 673 l 1
 514 673 l 1
 514 610 l 1
 361 610 l 1
 352 610 l 1
 339 610 l 1
 355 585 363 558 363 532 c 0
 363 493 347 456 314 421 c 1
 317 422 l 1
 317 295 l 1
 408 295 472 241 472 161 c 0
 472 103 447 39 392 39 c 0
 377 39 369 49 369 64 c 0
 369 73 373 81 380 88 c 1
 404 93 421 122 421 156 c 0
 421 170 418 183 412 196 c 1
 391 224 363 239 328 239 c 2
EndSplineSet
Validated: 1
LCarets2: 2 0 0
Ligature2: "'cjct' Conjunct Forms in Bengali2 lookup 13" u09b7 u09cd u0995
EndChar

